<svg width="270" height="200" viewBox="0 0 270 200" fill="none" xmlns="http://www.w3.org/2000/svg">
<rect x="2.5" y="2.5" width="265" height="175" rx="7.5" fill="#2A3385" stroke="#995335" stroke-width="5"/>
<path d="M151.354 25.8696L149.916 28.3903L151.219 29.1336L148.343 34.1749L147.04 33.4317L144.164 38.473L145.467 39.2163L142.591 44.2576L141.288 43.5143L138.412 48.5557L139.715 49.299L136.839 54.3403L135.536 53.597L132.66 58.6384L133.963 59.3816L131.087 64.423L129.784 63.6797L126.908 68.721L128.211 69.4643L125.335 74.5057L124.032 73.7624L121.156 78.8037L122.459 79.547L119.583 84.5883L118.28 83.8451L115.404 88.8864L116.707 89.6297L113.831 94.671L112.529 93.9278L109.653 98.9691L110.955 99.7124L108.079 104.754L106.777 104.01L103.901 109.052L105.204 109.795L102.328 114.836L101.025 114.093L98.1487 119.134L99.4516 119.878L96.5756 124.919L95.2727 124.176L92.3967 129.217L93.6996 129.96L90.8237 135.002L89.5208 134.258L88.0828 136.779C87.4891 137.82 87.2155 138.935 87.2214 140.027L88.7214 140.019C88.7309 141.789 89.6985 143.455 91.2307 144.34L90.4804 145.639C91.426 146.185 92.5306 146.5 93.7287 146.5H96.6046V145H102.357V146.5H108.109V145H113.86V146.5H119.612V145H125.364V146.5H131.116V145H136.868V146.5H142.62V145H148.372V146.5H154.124V145H159.876V146.5H165.628V145H171.38V146.5H177.132V145H182.884V146.5H188.636V145H194.388V146.5H200.14V145H205.891V146.5H211.643V145H217.395V146.5H220.271C221.469 146.5 222.574 146.185 223.52 145.639L222.769 144.34C224.302 143.455 225.269 141.789 225.279 140.019L226.779 140.027C226.785 138.935 226.511 137.82 225.917 136.779L224.479 134.258L223.176 135.002L220.3 129.96L221.603 129.217L218.727 124.176L217.424 124.919L214.548 119.878L215.851 119.134L212.975 114.093L211.672 114.836L208.796 109.795L210.099 109.052L207.223 104.01L205.921 104.754L203.045 99.7124L204.347 98.9691L201.471 93.9277L200.169 94.671L197.293 89.6297L198.596 88.8864L195.72 83.8451L194.417 84.5883L191.541 79.547L192.844 78.8037L189.968 73.7624L188.665 74.5056L185.789 69.4643L187.092 68.721L184.216 63.6797L182.913 64.423L180.037 59.3816L181.34 58.6383L178.464 53.597L177.161 54.3403L174.285 49.2989L175.588 48.5557L172.712 43.5143L171.409 44.2576L168.533 39.2163L169.836 38.473L166.96 33.4316L165.657 34.1749L162.781 29.1336L164.084 28.3903L162.646 25.8696L161.343 26.6129L162.646 25.8696C162.047 24.8204 161.218 24.0128 160.266 23.462L159.515 24.7603C157.972 23.8672 156.028 23.8672 154.485 24.7603L153.734 23.462C152.782 24.0128 151.953 24.8204 151.354 25.8696Z" fill="url(#paint0_radial_253_98)" stroke="#4E834D" stroke-width="3" stroke-dasharray="6 6"/>
<g filter="url(#filter0_d_253_98)">
<path d="M87.1628 53.5613C89.0842 50.2117 93.9158 50.2117 95.8372 53.5613L153.456 154.012C155.368 157.346 152.962 161.5 149.119 161.5H33.8812C30.0385 161.5 27.6321 157.346 29.5441 154.012L87.1628 53.5613Z" fill="url(#paint1_linear_253_98)"/>
<path d="M87.5966 53.81C89.3258 50.7954 93.6742 50.7954 95.4034 53.81L153.022 154.261C154.743 157.261 152.577 161 149.119 161H33.8812C30.4227 161 28.257 157.261 29.9778 154.261L87.5966 53.81Z" stroke="#D1D1D1"/>
</g>
<defs>
<filter id="filter0_d_253_98" x="22.8738" y="49.0491" width="133.252" height="118.451" filterUnits="userSpaceOnUse" color-interpolation-filters="sRGB">
<feFlood flood-opacity="0" result="BackgroundImageFix"/>
<feColorMatrix in="SourceAlpha" type="matrix" values="0 0 0 0 0 0 0 0 0 0 0 0 0 0 0 0 0 0 127 0" result="hardAlpha"/>
<feOffset dx="-2" dy="2"/>
<feGaussianBlur stdDeviation="2"/>
<feComposite in2="hardAlpha" operator="out"/>
<feColorMatrix type="matrix" values="0 0 0 0 0 0 0 0 0 0 0 0 0 0 0 0 0 0 0.25 0"/>
<feBlend mode="normal" in2="BackgroundImageFix" result="effect1_dropShadow_253_98"/>
<feBlend mode="normal" in="SourceGraphic" in2="effect1_dropShadow_253_98" result="shape"/>
</filter>
<radialGradient id="paint0_radial_253_98" cx="0" cy="0" r="1" gradientUnits="userSpaceOnUse" gradientTransform="translate(157 103) rotate(90) scale(84 83)">
<stop/>
<stop offset="1" stop-color="#343434"/>
</radialGradient>
<linearGradient id="paint1_linear_253_98" x1="102.894" y1="110.167" x2="155.326" y2="44.9703" gradientUnits="userSpaceOnUse">
<stop stop-color="#2A3385"/>
<stop offset="1" stop-color="#D7D9ED"/>
</linearGradient>
</defs>
</svg>
