<svg width="88" height="88" viewBox="0 0 88 88" fill="none" xmlns="http://www.w3.org/2000/svg">
<g filter="url(#filter0_d_225_10)">
<circle cx="44" cy="42" r="37" fill="#F87A6E"/>
<circle cx="44" cy="42" r="38.5" stroke="#995335" stroke-width="3"/>
</g>
<g filter="url(#filter1_d_225_10)">
<path d="M59.9129 44.6938C60.0013 43.9738 60.0676 43.2425 60.0676 42.5C60.0676 41.7575 60.0013 41.0262 59.9129 40.3062L64.5865 36.5825C65.0064 36.245 65.1279 35.6375 64.8517 35.1425L60.4322 27.3462C60.156 26.8625 59.5814 26.66 59.0842 26.8625L53.582 29.1237C52.444 28.235 51.1954 27.4813 49.8475 26.9075L49.0188 20.945C48.9194 20.4163 48.4664 20 47.914 20H39.075C38.5225 20 38.0695 20.4163 37.9812 20.945L37.1525 26.9075C35.8046 27.4813 34.5561 28.2237 33.418 29.1237L27.9158 26.8625C27.4186 26.6713 26.844 26.8625 26.5678 27.3462L22.1483 35.1425C21.8721 35.6262 21.9936 36.2337 22.4135 36.5825L27.0761 40.3062C26.9877 41.0262 26.9214 41.7575 26.9214 42.5C26.9214 43.2425 26.9877 43.9738 27.0761 44.6938L22.4135 48.4175C21.9936 48.755 21.8721 49.3625 22.1483 49.8575L26.5678 57.6538C26.844 58.1375 27.4186 58.34 27.9158 58.1375L33.418 55.8762C34.5561 56.765 35.8046 57.5188 37.1525 58.0925L37.9812 64.055C38.0695 64.5837 38.5225 65 39.075 65H47.914C48.4664 65 48.9194 64.5837 49.0078 64.055L49.8364 58.0925C51.1844 57.5188 52.4329 56.7762 53.5709 55.8762L59.0732 58.1375C59.5704 58.3288 60.1449 58.1375 60.4211 57.6538L64.8406 49.8575C65.1168 49.3738 64.9953 48.7663 64.5755 48.4175L59.9129 44.6938ZM43.4945 50.375C39.2186 50.375 35.7604 46.8537 35.7604 42.5C35.7604 38.1463 39.2186 34.625 43.4945 34.625C47.7703 34.625 51.2286 38.1463 51.2286 42.5C51.2286 46.8537 47.7703 50.375 43.4945 50.375Z" fill="#995335"/>
</g>
<defs>
<filter id="filter0_d_225_10" x="0" y="0" width="88" height="88" filterUnits="userSpaceOnUse" color-interpolation-filters="sRGB">
<feFlood flood-opacity="0" result="BackgroundImageFix"/>
<feColorMatrix in="SourceAlpha" type="matrix" values="0 0 0 0 0 0 0 0 0 0 0 0 0 0 0 0 0 0 127 0" result="hardAlpha"/>
<feOffset dy="2"/>
<feGaussianBlur stdDeviation="2"/>
<feComposite in2="hardAlpha" operator="out"/>
<feColorMatrix type="matrix" values="0 0 0 0 0 0 0 0 0 0 0 0 0 0 0 0 0 0 0.25 0"/>
<feBlend mode="normal" in2="BackgroundImageFix" result="effect1_dropShadow_225_10"/>
<feBlend mode="normal" in="SourceGraphic" in2="effect1_dropShadow_225_10" result="shape"/>
</filter>
<filter id="filter1_d_225_10" x="21" y="20" width="47" height="49" filterUnits="userSpaceOnUse" color-interpolation-filters="sRGB">
<feFlood flood-opacity="0" result="BackgroundImageFix"/>
<feColorMatrix in="SourceAlpha" type="matrix" values="0 0 0 0 0 0 0 0 0 0 0 0 0 0 0 0 0 0 127 0" result="hardAlpha"/>
<feOffset dx="1" dy="2"/>
<feGaussianBlur stdDeviation="1"/>
<feComposite in2="hardAlpha" operator="out"/>
<feColorMatrix type="matrix" values="0 0 0 0 0 0 0 0 0 0 0 0 0 0 0 0 0 0 0.25 0"/>
<feBlend mode="normal" in2="BackgroundImageFix" result="effect1_dropShadow_225_10"/>
<feBlend mode="normal" in="SourceGraphic" in2="effect1_dropShadow_225_10" result="shape"/>
</filter>
</defs>
</svg>
