<svg width="88" height="88" fill="none" xmlns="http://www.w3.org/2000/svg">
  <g filter="url(#a)">
    <circle cx="44" cy="42" r="37" fill="#F87A6E"/>
    <circle cx="44" cy="42" r="38.5" stroke="#995335" stroke-width="3"/>
  </g>
  <g filter="url(#b)">
    <path d="M40.01 59.64c.94.95 2.12 1.4 3.53 1.36a4.92 4.92 0 0 0 4.94-5.1c0-1.47-.47-2.67-1.41-3.62l-4.62-4.65H59c1.45 0 2.65-.5 3.59-1.48A5.13 5.13 0 0 0 64 42.47a5.03 5.03 0 0 0-5.13-5.17H42.45l4.74-4.78a4.64 4.64 0 0 0 1.35-3.55 5.07 5.07 0 0 0-1.47-3.55 4.85 4.85 0 0 0-3.6-1.42c-1.45 0-2.65.47-3.59 1.42L26.54 38.85A4.97 4.97 0 0 0 25 42.47c0 1.38.51 2.58 1.54 3.61l13.47 13.56Z" fill="#995335"/>
  </g>
  <defs>
    <filter id="a" x="0" y="0" width="88" height="88" filterUnits="userSpaceOnUse" color-interpolation-filters="sRGB">
      <feFlood flood-opacity="0" result="BackgroundImageFix"/>
      <feColorMatrix in="SourceAlpha" values="0 0 0 0 0 0 0 0 0 0 0 0 0 0 0 0 0 0 127 0" result="hardAlpha"/>
      <feOffset dy="2"/>
      <feGaussianBlur stdDeviation="2"/>
      <feComposite in2="hardAlpha" operator="out"/>
      <feColorMatrix values="0 0 0 0 0 0 0 0 0 0 0 0 0 0 0 0 0 0 0.25 0"/>
      <feBlend in2="BackgroundImageFix" result="effect1_dropShadow_241_5"/>
      <feBlend in="SourceGraphic" in2="effect1_dropShadow_241_5" result="shape"/>
    </filter>
    <filter id="b" x="24" y="24" width="43" height="41" filterUnits="userSpaceOnUse" color-interpolation-filters="sRGB">
      <feFlood flood-opacity="0" result="BackgroundImageFix"/>
      <feColorMatrix in="SourceAlpha" values="0 0 0 0 0 0 0 0 0 0 0 0 0 0 0 0 0 0 127 0" result="hardAlpha"/>
      <feOffset dx="1" dy="2"/>
      <feGaussianBlur stdDeviation="1"/>
      <feComposite in2="hardAlpha" operator="out"/>
      <feColorMatrix values="0 0 0 0 0 0 0 0 0 0 0 0 0 0 0 0 0 0 0.25 0"/>
      <feBlend in2="BackgroundImageFix" result="effect1_dropShadow_241_5"/>
      <feBlend in="SourceGraphic" in2="effect1_dropShadow_241_5" result="shape"/>
    </filter>
  </defs>
</svg>
