<svg width="281" height="281" viewBox="0 0 281 281" fill="none" xmlns="http://www.w3.org/2000/svg">
<path d="M275.032 43.8823C275.234 43.7246 275.432 43.5618 275.627 43.3957C275.821 43.2283 276.012 43.057 276.197 42.8811C277.496 41.6535 278.577 40.2202 279.384 38.639C279.499 38.4113 279.608 38.1835 279.711 37.9513C280.023 37.2551 280.282 36.5322 280.484 35.79C280.552 35.5408 280.613 35.2917 280.668 35.0393C280.776 34.5345 280.859 34.0212 280.916 33.4996L280.952 33.1057L280.967 32.9085L280.973 32.8105L280.979 32.621C280.994 32.0929 281 31.5595 281 31.0249C281 30.7569 280.999 30.4896 280.995 30.2242C280.985 29.4249 280.957 28.6378 280.916 27.8651C280.748 24.7707 280.334 21.9003 279.711 19.4918C279.62 19.1148 279.512 18.7411 279.397 18.3706C279.351 18.2214 279.304 18.0754 279.258 17.9287C279.244 17.8891 279.233 17.8476 279.218 17.8061C278.844 16.6765 278.416 15.6766 277.939 14.8247C275.494 10.0888 271.399 6.14256 267.136 3.6627C265.763 2.69722 263.856 1.89331 261.508 1.28859C258.297 0.458081 254.264 0 249.975 0C249.44 0 248.907 0.00648852 248.379 0.0214117L248.284 0.0233582L248.189 0.0266024L248.09 0.0330908L247.992 0.0395792L247.894 0.0480141L247.5 0.0843491C247.11 0.125875 246.725 0.189461 246.343 0.260833C246.215 0.285489 246.087 0.305603 245.961 0.332206C245.708 0.386708 245.459 0.448348 245.21 0.516476C244.715 0.650786 244.228 0.8104 243.753 0.994671C243.516 1.08616 243.282 1.18413 243.049 1.28859C242.816 1.39176 242.589 1.50141 242.361 1.61626C241.458 2.07758 240.602 2.6278 239.806 3.25717C239.209 3.73083 238.644 4.2473 238.119 4.80336C237.943 4.98828 237.772 5.17904 237.604 5.37304C236.936 6.14905 236.338 6.99449 235.82 7.89637C234.395 10.3749 233.574 13.2863 233.574 16.3994C233.574 13.2863 232.754 10.3749 231.329 7.89637C231.199 7.67058 231.065 7.44803 230.925 7.23066C230.089 5.92131 229.08 4.74691 227.93 3.74575C227.737 3.5777 227.543 3.41484 227.344 3.25717C226.945 2.94313 226.533 2.64726 226.106 2.37345C223.761 0.866849 221.007 0 218.062 0C215.117 0 212.364 0.866849 210.02 2.37345C209.593 2.64726 209.179 2.94313 208.78 3.25717C208.582 3.41484 208.386 3.5777 208.196 3.74575C207.046 4.74691 206.036 5.92131 205.199 7.23066C205.06 7.44803 204.925 7.67058 204.795 7.89637C203.37 10.3749 202.549 13.2863 202.549 16.3994C202.549 13.2863 201.729 10.3749 200.304 7.89637C200.175 7.67058 200.04 7.44803 199.9 7.23066C199.065 5.92131 198.053 4.74691 196.905 3.74575C196.713 3.5777 196.519 3.41484 196.319 3.25717C195.92 2.94313 195.509 2.64726 195.082 2.37345C192.736 0.866849 189.982 0 187.038 0C184.093 0 181.34 0.866849 178.993 2.37345C178.568 2.64726 178.154 2.94313 177.755 3.25717C177.558 3.41484 177.362 3.5777 177.171 3.74575C176.022 4.74691 175.011 5.92131 174.174 7.23066C174.035 7.44803 173.9 7.67058 173.771 7.89637C172.345 10.3749 171.525 13.2863 171.525 16.3994C171.525 13.2863 170.704 10.3749 169.28 7.89637C169.15 7.67058 169.016 7.44803 168.875 7.23066C168.04 5.92131 167.029 4.74691 165.881 3.74575C165.688 3.5777 165.494 3.41484 165.294 3.25717C164.896 2.94313 164.482 2.64726 164.057 2.37345C161.712 0.866849 158.958 0 156.013 0C153.068 0 150.313 0.866849 147.968 2.37345C147.543 2.64726 147.13 2.94313 146.731 3.25717C146.531 3.41484 146.337 3.5777 146.146 3.74575C144.997 4.74691 143.985 5.92131 143.15 7.23066C143.01 7.44803 142.876 7.67058 142.746 7.89637C141.321 10.3749 140.5 13.2863 140.5 16.3994C140.5 13.2863 139.68 10.3749 138.255 7.89637C138.125 7.67058 137.991 7.44803 137.851 7.23066C137.015 5.92131 136.004 4.74691 134.855 3.74575C134.663 3.5777 134.469 3.41484 134.27 3.25717C133.871 2.94313 133.458 2.64726 133.032 2.37345C130.687 0.866849 127.933 0 124.988 0C122.043 0 119.289 0.866849 116.944 2.37345C116.519 2.64726 116.105 2.94313 115.706 3.25717C115.507 3.41484 115.312 3.5777 115.12 3.74575C113.972 4.74691 112.96 5.92131 112.125 7.23066C111.985 7.44803 111.851 7.67058 111.721 7.89637C110.296 10.3749 109.475 13.2863 109.475 16.3994C109.475 13.2863 108.655 10.3749 107.23 7.89637C107.101 7.67058 106.966 7.44803 106.826 7.23066C105.989 5.92131 104.979 4.74691 103.83 3.74575C103.638 3.5777 103.443 3.41484 103.245 3.25717C102.846 2.94313 102.433 2.64726 102.008 2.37345C99.6617 0.866849 96.908 0 93.963 0C91.0179 0 88.2649 0.866849 85.9193 2.37345C85.493 2.64726 85.0797 2.94313 84.682 3.25717C84.4828 3.41484 84.2875 3.5777 84.0961 3.74575C82.9463 4.74691 81.9361 5.92131 81.0997 7.23066C80.9609 7.44803 80.8259 7.67058 80.6968 7.89637C79.2713 10.3749 78.4512 13.2863 78.4505 16.3994C78.4505 13.2863 77.6297 10.3749 76.2049 7.89637C76.0751 7.67058 75.9408 7.44803 75.8013 7.23066C74.965 5.92131 73.9547 4.74691 72.8056 3.74575C72.6142 3.5777 72.4189 3.41484 72.2197 3.25717C71.8213 2.94313 71.4087 2.64726 70.9817 2.37345C68.6368 0.866849 65.8831 0 62.9381 0C59.993 0 57.24 0.866849 54.8944 2.37345C54.4681 2.64726 54.0548 2.94313 53.6571 3.25717C53.4579 3.41484 53.2626 3.5777 53.0712 3.74575C51.9214 4.74691 50.9112 5.92131 50.0748 7.23066C49.936 7.44803 49.801 7.67058 49.6719 7.89637C48.2464 10.3749 47.4263 13.2863 47.4256 16.3994C47.4256 13.2863 46.6048 10.3749 45.18 7.89637C44.6616 6.99449 44.0633 6.14905 43.3963 5.37304C43.2289 5.17904 43.0576 4.98828 42.8824 4.80336C42.3562 4.2473 41.7917 3.73083 41.1948 3.25717C40.3987 2.6278 39.5429 2.07758 38.639 1.61626C38.4126 1.50141 38.1835 1.39176 37.9513 1.28859C37.7196 1.18413 37.4847 1.08616 37.2473 0.994671C36.7717 0.8104 36.2857 0.650786 35.79 0.516476C35.5421 0.448348 35.2923 0.386708 35.0399 0.332206C34.9134 0.305603 34.7849 0.285489 34.6578 0.260833C34.2756 0.189461 33.8908 0.125875 33.4996 0.0843491L33.107 0.0480141L33.0084 0.0395792L32.8112 0.0266024L32.7164 0.0233582L32.6217 0.0214117C32.0935 0.00648852 31.5608 0 31.0249 0C26.7361 0 22.7029 0.458081 19.4931 1.28859C17.1443 1.89331 15.2373 2.69722 13.865 3.6627C9.60152 6.14256 5.50735 10.0888 3.06122 14.8247C2.58498 15.6766 2.15674 16.6765 1.78236 17.8061C1.76874 17.8476 1.75706 17.8891 1.74343 17.9287C1.69607 18.0754 1.64935 18.2214 1.60393 18.3706C1.48909 18.7411 1.38138 19.1148 1.28924 19.4918C0.666358 21.9003 0.253047 24.7707 0.084998 27.8651C0.0428233 28.6378 0.016221 29.4249 0.00583955 30.2242C0.0019466 30.4896 0 30.7569 0 31.0249C0 31.5595 0.00713732 32.0929 0.0214117 32.621L0.0272513 32.8105L0.0337396 32.9085L0.0480141 33.1057L0.084998 33.4996C0.140798 34.0212 0.224498 34.5345 0.333503 35.0393C0.388006 35.2917 0.448997 35.5408 0.516476 35.79C0.718914 36.5322 0.977801 37.2551 1.28924 37.9513C1.39306 38.1835 1.50271 38.4113 1.61756 38.639C2.42342 40.2202 3.50568 41.6535 4.80401 42.8811C4.98957 43.057 5.17904 43.2283 5.37369 43.3957C5.56769 43.5618 5.76624 43.7246 5.96867 43.8823C6.37355 44.1983 6.79529 44.4974 7.23131 44.7764C9.84873 46.4491 13.004 47.4256 16.4007 47.4256C14.9856 47.4256 13.612 47.595 12.302 47.9142C11.7784 48.042 11.2645 48.1932 10.7616 48.3658C10.5105 48.454 10.2627 48.5468 10.0168 48.6448C9.52626 48.8407 9.04806 49.0581 8.5835 49.2975C5.33022 50.9683 2.74135 53.6512 1.28924 56.9C1.08162 57.3632 0.897345 57.8388 0.73773 58.3255C0.258238 59.7821 0 61.3315 0 62.9381C0 64.5439 0.258238 66.094 0.73773 67.5507C0.817538 67.7933 0.903184 68.034 0.99532 68.2715C1.08745 68.509 1.18543 68.7432 1.28924 68.9755C1.70385 69.904 2.21189 70.7845 2.80104 71.6104C2.94897 71.8181 3.1008 72.0205 3.25847 72.2184C3.57316 72.6168 3.90796 73.0003 4.26093 73.3675C4.43741 73.5518 4.61844 73.7315 4.80401 73.9073C5.17514 74.2577 5.5638 74.5919 5.96867 74.9072C6.77842 75.5405 7.65371 76.0998 8.5835 76.5786C9.04806 76.8161 9.52626 77.0354 10.0168 77.2313C10.2627 77.3293 10.5105 77.4221 10.7616 77.5084C11.2645 77.6829 11.7784 77.8341 12.302 77.9619C13.612 78.2812 14.9856 78.4505 16.4007 78.4505C14.9856 78.4505 13.612 78.6199 12.302 78.9384C11.7784 79.0663 11.2645 79.2174 10.7616 79.392C10.5105 79.4783 10.2627 79.5717 10.0168 79.6697C9.52626 79.8656 9.04806 80.083 8.5835 80.3224C7.88599 80.6812 7.21964 81.0848 6.58831 81.5312C4.06238 83.3187 2.099 85.7772 0.99532 88.6289C0.903184 88.8663 0.817538 89.1057 0.73773 89.3497C0.578116 89.835 0.442508 90.3314 0.333503 90.8369C0.279001 91.0892 0.230987 91.3429 0.189461 91.6005C0.10641 92.1138 0.0499606 92.6354 0.0214117 93.1636C0.00778611 93.4277 0 93.695 0 93.9623C0 94.7649 0.0648839 95.5539 0.189461 96.3247C0.313389 97.0956 0.498309 97.8463 0.73773 98.5756C0.817538 98.8176 0.903184 99.0589 0.99532 99.2964C1.63962 100.959 2.57589 102.489 3.7451 103.829C3.9125 104.022 4.08444 104.209 4.26093 104.392C7.26116 107.515 11.5883 109.475 16.4001 109.475C11.0225 109.475 6.24897 111.923 3.25847 115.706C3.1008 115.905 2.94897 116.107 2.80104 116.314C1.91732 117.553 1.21657 118.918 0.73773 120.375C0.657923 120.617 0.583955 120.863 0.516476 121.11C0.179728 122.35 0 123.649 0 124.987C0 126.326 0.179728 127.625 0.516476 128.864C0.583955 129.112 0.657923 129.358 0.73773 129.6C1.21657 131.056 1.91732 132.422 2.80104 133.661C2.94897 133.867 3.1008 134.07 3.25847 134.269C6.24897 138.052 11.0225 140.5 16.4001 140.5C11.0225 140.5 6.24897 142.948 3.25847 146.73C3.1008 146.93 2.94897 147.132 2.80104 147.338C1.91732 148.577 1.21657 149.943 0.73773 151.4C0.657923 151.642 0.583955 151.887 0.516476 152.135C0.179728 153.375 0 154.673 0 156.012C0 157.351 0.179728 158.65 0.516476 159.889C0.583955 160.136 0.657923 160.382 0.73773 160.625C1.21657 162.081 1.91732 163.447 2.80104 164.686C2.94897 164.892 3.1008 165.095 3.25847 165.294C6.24897 169.076 11.0225 171.525 16.4001 171.525C12.1547 171.525 8.28568 173.051 5.37369 175.554C4.79103 176.055 4.24665 176.595 3.7451 177.17C2.57589 178.511 1.63962 180.041 0.99532 181.703C0.903184 181.94 0.817538 182.182 0.73773 182.424C0.498309 183.153 0.313389 183.904 0.189461 184.675C0.0648839 185.445 0 186.234 0 187.037C0 187.304 0.00778611 187.572 0.0214117 187.836C0.0499606 188.364 0.10641 188.886 0.189461 189.399C0.230987 189.656 0.279001 189.91 0.333503 190.162C0.442508 190.668 0.578116 191.164 0.73773 191.65C0.817538 191.892 0.903184 192.133 0.99532 192.37C2.099 195.222 4.06238 197.681 6.58831 199.468C7.21964 199.915 7.88599 200.318 8.5835 200.677C9.04806 200.916 9.52626 201.134 10.0168 201.33C10.2627 201.428 10.5105 201.521 10.7616 201.607C11.2645 201.782 11.7784 201.933 12.302 202.061C13.612 202.379 14.9856 202.549 16.4007 202.549C14.9856 202.549 13.612 202.718 12.302 203.037C11.7784 203.165 11.2645 203.316 10.7616 203.491C10.5105 203.577 10.2627 203.67 10.0168 203.768C9.52626 203.964 9.04806 204.183 8.5835 204.421C7.65371 204.9 6.77842 205.459 5.96867 206.092C4.95583 206.882 4.04551 207.784 3.25847 208.781C3.1008 208.979 2.94897 209.181 2.80104 209.389C2.21189 210.213 1.70385 211.095 1.28924 212.024C1.18543 212.256 1.08745 212.49 0.99532 212.728C0.903184 212.965 0.817538 213.206 0.73773 213.449C0.258238 214.905 0 216.455 0 218.061C0 219.668 0.258238 221.217 0.73773 222.674C0.897345 223.16 1.08162 223.636 1.28924 224.099C2.74135 227.348 5.33022 230.031 8.5835 231.702C9.04806 231.941 9.52626 232.159 10.0168 232.355C10.2627 232.453 10.5105 232.545 10.7616 232.634C11.2645 232.806 11.7784 232.957 12.302 233.085C13.612 233.404 14.9856 233.574 16.4007 233.574C14.4198 233.574 12.52 233.906 10.7616 234.516C10.2594 234.69 9.76828 234.886 9.29073 235.104C8.57376 235.431 7.88534 235.804 7.23131 236.223C6.79529 236.502 6.37355 236.8 5.96867 237.117C5.76624 237.275 5.56769 237.438 5.37369 237.604C5.17904 237.771 4.98957 237.942 4.80401 238.118C3.6906 239.17 2.7368 240.374 1.97961 241.693C1.85373 241.912 1.7324 242.134 1.61756 242.36C1.50271 242.588 1.39306 242.816 1.28924 243.048C0.977801 243.744 0.718914 244.467 0.516476 245.209C0.448997 245.458 0.388006 245.708 0.333503 245.96C0.224498 246.465 0.140798 246.978 0.084998 247.5L0.0480141 247.894L0.0337396 248.091L0.0272513 248.189L0.0214117 248.378C0.00713732 248.906 0 249.44 0 249.974C0 250.242 0.0019466 250.51 0.00583955 250.775C0.016221 251.574 0.0428233 252.361 0.084998 253.134C0.253047 256.229 0.666358 259.099 1.28924 261.508C1.38138 261.885 1.48909 262.258 1.60393 262.629C1.64935 262.778 1.69607 262.924 1.74343 263.071C1.75706 263.11 1.76874 263.152 1.78236 263.193C2.15674 264.323 2.58498 265.321 3.06122 266.175C5.50735 270.911 9.60152 274.857 13.865 277.337C15.2373 278.302 17.1443 279.106 19.4931 279.711C22.7029 280.541 26.7361 280.999 31.0249 280.999C31.5608 280.999 32.0935 280.993 32.6217 280.978L32.7164 280.976L32.8112 280.973L33.0084 280.96L33.107 280.951L33.4996 280.915C33.8908 280.873 34.2756 280.81 34.6578 280.738C34.7849 280.714 34.9134 280.694 35.0399 280.667C35.2923 280.613 35.5421 280.551 35.79 280.483C36.4096 280.315 37.0124 280.103 37.5989 279.858C37.7164 279.809 37.8358 279.762 37.9513 279.711C38.1835 279.608 38.4126 279.498 38.639 279.382C39.0906 279.152 39.5305 278.9 39.9575 278.626C41.0235 277.94 42.0052 277.124 42.8824 276.196C43.0576 276.01 43.2289 275.82 43.3963 275.626C44.0633 274.85 44.6616 274.005 45.18 273.103C46.6048 270.624 47.4256 267.713 47.4256 264.6C47.4263 267.713 48.2464 270.624 49.6719 273.103C49.801 273.329 49.936 273.551 50.0748 273.769C50.9112 275.078 51.9214 276.252 53.0712 277.254C53.2626 277.422 53.4579 277.584 53.6571 277.742C54.0548 278.056 54.4681 278.352 54.8944 278.626C57.24 280.132 59.993 280.999 62.9381 280.999C65.8831 280.999 68.6368 280.132 70.9817 278.626C71.4087 278.352 71.8213 278.056 72.2197 277.742C72.4189 277.584 72.6142 277.422 72.8056 277.254C73.9547 276.252 74.965 275.078 75.8013 273.769C75.9408 273.551 76.0751 273.329 76.2049 273.103C77.6297 270.624 78.4505 267.713 78.4505 264.6C78.4512 267.713 79.2713 270.624 80.6968 273.103C80.8259 273.329 80.9609 273.551 81.0997 273.769C81.9361 275.078 82.9463 276.252 84.0961 277.254C84.2875 277.422 84.4828 277.584 84.682 277.742C85.0797 278.056 85.493 278.352 85.9193 278.626C88.2649 280.132 91.0179 280.999 93.963 280.999C96.908 280.999 99.6617 280.132 102.008 278.626C102.433 278.352 102.846 278.056 103.245 277.742C103.443 277.584 103.638 277.422 103.83 277.254C104.979 276.252 105.989 275.078 106.826 273.769C106.966 273.551 107.101 273.329 107.23 273.103C108.655 270.624 109.475 267.713 109.475 264.6C109.475 267.713 110.296 270.624 111.721 273.103C111.851 273.329 111.985 273.551 112.125 273.769C112.96 275.078 113.972 276.252 115.12 277.254C115.312 277.422 115.507 277.584 115.706 277.742C116.105 278.056 116.519 278.352 116.944 278.626C119.289 280.132 122.043 280.999 124.988 280.999C127.933 280.999 130.687 280.132 133.032 278.626C133.458 278.352 133.871 278.056 134.27 277.742C134.469 277.584 134.663 277.422 134.855 277.254C136.004 276.252 137.015 275.078 137.851 273.769C137.991 273.551 138.125 273.329 138.255 273.103C139.68 270.624 140.5 267.713 140.5 264.6C140.5 267.713 141.321 270.624 142.746 273.103C142.876 273.329 143.01 273.551 143.15 273.769C143.985 275.078 144.997 276.252 146.146 277.254C146.337 277.422 146.531 277.584 146.731 277.742C147.13 278.056 147.543 278.352 147.968 278.626C150.313 280.132 153.068 280.999 156.013 280.999C158.958 280.999 161.712 280.132 164.057 278.626C164.482 278.352 164.896 278.056 165.294 277.742C165.494 277.584 165.688 277.422 165.881 277.254C167.029 276.252 168.04 275.078 168.875 273.769C169.016 273.551 169.15 273.329 169.28 273.103C170.704 270.624 171.525 267.713 171.525 264.6C171.525 267.713 172.345 270.624 173.771 273.103C173.9 273.329 174.035 273.551 174.174 273.769C175.011 275.078 176.022 276.252 177.171 277.254C177.362 277.422 177.558 277.584 177.755 277.742C178.154 278.056 178.568 278.352 178.993 278.626C181.34 280.132 184.093 280.999 187.038 280.999C189.982 280.999 192.736 280.132 195.082 278.626C195.509 278.352 195.92 278.056 196.319 277.742C196.519 277.584 196.713 277.422 196.905 277.254C198.053 276.252 199.065 275.078 199.9 273.769C200.04 273.551 200.175 273.329 200.304 273.103C201.729 270.624 202.549 267.713 202.549 264.6C202.549 267.713 203.37 270.624 204.795 273.103C204.925 273.329 205.06 273.551 205.199 273.769C206.036 275.078 207.046 276.252 208.196 277.254C208.386 277.422 208.582 277.584 208.78 277.742C209.179 278.056 209.593 278.352 210.02 278.626C212.364 280.132 215.117 280.999 218.062 280.999C221.007 280.999 223.761 280.132 226.106 278.626C226.533 278.352 226.945 278.056 227.344 277.742C227.543 277.584 227.737 277.422 227.93 277.254C229.08 276.252 230.089 275.078 230.925 273.769C231.065 273.551 231.199 273.329 231.329 273.103C232.754 270.624 233.574 267.713 233.574 264.6C233.574 267.713 234.395 270.624 235.82 273.103C236.338 274.005 236.936 274.85 237.604 275.626C237.772 275.82 237.943 276.01 238.119 276.196C238.996 277.124 239.978 277.94 241.044 278.626C241.469 278.9 241.909 279.152 242.361 279.382C242.589 279.498 242.816 279.608 243.049 279.711C243.165 279.762 243.283 279.809 243.401 279.858C243.989 280.103 244.59 280.315 245.21 280.483C245.459 280.551 245.708 280.613 245.961 280.667C246.087 280.694 246.215 280.714 246.343 280.738C246.725 280.81 247.11 280.873 247.5 280.915L247.894 280.951L247.992 280.96L248.09 280.966L248.189 280.973L248.284 280.976L248.379 280.978C248.907 280.993 249.44 280.999 249.975 280.999C254.264 280.999 258.297 280.541 261.508 279.711C263.856 279.106 265.763 278.302 267.136 277.337C271.399 274.857 275.494 270.911 277.939 266.175C278.416 265.321 278.844 264.323 279.218 263.193C279.233 263.152 279.244 263.11 279.258 263.071C279.304 262.924 279.351 262.778 279.397 262.629C279.512 262.258 279.62 261.885 279.711 261.508C280.334 259.099 280.748 256.229 280.916 253.134C280.957 252.361 280.985 251.574 280.995 250.775C280.999 250.51 281 250.242 281 249.974C281 249.44 280.994 248.906 280.979 248.378L280.973 248.189L280.967 248.091L280.952 247.894L280.916 247.5C280.859 246.978 280.776 246.465 280.668 245.96C280.613 245.708 280.552 245.458 280.484 245.209C280.282 244.467 280.023 243.744 279.711 243.048C279.608 242.816 279.499 242.588 279.384 242.36C279.268 242.134 279.146 241.912 279.02 241.693C278.263 240.374 277.309 239.17 276.197 238.118C276.012 237.942 275.821 237.771 275.627 237.604C275.432 237.438 275.234 237.275 275.032 237.117C274.626 236.8 274.207 236.502 273.769 236.223C273.115 235.804 272.428 235.431 271.71 235.104C271.232 234.886 270.742 234.69 270.238 234.516C268.481 233.906 266.581 233.574 264.599 233.574C266.014 233.574 267.388 233.404 268.699 233.085C269.222 232.957 269.737 232.806 270.238 232.634C270.491 232.545 270.738 232.453 270.984 232.355C271.474 232.159 271.953 231.941 272.418 231.702C275.67 230.031 278.259 227.348 279.711 224.099C279.919 223.636 280.103 223.16 280.263 222.674C280.742 221.217 281 219.668 281 218.061C281 216.455 280.742 214.905 280.263 213.449C280.183 213.206 280.097 212.965 280.005 212.728C279.914 212.49 279.816 212.256 279.711 212.024C279.296 211.095 278.789 210.213 278.2 209.389C278.052 209.181 277.899 208.979 277.743 208.781C276.956 207.784 276.045 206.882 275.032 206.092C274.222 205.459 273.346 204.9 272.418 204.421C271.953 204.183 271.474 203.964 270.984 203.768C270.738 203.67 270.491 203.577 270.238 203.491C269.737 203.316 269.222 203.165 268.699 203.037C267.388 202.718 266.014 202.549 264.599 202.549C266.014 202.549 267.388 202.379 268.699 202.061C269.222 201.933 269.737 201.782 270.238 201.607C270.491 201.521 270.738 201.428 270.984 201.33C271.474 201.134 271.953 200.916 272.418 200.677C273.115 200.318 273.781 199.915 274.412 199.468C276.939 197.681 278.902 195.222 280.005 192.37C280.097 192.133 280.183 191.892 280.263 191.65C280.422 191.164 280.558 190.668 280.668 190.162C280.721 189.91 280.769 189.656 280.811 189.399C280.894 188.886 280.95 188.364 280.979 187.836C280.994 187.572 281 187.304 281 187.037C281 186.234 280.935 185.445 280.811 184.675C280.686 183.904 280.502 183.153 280.263 182.424C280.183 182.182 280.097 181.94 280.005 181.703C279.36 180.041 278.425 178.511 277.254 177.17C276.755 176.595 276.21 176.055 275.627 175.554C272.715 173.051 268.847 171.525 264.601 171.525C269.978 171.525 274.751 169.076 277.743 165.294C277.899 165.095 278.052 164.892 278.2 164.686C279.083 163.447 279.784 162.081 280.263 160.625C280.342 160.382 280.417 160.136 280.484 159.889C280.821 158.65 281 157.351 281 156.012C281 154.673 280.821 153.375 280.484 152.135C280.417 151.887 280.342 151.642 280.263 151.4C279.784 149.943 279.083 148.577 278.2 147.338C278.052 147.132 277.899 146.93 277.743 146.73C274.751 142.948 269.978 140.5 264.601 140.5C269.978 140.5 274.751 138.052 277.743 134.269C277.899 134.07 278.052 133.867 278.2 133.661C279.083 132.422 279.784 131.056 280.263 129.6C280.342 129.358 280.417 129.112 280.484 128.864C280.821 127.625 281 126.326 281 124.987C281 123.649 280.821 122.35 280.484 121.11C280.417 120.863 280.342 120.617 280.263 120.375C279.784 118.918 279.083 117.553 278.2 116.314C278.052 116.107 277.899 115.905 277.743 115.706C274.751 111.923 269.978 109.475 264.601 109.475C269.413 109.475 273.739 107.515 276.74 104.392C276.916 104.209 277.088 104.022 277.254 103.829C278.425 102.489 279.36 100.959 280.005 99.2964C280.097 99.0589 280.183 98.8176 280.263 98.5756C280.502 97.8463 280.686 97.0956 280.811 96.3247C280.935 95.5539 281 94.7649 281 93.9623C281 93.695 280.994 93.4277 280.979 93.1636C280.95 92.6354 280.894 92.1138 280.811 91.6005C280.769 91.3429 280.721 91.0892 280.668 90.8369C280.558 90.3314 280.422 89.835 280.263 89.3497C280.183 89.1057 280.097 88.8663 280.005 88.6289C278.902 85.7772 276.939 83.3187 274.412 81.5312C273.781 81.0848 273.115 80.6812 272.418 80.3224C271.953 80.083 271.474 79.8656 270.984 79.6697C270.738 79.5717 270.491 79.4783 270.238 79.392C269.737 79.2174 269.222 79.0663 268.699 78.9384C267.388 78.6199 266.014 78.4505 264.599 78.4505C266.014 78.4505 267.388 78.2812 268.699 77.9619C269.222 77.8341 269.737 77.6829 270.238 77.5084C270.491 77.4221 270.738 77.3293 270.984 77.2313C271.474 77.0354 271.953 76.8161 272.418 76.5786C273.346 76.0998 274.222 75.5405 275.032 74.9072C275.437 74.5919 275.826 74.2577 276.197 73.9073C276.382 73.7315 276.563 73.5518 276.74 73.3675C277.093 73.0003 277.427 72.6168 277.743 72.2184C277.899 72.0205 278.052 71.8181 278.2 71.6104C278.789 70.7845 279.296 69.904 279.711 68.9755C279.816 68.7432 279.914 68.509 280.005 68.2715C280.097 68.034 280.183 67.7933 280.263 67.5507C280.742 66.094 281 64.5439 281 62.9381C281 61.3315 280.742 59.7821 280.263 58.3255C280.103 57.8388 279.919 57.3632 279.711 56.9C278.259 53.6512 275.67 50.9683 272.418 49.2975C271.953 49.0581 271.474 48.8407 270.984 48.6448C270.738 48.5468 270.491 48.454 270.238 48.3658C269.737 48.1932 269.222 48.042 268.699 47.9142C267.388 47.595 266.014 47.4256 264.599 47.4256C267.996 47.4256 271.152 46.4491 273.769 44.7764C274.207 44.4974 274.626 44.1983 275.032 43.8823Z" fill="#CF782B"/>
<path d="M249.975 277.9C249.474 277.9 248.964 277.893 248.462 277.88L248.334 277.877L248.152 277.864L247.812 277.832C247.55 277.802 247.256 277.757 246.919 277.694L246.765 277.666C246.713 277.656 246.663 277.647 246.613 277.638C246.417 277.594 246.218 277.546 246.026 277.493C245.564 277.368 245.082 277.2 244.594 276.998L244.448 276.936C244.403 276.918 244.359 276.902 244.315 276.882C244.132 276.8 243.949 276.713 243.768 276.621C243.411 276.438 243.057 276.236 242.718 276.018C241.868 275.471 241.078 274.815 240.37 274.067C240.228 273.919 240.089 273.762 239.952 273.605C239.413 272.975 238.926 272.287 238.507 271.56C237.308 269.472 236.674 267.065 236.674 264.6H230.477C230.475 267.065 229.842 269.472 228.643 271.56C228.537 271.741 228.427 271.923 228.314 272.1C227.638 273.159 226.823 274.108 225.892 274.92C225.74 275.053 225.581 275.184 225.42 275.31C225.103 275.563 224.769 275.8 224.43 276.018C222.514 277.249 220.311 277.9 218.062 277.9C215.813 277.9 213.61 277.249 211.694 276.018C211.355 275.8 211.021 275.563 210.702 275.31C210.544 275.184 210.385 275.053 210.234 274.92C209.302 274.108 208.488 273.159 207.81 272.1C207.697 271.923 207.588 271.741 207.483 271.558C206.284 269.472 205.649 267.065 205.649 264.6H199.45C199.45 267.065 198.817 269.472 197.616 271.56C197.512 271.741 197.402 271.923 197.289 272.1C196.613 273.159 195.798 274.108 194.867 274.92C194.715 275.053 194.557 275.184 194.395 275.31C194.078 275.563 193.745 275.8 193.406 276.018C191.489 277.249 189.287 277.9 187.038 277.9C184.788 277.9 182.586 277.249 180.669 276.018C180.33 275.8 179.996 275.563 179.677 275.31C179.52 275.184 179.36 275.053 179.209 274.92C178.277 274.108 177.463 273.159 176.785 272.1C176.672 271.923 176.563 271.741 176.458 271.558C175.259 269.472 174.625 267.065 174.625 264.6H168.426C168.426 267.065 167.791 269.472 166.591 271.558C166.487 271.742 166.377 271.923 166.264 272.1C165.587 273.159 164.773 274.108 163.843 274.92C163.69 275.053 163.532 275.184 163.371 275.31C163.054 275.563 162.72 275.8 162.381 276.018C160.464 277.249 158.262 277.9 156.013 277.9C153.764 277.9 151.561 277.249 149.644 276.018C149.306 275.8 148.972 275.563 148.652 275.31C148.493 275.184 148.336 275.053 148.185 274.92C147.252 274.108 146.437 273.159 145.761 272.1C145.648 271.923 145.538 271.741 145.433 271.558C144.234 269.472 143.6 267.065 143.6 264.6H137.401C137.401 267.065 136.766 269.472 135.567 271.558C135.463 271.742 135.353 271.923 135.24 272.1C134.562 273.159 133.748 274.108 132.818 274.92C132.665 275.053 132.507 275.184 132.348 275.31C132.029 275.563 131.695 275.8 131.356 276.018C129.44 277.249 127.237 277.9 124.988 277.9C122.739 277.9 120.536 277.249 118.619 276.018C118.281 275.8 117.947 275.563 117.628 275.31C117.468 275.184 117.311 275.053 117.158 274.92C116.228 274.108 115.412 273.159 114.736 272.1C114.623 271.923 114.514 271.741 114.409 271.558C113.208 269.472 112.575 267.065 112.575 264.6H106.376C106.376 267.065 105.741 269.472 104.542 271.56C104.439 271.739 104.329 271.922 104.213 272.101C103.537 273.159 102.724 274.108 101.793 274.92C101.641 275.053 101.481 275.184 101.323 275.31C101.004 275.563 100.671 275.8 100.332 276.018C98.4146 277.249 96.2118 277.9 93.9629 277.9C91.7141 277.9 89.5113 277.249 87.5939 276.018C87.2552 275.8 86.9224 275.563 86.6045 275.31C86.4442 275.184 86.2859 275.053 86.1341 274.92C85.203 274.108 84.388 273.159 83.7113 272.1C83.5971 271.922 83.4868 271.739 83.3843 271.561C82.1839 269.472 81.55 267.065 81.5494 264.6H75.3516C75.3516 267.065 74.7177 269.472 73.518 271.56C73.4129 271.742 73.3026 271.923 73.1904 272.1C72.5136 273.159 71.6987 274.108 70.7682 274.92C70.6151 275.053 70.4568 275.184 70.2978 275.31C69.9793 275.563 69.6457 275.8 69.3071 276.018C67.3897 277.249 65.1876 277.9 62.938 277.9C60.6892 277.9 58.4864 277.249 56.5697 276.018C56.2303 275.8 55.8975 275.563 55.5796 275.31C55.4193 275.184 55.2616 275.053 55.1092 274.92C54.1781 274.108 53.3631 273.159 52.6864 272.1C52.5735 271.923 52.4638 271.742 52.3594 271.561C51.159 269.472 50.5251 267.065 50.5245 264.6H44.3267C44.3267 267.065 43.6928 269.472 42.4931 271.56C42.0746 272.287 41.588 272.976 41.0462 273.607C40.9119 273.762 40.7717 273.919 40.6297 274.068C39.9231 274.815 39.1328 275.471 38.2822 276.018C37.9422 276.236 37.5892 276.438 37.2317 276.621C37.0533 276.713 36.8696 276.8 36.686 276.882C36.6432 276.902 36.5971 276.92 36.5517 276.938L36.4057 276.998C35.9184 277.2 35.4376 277.367 34.977 277.493C34.7817 277.546 34.5831 277.594 34.3839 277.638C34.3379 277.647 34.2879 277.656 34.2379 277.666L34.0829 277.694C33.7429 277.757 33.4489 277.804 33.1855 277.832L32.8494 277.864L32.6658 277.877L32.5282 277.88C32.0358 277.893 31.5264 277.9 31.0255 277.9C27.0579 277.9 23.2375 277.478 20.2684 276.711C17.7795 276.07 16.3825 275.319 15.6487 274.802L15.539 274.726L15.4235 274.658C11.343 272.284 7.83991 268.673 5.81488 264.751L5.79152 264.706L5.76622 264.664C5.38729 263.984 5.03692 263.161 4.72418 262.218L4.6859 262.097C4.65021 261.987 4.60869 261.859 4.56911 261.728C4.45102 261.346 4.36667 261.046 4.29919 260.77L4.28946 260.732C3.71913 258.526 3.33566 255.841 3.17929 252.966C3.13972 252.237 3.11441 251.486 3.10468 250.734C3.10079 250.481 3.09949 250.229 3.09949 249.974C3.09949 249.468 3.10598 248.96 3.1196 248.461L3.12349 248.334L3.13647 248.151L3.16826 247.812C3.21239 247.41 3.27727 247.008 3.36227 246.616C3.40509 246.419 3.45375 246.218 3.50761 246.022C3.66463 245.442 3.87096 244.867 4.11817 244.314C4.19992 244.131 4.28751 243.947 4.379 243.768C4.47048 243.588 4.56716 243.41 4.66643 243.238C5.2705 242.185 6.03289 241.221 6.93348 240.369C7.08336 240.228 7.23843 240.088 7.39415 239.954C7.55053 239.819 7.71338 239.686 7.87624 239.559C8.20326 239.302 8.54779 239.06 8.90011 238.835C9.43346 238.494 9.9973 238.188 10.5754 237.924C10.966 237.746 11.3696 237.585 11.7758 237.444C13.2525 236.932 14.8084 236.673 16.4007 236.673V230.474C15.2594 230.474 14.1272 230.34 13.0352 230.074C12.6108 229.971 12.1871 229.846 11.7758 229.703C11.5727 229.634 11.3683 229.557 11.1678 229.478C10.772 229.32 10.3788 229.14 9.99924 228.944C7.36301 227.591 5.2744 225.422 4.11817 222.835C3.95401 222.466 3.80672 222.088 3.6815 221.707C3.29544 220.531 3.09949 219.306 3.09949 218.061C3.09949 216.817 3.29544 215.591 3.6815 214.417C3.74508 214.225 3.81386 214.032 3.88523 213.847C3.95725 213.662 4.03576 213.472 4.11881 213.288C4.44518 212.557 4.8507 211.851 5.32306 211.189C5.4405 211.025 5.56378 210.861 5.68901 210.703C6.32162 209.902 7.05741 209.174 7.87559 208.534C8.53481 208.021 9.24919 207.564 9.99989 207.178C10.3782 206.984 10.7714 206.805 11.1678 206.645C11.3683 206.565 11.5727 206.489 11.7764 206.419C12.1884 206.276 12.6115 206.152 13.0345 206.049C14.1272 205.783 15.2594 205.648 16.4007 205.648V199.449C15.2594 199.449 14.1272 199.315 13.0352 199.049C12.6108 198.947 12.1871 198.822 11.7758 198.679C11.5727 198.609 11.3683 198.533 11.1678 198.453C10.772 198.295 10.3788 198.116 9.99989 197.92C9.4367 197.631 8.89103 197.3 8.3778 196.938C6.31384 195.478 4.76052 193.511 3.88523 191.253C3.81386 191.066 3.74508 190.876 3.6815 190.681C3.55497 190.297 3.44791 189.902 3.36227 189.507C3.31944 189.309 3.28116 189.106 3.24872 188.906C3.18254 188.498 3.13842 188.082 3.11636 187.67C3.10533 187.462 3.09949 187.249 3.09949 187.037C3.09949 186.41 3.14945 185.783 3.24872 185.17C3.3454 184.57 3.49139 183.972 3.6815 183.393C3.74508 183.2 3.81386 183.007 3.88523 182.823C4.39327 181.51 5.13165 180.294 6.08026 179.207C6.48383 178.745 6.92504 178.306 7.39351 177.905C9.85455 175.788 13.0533 174.624 16.4 174.624L16.4007 168.425C12.1333 168.425 8.22921 166.583 5.68901 163.372C5.56378 163.212 5.4405 163.048 5.32371 162.884C4.60934 161.885 4.05717 160.799 3.6815 159.656C3.61791 159.464 3.55951 159.267 3.50761 159.077C3.23639 158.082 3.09949 157.05 3.09949 156.012C3.09949 154.974 3.23639 153.942 3.50696 152.949C3.55951 152.756 3.61791 152.56 3.6815 152.368C4.05717 151.225 4.60934 150.139 5.32306 149.14C5.4405 148.976 5.56378 148.811 5.68965 148.652C8.22921 145.441 12.1333 143.599 16.4007 143.599L16.4 137.4C12.1333 137.4 8.22921 135.558 5.68901 132.346C5.56378 132.188 5.4405 132.023 5.32371 131.859C4.60934 130.861 4.05717 129.774 3.6815 128.632C3.61791 128.439 3.55951 128.243 3.50761 128.052C3.23639 127.057 3.09949 126.025 3.09949 124.987C3.09949 123.949 3.23639 122.917 3.50696 121.925C3.55951 121.732 3.61791 121.535 3.6815 121.343C4.05717 120.2 4.60934 119.114 5.32306 118.115C5.4405 117.951 5.56378 117.787 5.68965 117.627C8.22921 114.416 12.1333 112.574 16.4007 112.574L16.4 106.375C12.6277 106.375 9.01755 104.871 6.49551 102.245C6.35407 102.098 6.21456 101.946 6.0809 101.793C5.13165 100.705 4.39327 99.4892 3.88523 98.1766C3.81386 97.9923 3.74508 97.7996 3.6815 97.6069C3.49139 97.0275 3.3454 96.4292 3.24872 95.831C3.14945 95.2166 3.09949 94.5891 3.09949 93.9624C3.09949 93.7502 3.10533 93.5374 3.11636 93.3297C3.13842 92.9164 3.18254 92.5012 3.24872 92.0957C3.28116 91.8932 3.31944 91.6901 3.36227 91.4929C3.44791 91.0971 3.55497 90.7019 3.6815 90.3165C3.74508 90.1238 3.81386 89.9331 3.88523 89.7488C4.76052 87.4882 6.31384 85.5216 8.3778 84.0611C8.89038 83.699 9.4367 83.3688 9.99989 83.0781C10.3788 82.8834 10.772 82.7043 11.1678 82.5467C11.3683 82.4669 11.5727 82.3903 11.7751 82.3202C12.1871 82.1775 12.6108 82.0529 13.0352 81.9504C14.1272 81.6844 15.2594 81.5501 16.4007 81.5501V75.3511C15.2594 75.3511 14.1272 75.2161 13.0352 74.9507C12.6108 74.8476 12.1871 74.723 11.7758 74.5802C11.5727 74.5102 11.3683 74.4342 11.1678 74.3544C10.772 74.1948 10.3788 74.0151 9.99924 73.8211C9.24919 73.4357 8.53481 72.9789 7.87494 72.4637C7.54858 72.21 7.23194 71.9375 6.93413 71.6553C6.78489 71.5138 6.63826 71.3691 6.49616 71.2218C6.21197 70.926 5.94075 70.6152 5.68901 70.2966C5.56443 70.1383 5.44115 69.9741 5.32306 69.81C4.8507 69.1488 4.44518 68.4429 4.11817 67.7103C4.03576 67.5261 3.95725 67.3379 3.88523 67.1523C3.81386 66.9674 3.74508 66.7747 3.6815 66.582C3.29544 65.4082 3.09949 64.1806 3.09949 62.9381C3.09949 61.6936 3.29544 60.468 3.6815 59.2936C3.80672 58.9114 3.95401 58.5331 4.11817 58.1639C5.2744 55.5777 7.36301 53.4086 9.99989 52.0532C10.3782 51.8592 10.7714 51.6814 11.1678 51.5218C11.3683 51.442 11.5727 51.3654 11.7764 51.294C12.1871 51.1532 12.6108 51.0287 13.0352 50.9255C14.1272 50.6595 15.2594 50.5232 16.4007 50.5232V44.3262C13.7067 44.3262 11.1133 43.5787 8.89946 42.1649C8.54779 41.9391 8.20326 41.6951 7.87494 41.4395C7.71274 41.3129 7.55053 41.1799 7.39286 41.0437C7.23843 40.9113 7.08336 40.7718 6.93283 40.6304C5.87976 39.6337 5.02005 38.4892 4.37835 37.2304C4.28751 37.0527 4.19992 36.8684 4.11817 36.6854C3.87096 36.1326 3.66463 35.5577 3.50696 34.9764C3.45375 34.7817 3.40509 34.5825 3.36227 34.3833C3.27727 33.9914 3.21239 33.5892 3.16826 33.1875L3.13647 32.8469L3.12349 32.6672L3.11895 32.5264C3.10598 32.0397 3.09949 31.531 3.09949 31.0249C3.09949 30.7706 3.10079 30.5182 3.10468 30.2658C3.11441 29.5131 3.13972 28.7624 3.17929 28.0331C3.33566 25.1581 3.71913 22.4739 4.28946 20.2678L4.29919 20.2296C4.36667 19.9538 4.45102 19.6534 4.56522 19.2842C4.60869 19.1402 4.65021 19.0123 4.69174 18.8858C4.69758 18.8676 4.70926 18.8294 4.72094 18.793L4.71445 18.8092L4.72418 18.7813C5.03692 17.8379 5.38729 17.0152 5.76622 16.3359L5.79087 16.293L5.81488 16.2483C7.83991 12.3267 11.343 8.71525 15.4235 6.33985L15.539 6.27367L15.6487 6.19711C16.3825 5.68063 17.7795 4.92992 20.2665 4.28887C23.2375 3.52129 27.0579 3.09955 31.0255 3.09955C31.5297 3.09955 32.0384 3.10604 32.5386 3.11966L32.6664 3.12291L32.8481 3.13588L33.1868 3.16768C33.4502 3.19752 33.7429 3.24229 34.0822 3.30523L34.2379 3.33378C34.2866 3.34351 34.3353 3.35195 34.3833 3.36168C34.5825 3.40515 34.7823 3.45317 34.9776 3.50637C35.3637 3.61083 35.751 3.73866 36.128 3.88529C36.3155 3.95667 36.503 4.03647 36.6867 4.11758C36.869 4.19933 37.0533 4.28692 37.233 4.37841C37.9467 4.74241 38.6338 5.18427 39.2723 5.68907C39.7505 6.06604 40.2073 6.48454 40.6316 6.93289C40.7717 7.08083 40.9119 7.2372 41.0469 7.39486C41.588 8.02294 42.0746 8.71201 42.4931 9.43936C43.6928 11.5273 44.3267 13.9345 44.3267 16.3995H50.5245C50.5251 13.9345 51.159 11.5273 52.3587 9.43936C52.4638 9.25703 52.5735 9.07601 52.6857 8.89952C53.3631 7.83997 54.1781 6.89137 55.1079 6.07902C55.2616 5.94666 55.4193 5.81494 55.5783 5.68907C55.8968 5.43667 56.2297 5.19919 56.5697 4.98118C58.487 3.74904 60.6892 3.09955 62.938 3.09955C65.1876 3.09955 67.3897 3.74904 69.3071 4.98118C69.6464 5.19919 69.9793 5.43797 70.2978 5.68907C70.4568 5.81494 70.6151 5.94666 70.7682 6.07902C71.6987 6.89137 72.5136 7.83997 73.1897 8.89952C73.3026 9.07601 73.4129 9.25703 73.5187 9.4413C74.7177 11.5273 75.3516 13.9345 75.3516 16.3995H81.5494C81.55 13.9345 82.1839 11.5273 83.3836 9.43936C83.4868 9.26028 83.5971 9.07731 83.7119 8.89823C84.388 7.83997 85.203 6.89137 86.1328 6.07902C86.2859 5.94666 86.4442 5.81494 86.6038 5.68907C86.9217 5.43667 87.2546 5.19919 87.5946 4.98118C89.5113 3.74904 91.7141 3.09955 93.9629 3.09955C96.2118 3.09955 98.4146 3.74904 100.332 4.98118C100.671 5.19919 101.004 5.43667 101.321 5.68907C101.481 5.81494 101.641 5.94666 101.793 6.07902C102.724 6.89137 103.537 7.83997 104.215 8.89952C104.328 9.07731 104.439 9.26028 104.542 9.43936C105.741 11.5273 106.376 13.9345 106.376 16.3995H112.575C112.575 13.9345 113.209 11.5273 114.409 9.43936C114.514 9.25703 114.623 9.07601 114.736 8.89952C115.412 7.83997 116.228 6.89137 117.158 6.07902C117.311 5.94666 117.468 5.81494 117.628 5.68907C117.947 5.43797 118.281 5.19919 118.619 4.98118C120.536 3.74904 122.739 3.09955 124.988 3.09955C127.237 3.09955 129.44 3.74904 131.356 4.98118C131.697 5.19919 132.029 5.43667 132.346 5.68907C132.507 5.81494 132.665 5.94666 132.818 6.07902C133.748 6.89137 134.562 7.83997 135.24 8.89952C135.353 9.07601 135.463 9.25703 135.567 9.43936C136.766 11.5273 137.401 13.9345 137.401 16.3995H143.6C143.6 13.9345 144.234 11.5273 145.433 9.43936C145.538 9.25703 145.648 9.07601 145.761 8.89952C146.438 7.83997 147.252 6.89137 148.183 6.07902C148.336 5.94666 148.493 5.81494 148.654 5.68907C148.972 5.43797 149.306 5.19919 149.644 4.98118C151.561 3.74904 153.764 3.09955 156.013 3.09955C158.262 3.09955 160.464 3.74904 162.381 4.98118C162.72 5.19919 163.054 5.43797 163.373 5.68907C163.532 5.81494 163.69 5.94666 163.843 6.07902C164.773 6.89137 165.587 7.83997 166.264 8.89952C166.377 9.07601 166.487 9.25703 166.591 9.43936C167.791 11.5273 168.426 13.9345 168.426 16.3995H174.625C174.625 13.9345 175.259 11.5273 176.458 9.43936C176.563 9.25703 176.672 9.07601 176.785 8.89952C177.463 7.83997 178.277 6.89137 179.207 6.07902C179.36 5.94666 179.52 5.81494 179.679 5.68907C179.996 5.43797 180.33 5.19919 180.669 4.98118C182.586 3.74904 184.788 3.09955 187.038 3.09955C189.287 3.09955 191.489 3.74904 193.406 4.98118C193.746 5.19919 194.078 5.43797 194.397 5.68907C194.557 5.81494 194.715 5.94666 194.867 6.07902C195.798 6.89137 196.613 7.83997 197.289 8.89952C197.402 9.07601 197.512 9.25703 197.618 9.4413C198.817 11.5273 199.45 13.9345 199.45 16.3995H205.649C205.649 13.9345 206.284 11.5273 207.483 9.43936C207.588 9.25703 207.697 9.07601 207.81 8.89952C208.488 7.83997 209.302 6.89137 210.232 6.07902C210.385 5.94666 210.544 5.81494 210.703 5.68907C211.021 5.43797 211.355 5.19919 211.694 4.98118C213.61 3.74904 215.813 3.09955 218.062 3.09955C220.311 3.09955 222.514 3.74904 224.43 4.98118C224.771 5.19919 225.103 5.43667 225.422 5.68907C225.581 5.81494 225.74 5.94666 225.892 6.07902C226.823 6.89137 227.638 7.83997 228.314 8.89952C228.427 9.07601 228.537 9.25703 228.643 9.4413C229.842 11.5273 230.475 13.9345 230.477 16.3995H236.674C236.674 13.9345 237.308 11.5273 238.507 9.43936C238.926 8.71201 239.413 8.02424 239.954 7.39292C240.089 7.2372 240.228 7.08083 240.37 6.93289C240.793 6.48454 241.25 6.06604 241.728 5.68907C242.368 5.18427 243.054 4.74241 243.768 4.37841C243.949 4.28692 244.134 4.19933 244.315 4.11758C244.498 4.03647 244.685 3.95796 244.871 3.88529C245.248 3.73866 245.637 3.61278 246.024 3.50637C246.218 3.45317 246.417 3.40515 246.617 3.36168C246.665 3.35 246.715 3.34351 246.763 3.33378L246.918 3.30523C247.263 3.24035 247.547 3.19752 247.814 3.16768L248.152 3.13588L248.334 3.12291L248.474 3.11772C248.962 3.10604 249.47 3.09955 249.975 3.09955C253.943 3.09955 257.762 3.52129 260.732 4.28887C263.22 4.92992 264.617 5.68063 265.353 6.19711L265.461 6.27367L265.578 6.33985C269.658 8.71525 273.16 12.3267 275.186 16.2483L275.21 16.293L275.234 16.3359C275.613 17.0152 275.964 17.8379 276.276 18.7794C276.276 18.7794 276.304 18.8709 276.316 18.9072C276.351 19.0156 276.393 19.1415 276.432 19.2712C276.548 19.6514 276.633 19.9506 276.701 20.2296L276.711 20.2678C277.281 22.4739 277.665 25.1594 277.821 28.0331C277.861 28.7657 277.886 29.5164 277.896 30.2658C277.899 30.5163 277.902 30.7706 277.902 31.0249C277.902 31.5265 277.894 32.0365 277.88 32.538L277.877 32.6639L277.864 32.8482L277.832 33.1875C277.788 33.5879 277.723 33.9914 277.638 34.3846C277.595 34.5825 277.547 34.7817 277.494 34.9764C277.336 35.5577 277.13 36.1326 276.882 36.6854C276.801 36.8684 276.713 37.0527 276.622 37.2317C275.981 38.4892 275.121 39.6337 274.067 40.6304C273.919 40.7699 273.765 40.9113 273.607 41.0456C273.451 41.1786 273.29 41.3116 273.125 41.4408C272.798 41.6951 272.452 41.9391 272.1 42.1649C269.888 43.5787 267.293 44.3262 264.599 44.3262V50.5232C265.742 50.5232 266.873 50.6595 267.966 50.9255C268.391 51.0287 268.815 51.1532 269.225 51.294C269.428 51.3654 269.632 51.442 269.832 51.5218C270.23 51.6814 270.622 51.8592 271.001 52.0532C273.637 53.4086 275.726 55.5777 276.882 58.1639C277.047 58.5331 277.193 58.9114 277.319 59.2936C277.705 60.468 277.902 61.6936 277.902 62.9381C277.902 64.1806 277.705 65.4082 277.319 66.582C277.256 66.7734 277.188 66.9642 277.115 67.1523C277.042 67.3411 276.964 67.5293 276.882 67.7103C276.555 68.4409 276.15 69.1469 275.678 69.81C275.56 69.9741 275.436 70.1383 275.311 70.2966C275.06 70.6152 274.789 70.926 274.506 71.2199C274.364 71.3678 274.215 71.5138 274.067 71.6553C273.768 71.9375 273.451 72.21 273.125 72.4637C272.466 72.9789 271.751 73.4357 271.001 73.8211C270.622 74.0151 270.229 74.1948 269.833 74.3544C269.632 74.4342 269.428 74.5102 269.225 74.5802C268.815 74.723 268.391 74.8476 267.966 74.9507C266.873 75.2161 265.742 75.3511 264.599 75.3511V81.5501C265.742 81.5501 266.873 81.6844 267.966 81.9504C268.391 82.0529 268.813 82.1775 269.224 82.3189C269.428 82.3903 269.632 82.4669 269.832 82.5467C270.229 82.7043 270.622 82.8834 271.001 83.0794C271.564 83.3688 272.11 83.699 272.623 84.0611C274.687 85.5216 276.239 87.4882 277.115 89.7469C277.188 89.9363 277.256 90.1271 277.319 90.3165C277.446 90.7019 277.553 91.0971 277.638 91.4909C277.681 91.6921 277.719 91.8945 277.753 92.0937C277.817 92.5012 277.862 92.9177 277.884 93.3297C277.896 93.5393 277.902 93.7534 277.902 93.9624C277.902 94.5891 277.851 95.2166 277.753 95.8297C277.655 96.4312 277.509 97.0288 277.319 97.6069C277.256 97.7983 277.188 97.9891 277.115 98.1766C276.609 99.4892 275.869 100.705 274.921 101.793C274.786 101.946 274.647 102.098 274.504 102.246C271.982 104.871 268.373 106.375 264.601 106.375V112.574C268.868 112.574 272.771 114.416 275.311 117.627C275.437 117.787 275.56 117.951 275.678 118.115C276.391 119.114 276.944 120.2 277.319 121.343C277.382 121.532 277.44 121.728 277.494 121.925C277.764 122.919 277.902 123.949 277.902 124.987C277.902 126.025 277.764 127.055 277.494 128.05C277.44 128.246 277.382 128.44 277.319 128.632C276.944 129.774 276.391 130.861 275.678 131.859C275.56 132.023 275.437 132.188 275.311 132.348C272.771 135.558 268.868 137.4 264.601 137.4V143.599C268.868 143.599 272.771 145.441 275.311 148.652C275.437 148.811 275.56 148.976 275.676 149.14C276.391 150.14 276.944 151.225 277.319 152.368C277.382 152.559 277.44 152.753 277.494 152.949C277.764 153.944 277.902 154.974 277.902 156.012C277.902 157.05 277.764 158.08 277.494 159.075C277.44 159.271 277.382 159.467 277.319 159.656C276.944 160.799 276.391 161.885 275.678 162.884C275.56 163.048 275.437 163.212 275.311 163.372C272.771 166.583 268.868 168.425 264.601 168.425V174.624C267.948 174.624 271.145 175.788 273.607 177.905C274.076 178.308 274.517 178.747 274.921 179.207C275.869 180.294 276.609 181.51 277.115 182.823C277.188 183.01 277.256 183.201 277.319 183.393C277.509 183.971 277.655 184.568 277.753 185.17C277.851 185.783 277.902 186.41 277.902 187.037C277.902 187.246 277.896 187.459 277.884 187.67C277.862 188.082 277.817 188.498 277.753 188.906C277.719 189.105 277.681 189.307 277.638 189.508C277.553 189.902 277.446 190.297 277.319 190.683C277.256 190.872 277.188 191.063 277.115 191.251C276.239 193.511 274.687 195.478 272.623 196.938C272.11 197.3 271.564 197.631 271.001 197.92C270.622 198.116 270.229 198.295 269.833 198.453C269.632 198.533 269.428 198.609 269.227 198.679C268.813 198.822 268.391 198.947 267.966 199.049C266.873 199.315 265.742 199.449 264.599 199.449V205.648C265.742 205.648 266.873 205.783 267.966 206.049C268.39 206.152 268.813 206.276 269.225 206.419C269.428 206.489 269.632 206.565 269.832 206.645C270.23 206.805 270.622 206.984 271.001 207.178C271.751 207.564 272.466 208.021 273.125 208.534C273.943 209.174 274.678 209.902 275.311 210.703C275.437 210.861 275.56 211.025 275.678 211.189C276.15 211.853 276.555 212.559 276.882 213.289C276.964 213.47 277.042 213.658 277.115 213.847C277.188 214.035 277.256 214.226 277.319 214.417C277.705 215.591 277.902 216.817 277.902 218.061C277.902 219.306 277.705 220.531 277.319 221.707C277.193 222.088 277.047 222.466 276.882 222.834C275.726 225.422 273.637 227.591 271.001 228.946C270.622 229.14 270.229 229.32 269.833 229.478C269.632 229.557 269.428 229.634 269.225 229.703C268.815 229.846 268.391 229.971 267.966 230.076C266.873 230.34 265.742 230.474 264.599 230.474V236.673C266.192 236.673 267.748 236.932 269.225 237.444C269.63 237.585 270.034 237.746 270.425 237.924C271.004 238.188 271.567 238.494 272.1 238.835C272.452 239.06 272.798 239.302 273.125 239.56C273.29 239.688 273.451 239.821 273.607 239.954C273.765 240.09 273.919 240.23 274.068 240.369C274.967 241.221 275.729 242.185 276.334 243.236C276.434 243.412 276.532 243.591 276.622 243.768C276.713 243.947 276.801 244.131 276.882 244.314C277.13 244.867 277.336 245.442 277.494 246.023C277.547 246.219 277.595 246.417 277.638 246.616C277.723 247.008 277.788 247.412 277.832 247.812L277.864 248.151L277.877 248.336L277.88 248.47C277.894 248.963 277.902 249.473 277.902 249.974C277.902 250.229 277.899 250.483 277.896 250.736C277.886 251.483 277.861 252.234 277.821 252.966C277.665 255.84 277.281 258.526 276.711 260.732L276.701 260.77C276.633 261.049 276.548 261.348 276.435 261.713C276.393 261.858 276.351 261.984 276.311 262.11C276.302 262.134 276.291 262.17 276.28 262.208L276.286 262.19L276.276 262.22C275.964 263.161 275.613 263.982 275.234 264.664L275.21 264.706L275.186 264.753C273.16 268.673 269.658 272.284 265.578 274.658L265.461 274.726L265.353 274.802C264.617 275.319 263.22 276.07 260.734 276.709C257.762 277.478 253.943 277.9 249.975 277.9Z" fill="#E49644"/>
<path d="M249.975 274.802C249.502 274.802 249.02 274.796 248.544 274.782L248.494 274.781L248.409 274.776L248.129 274.749C247.951 274.729 247.743 274.696 247.494 274.648L247.25 274.604C247.114 274.575 246.974 274.539 246.839 274.503C246.507 274.412 246.152 274.289 245.786 274.136L245.564 274.046C245.433 273.987 245.305 273.925 245.177 273.86C244.909 273.724 244.647 273.573 244.394 273.411C243.753 273 243.157 272.503 242.622 271.937C242.514 271.824 242.406 271.704 242.303 271.583C241.889 271.103 241.516 270.575 241.194 270.015C240.265 268.397 239.773 266.524 239.773 264.6L239.771 261.5H227.377V264.6C227.377 266.525 226.886 268.397 225.955 270.015C225.874 270.155 225.789 270.296 225.703 270.432C225.184 271.243 224.563 271.965 223.855 272.585C223.739 272.684 223.62 272.784 223.499 272.88C223.259 273.07 223.01 273.248 222.756 273.411C221.339 274.32 219.716 274.802 218.062 274.802C216.407 274.802 214.785 274.32 213.37 273.411C213.116 273.248 212.865 273.068 212.624 272.878C212.506 272.786 212.388 272.686 212.272 272.585C211.563 271.967 210.94 271.243 210.421 270.43C210.335 270.296 210.251 270.155 210.169 270.015C209.24 268.397 208.749 266.524 208.749 264.6L208.747 261.5H196.352V264.6C196.352 266.525 195.861 268.397 194.931 270.015C194.849 270.155 194.765 270.296 194.678 270.432C194.16 271.243 193.538 271.967 192.831 272.585C192.715 272.684 192.595 272.784 192.474 272.88C192.235 273.07 191.986 273.248 191.731 273.411C190.314 274.32 188.692 274.802 187.038 274.802C185.383 274.802 183.76 274.32 182.343 273.411C182.091 273.248 181.84 273.068 181.599 272.878C181.481 272.786 181.364 272.686 181.247 272.585C180.536 271.967 179.915 271.243 179.397 270.432C179.31 270.296 179.226 270.155 179.144 270.015C178.215 268.397 177.724 266.524 177.722 264.6V261.5H165.328V264.6C165.328 266.524 164.836 268.397 163.906 270.015C163.825 270.156 163.74 270.296 163.654 270.43C163.135 271.243 162.514 271.967 161.806 272.585C161.69 272.684 161.571 272.784 161.447 272.88C161.21 273.07 160.961 273.248 160.706 273.411C159.29 274.32 157.667 274.802 156.013 274.802C154.358 274.802 152.735 274.32 151.318 273.411C151.066 273.248 150.816 273.068 150.574 272.878C150.455 272.784 150.335 272.684 150.224 272.586C149.511 271.967 148.89 271.243 148.372 270.432C148.286 270.296 148.201 270.155 148.12 270.015C147.189 268.397 146.699 266.525 146.697 264.6V261.5H134.303V264.6C134.303 266.524 133.811 268.397 132.881 270.015C132.8 270.156 132.715 270.296 132.629 270.43C132.11 271.243 131.489 271.967 130.78 272.585C130.665 272.684 130.546 272.784 130.425 272.88C130.185 273.07 129.935 273.248 129.682 273.411C128.265 274.32 126.642 274.802 124.988 274.802C123.333 274.802 121.711 274.32 120.294 273.411C120.041 273.248 119.791 273.068 119.55 272.878C119.429 272.782 119.311 272.684 119.198 272.586C118.487 271.967 117.866 271.243 117.347 270.432C117.261 270.296 117.176 270.155 117.095 270.015C116.164 268.397 115.673 266.525 115.673 264.6V261.5H103.278V264.6C103.276 266.524 102.787 268.397 101.857 270.015C101.775 270.156 101.691 270.296 101.602 270.434C101.085 271.243 100.464 271.967 99.7558 272.585C99.6397 272.686 99.5203 272.784 99.4003 272.878C99.1608 273.07 98.9104 273.248 98.6567 273.411C97.2403 274.32 95.6169 274.802 93.963 274.802C92.3091 274.802 90.6857 274.32 89.2693 273.411C89.0156 273.248 88.7658 273.07 88.5264 272.88C88.4037 272.782 88.2856 272.684 88.1734 272.586C87.4623 271.967 86.8407 271.243 86.3229 270.432C86.2366 270.296 86.1516 270.156 86.0705 270.015C85.1407 268.397 84.6489 266.524 84.6482 264.6V261.5H72.2522V264.6C72.2522 266.525 71.761 268.397 70.8312 270.015C70.7501 270.156 70.6651 270.296 70.5795 270.43C70.061 271.241 69.4388 271.967 68.7303 272.585C68.6154 272.686 68.4954 272.784 68.3753 272.88C68.1359 273.07 67.8855 273.248 67.6324 273.411C66.2154 274.32 64.5926 274.802 62.9381 274.802C61.2842 274.802 59.6608 274.32 58.2444 273.411C57.9913 273.248 57.7409 273.07 57.5014 272.88C57.3801 272.784 57.2614 272.686 57.1491 272.586C56.438 271.967 55.8158 271.243 55.298 270.432C55.2117 270.297 55.1273 270.158 55.0462 270.016C54.1158 268.397 53.624 266.524 53.624 264.6L53.6233 261.5H41.2279V264.6C41.2279 266.525 40.7361 268.397 39.8063 270.015C39.4845 270.575 39.1114 271.103 38.6961 271.587C38.5936 271.704 38.4866 271.824 38.3776 271.938C37.8429 272.503 37.2473 273 36.6075 273.411C36.3545 273.573 36.091 273.724 35.825 273.86C35.6991 273.924 35.5694 273.987 35.4383 274.044L35.2281 274.131C34.8485 274.289 34.4955 274.412 34.1633 274.503C34.0264 274.539 33.8876 274.575 33.75 274.604L33.5275 274.645C33.2569 274.696 33.0473 274.729 32.8689 274.749L32.5938 274.776L32.5088 274.781L32.4361 274.782C31.9768 274.796 31.4992 274.802 31.0256 274.802C27.3116 274.802 23.7676 274.414 21.0445 273.711C18.8183 273.136 17.7763 272.51 17.4317 272.267L17.2131 272.115L16.9827 271.98C13.3966 269.894 10.3302 266.741 8.56793 263.329L8.52056 263.238L8.4693 263.147C8.1903 262.647 7.92168 262.012 7.67188 261.262L7.64009 261.16C7.6031 261.047 7.56806 260.939 7.53432 260.828C7.43246 260.497 7.36238 260.248 7.30918 260.032L7.29101 259.963C6.77064 257.946 6.41897 255.471 6.27363 252.798C6.23665 252.112 6.21264 251.403 6.20291 250.692C6.20031 250.455 6.19836 250.216 6.19836 249.974C6.19836 249.498 6.20485 249.016 6.21718 248.543L6.21913 248.495L6.22497 248.407L6.25157 248.126C6.28336 247.84 6.33008 247.553 6.39107 247.272C6.42286 247.125 6.4592 246.978 6.49813 246.834C6.61362 246.41 6.7648 245.987 6.94777 245.578C7.00747 245.444 7.073 245.307 7.14178 245.171C7.20861 245.04 7.28063 244.907 7.35265 244.782C7.80684 243.991 8.38236 243.264 9.06299 242.621C9.17654 242.513 9.29657 242.406 9.41661 242.303C9.53275 242.201 9.65862 242.098 9.7845 242C10.033 241.806 10.2977 241.62 10.5689 241.445C10.9797 241.183 11.4144 240.947 11.8601 240.745C12.1625 240.606 12.4752 240.482 12.7906 240.372C13.9397 239.974 15.1543 239.773 16.4007 239.773H19.4996V227.377H16.4007C15.506 227.377 14.6203 227.27 13.7677 227.064C13.4381 226.983 13.1092 226.886 12.7899 226.777C12.6323 226.722 12.4733 226.662 12.3182 226.601C12.0133 226.478 11.709 226.34 11.415 226.189C9.40363 225.156 7.81722 223.515 6.94712 221.57C6.82579 221.297 6.71744 221.018 6.62595 220.739C6.34241 219.877 6.19836 218.975 6.19836 218.061C6.19836 217.148 6.34241 216.248 6.6253 215.385C6.67202 215.244 6.72198 215.103 6.77518 214.967C6.82839 214.829 6.88678 214.689 6.94907 214.55C7.19044 214.01 7.49215 213.485 7.84447 212.992C7.93271 212.867 8.02485 212.745 8.11893 212.627C8.59907 212.019 9.15902 211.464 9.7832 210.977C10.2886 210.582 10.8382 210.231 11.4163 209.934C11.7083 209.785 12.012 209.646 12.3195 209.524C12.4752 209.461 12.6342 209.401 12.7912 209.347C13.1105 209.236 13.4381 209.14 13.7664 209.061C14.6197 208.853 15.506 208.748 16.4007 208.748H19.4996V196.352H16.4007C15.506 196.352 14.6203 196.245 13.7677 196.038C13.4375 195.958 13.1092 195.862 12.7906 195.752C12.6323 195.697 12.4733 195.637 12.3182 195.576C12.0126 195.453 11.709 195.314 11.4157 195.164C10.9829 194.942 10.5625 194.687 10.1673 194.407C8.60231 193.3 7.42921 191.822 6.77518 190.133C6.72263 189.996 6.67202 189.854 6.6253 189.714C6.53317 189.432 6.45401 189.141 6.39107 188.852C6.35993 188.706 6.33203 188.56 6.30802 188.412C6.26 188.113 6.22691 187.807 6.21069 187.504C6.20226 187.349 6.19836 187.193 6.19836 187.037C6.19836 186.576 6.23535 186.113 6.30802 185.663C6.37939 185.223 6.4858 184.784 6.62595 184.359C6.67202 184.218 6.72263 184.077 6.77518 183.941C7.15281 182.968 7.70432 182.06 8.41545 181.245C8.7217 180.894 9.05715 180.56 9.41336 180.255C11.3132 178.622 13.7943 177.724 16.4007 177.724H19.4989L19.4996 165.327H16.4007C13.0871 165.327 10.0687 163.914 8.12023 161.449C8.02485 161.329 7.93271 161.206 7.84642 161.085C7.31372 160.339 6.903 159.533 6.6253 158.69C6.57923 158.548 6.53641 158.406 6.49878 158.266C6.29893 157.534 6.19836 156.776 6.19836 156.012C6.19836 155.248 6.29893 154.492 6.49748 153.763C6.53576 153.62 6.57923 153.476 6.6253 153.336C6.903 152.491 7.31307 151.685 7.84447 150.943C7.93336 150.818 8.0255 150.695 8.12088 150.574C10.0687 148.111 13.0864 146.699 16.4007 146.697H19.4996L19.4989 134.301H16.4001C13.0871 134.301 10.0687 132.889 8.12023 130.424C8.02485 130.304 7.93271 130.181 7.84642 130.06C7.31372 129.314 6.903 128.508 6.6253 127.665C6.57923 127.524 6.53641 127.381 6.49878 127.241C6.29893 126.509 6.19836 125.752 6.19836 124.987C6.19836 124.224 6.29893 123.468 6.49748 122.736C6.53641 122.596 6.57923 122.451 6.6253 122.311C6.903 121.466 7.31372 120.66 7.84512 119.916C7.93141 119.795 8.02485 119.672 8.12217 119.547C10.0687 117.086 13.0864 115.672 16.4007 115.672H19.4996L19.4989 103.276H16.4001C13.4667 103.276 10.6715 102.118 8.73014 100.098C8.62178 99.9855 8.51602 99.8707 8.4174 99.7565C7.70497 98.9409 7.15281 98.0318 6.77583 97.0586C6.72263 96.921 6.67202 96.7796 6.6253 96.6388C6.4858 96.2151 6.37939 95.7765 6.30802 95.3366C6.23535 94.8863 6.19836 94.423 6.19836 93.9623C6.19836 93.8066 6.20226 93.6489 6.21069 93.4945C6.22691 93.1922 6.26 92.8866 6.30802 92.5887C6.33203 92.4414 6.35993 92.2916 6.39107 92.1469C6.45401 91.8581 6.53252 91.5675 6.6253 91.2865C6.67202 91.1438 6.72198 91.003 6.77518 90.8667C7.42921 89.1771 8.60231 87.6991 10.1673 86.5928C10.5618 86.3138 10.9823 86.0575 11.417 85.835C11.7083 85.6857 12.0126 85.5462 12.3195 85.4236C12.4733 85.362 12.6323 85.3023 12.7899 85.2491C13.1085 85.1375 13.4375 85.0414 13.7677 84.9597C14.6203 84.754 15.506 84.6476 16.4007 84.6476H19.4996V72.2515H16.4007C15.506 72.2515 14.6203 72.1464 13.7677 71.9388C13.4381 71.8596 13.1092 71.7629 12.7899 71.652C12.6323 71.5968 12.4739 71.5384 12.3182 71.4755C12.0133 71.3542 11.709 71.2147 11.4144 71.0635C10.8382 70.7683 10.288 70.4172 9.7819 70.0221C9.53275 69.8281 9.29073 69.6185 9.06364 69.4044C8.95009 69.2961 8.83849 69.187 8.73143 69.0735C8.51537 68.8497 8.30969 68.6135 8.12023 68.3747C8.0255 68.2547 7.93401 68.132 7.84512 68.0088C7.49215 67.5143 7.18979 66.9894 6.94648 66.4444C6.88678 66.3101 6.82839 66.1706 6.77518 66.0324C6.72263 65.8961 6.67202 65.7553 6.6253 65.6139C6.34241 64.7516 6.19836 63.8516 6.19836 62.9381C6.19836 62.0226 6.34241 61.1226 6.6253 60.2603C6.71744 59.9794 6.82644 59.7004 6.94777 59.4285C7.81722 57.4846 9.40428 55.8437 11.4163 54.8107C11.7077 54.6608 12.012 54.5213 12.3195 54.3987C12.4746 54.3371 12.6336 54.2774 12.7919 54.2222C13.1092 54.1132 13.4381 54.0165 13.7677 53.9367C14.6203 53.7291 15.506 53.6227 16.4007 53.6227H19.4996V41.2266H16.4007C14.2991 41.2266 12.2825 40.6485 10.5683 39.5526C10.2984 39.3794 10.033 39.1938 9.7819 38.9959C9.65733 38.8992 9.5321 38.7967 9.41077 38.6916C9.29592 38.5936 9.17654 38.4859 9.06039 38.3763C8.26686 37.6256 7.61997 36.7665 7.13983 35.8231C7.07365 35.694 7.00812 35.5577 6.94648 35.4195C6.7648 35.0127 6.61297 34.589 6.49683 34.1621C6.45855 34.0213 6.42286 33.8746 6.39172 33.7286C6.33008 33.4464 6.28336 33.159 6.25157 32.8735L6.22497 32.5912L6.21913 32.5095L6.21653 32.4316C6.20485 31.98 6.19836 31.5031 6.19836 31.0249C6.19836 30.7835 6.20031 30.5448 6.20291 30.3073C6.21264 29.5962 6.23665 28.8883 6.27363 28.2012C6.41897 25.528 6.77064 23.0533 7.28971 21.0432L7.30918 20.9673C7.36238 20.7492 7.43181 20.5053 7.52589 20.1977C7.56742 20.0621 7.6031 19.9538 7.63814 19.8441L7.67512 19.7299C7.92363 18.9825 8.1916 18.3492 8.4719 17.8476L8.51861 17.7646L8.56338 17.6783C10.3302 14.2583 13.3972 11.1056 16.9821 9.01953L17.2131 8.88457L17.433 8.73015C17.7763 8.48943 18.8183 7.8633 21.0393 7.29038C23.7663 6.58574 27.3116 6.19708 31.0256 6.19708C31.5005 6.19708 31.9819 6.20357 32.4556 6.2172L32.5069 6.21849L32.5925 6.22368L32.8696 6.25029C33.0486 6.2704 33.2569 6.30349 33.5067 6.35151L33.7468 6.39498C33.8882 6.42612 34.0277 6.45986 34.1646 6.49814C34.4475 6.57406 34.7317 6.66749 35.0088 6.7752C35.1476 6.8284 35.2858 6.8868 35.4221 6.94649C35.5564 7.00748 35.6933 7.07237 35.827 7.14049C36.359 7.41171 36.8716 7.74002 37.3498 8.11894C37.7118 8.40638 38.0583 8.72366 38.3801 9.06236C38.4866 9.17525 38.5943 9.29529 38.6974 9.41468C39.1114 9.89612 39.4851 10.4243 39.8063 10.9842C40.7361 12.6024 41.2279 14.4743 41.2279 16.3994V19.4989H53.6233L53.624 16.3994C53.624 14.4756 54.1152 12.6024 55.0456 10.9842C55.1273 10.8415 55.2123 10.702 55.2973 10.569C55.8158 9.75661 56.438 9.03251 57.1459 8.41482C57.2614 8.3136 57.3808 8.21562 57.4995 8.12089C57.7402 7.93143 57.99 7.7517 58.2444 7.58884C59.6614 6.67917 61.2842 6.19708 62.9381 6.19708C64.5926 6.19708 66.2154 6.67917 67.6318 7.58884C67.8855 7.7517 68.1359 7.92948 68.376 8.12089C68.4954 8.21562 68.6148 8.3136 68.7309 8.41482C69.4388 9.03251 70.0604 9.75661 70.5782 10.5677C70.6651 10.7033 70.7501 10.8447 70.8331 10.9875C71.761 12.6024 72.2522 14.4743 72.2522 16.3994V19.4989H84.6482V16.3994C84.6489 14.4756 85.1401 12.6024 86.0705 10.9842C86.151 10.8447 86.2366 10.7033 86.3255 10.5638C86.8407 9.75661 87.4623 9.03251 88.1701 8.41482C88.2856 8.31489 88.4044 8.21562 88.5244 8.12089C88.7645 7.93143 89.0143 7.7517 89.2693 7.58884C90.6863 6.67917 92.3091 6.19708 93.963 6.19708C95.6169 6.19708 97.2403 6.67917 98.6573 7.58884C98.9117 7.7517 99.1615 7.93143 99.399 8.11894C99.5196 8.21368 99.6397 8.3136 99.7558 8.41482C100.464 9.03251 101.085 9.75661 101.604 10.5677C101.691 10.7033 101.775 10.8447 101.855 10.9829C102.785 12.6024 103.276 14.4756 103.278 16.3994V19.4989H115.673V16.3994C115.673 14.4756 116.164 12.6024 117.095 10.9842C117.176 10.8447 117.261 10.7033 117.347 10.5677C117.866 9.75661 118.487 9.03251 119.196 8.41482C119.311 8.3136 119.429 8.21562 119.55 8.12089C119.789 7.93143 120.04 7.7517 120.294 7.58884C121.711 6.67917 123.333 6.19708 124.988 6.19708C126.642 6.19708 128.265 6.67917 129.682 7.58884C129.936 7.7517 130.185 7.93143 130.425 8.11894C130.544 8.21368 130.665 8.3136 130.78 8.41482C131.487 9.03251 132.11 9.75661 132.629 10.5677C132.717 10.7052 132.8 10.8447 132.88 10.9829C133.81 12.6024 134.303 14.4756 134.303 16.3994V19.4989H146.697V16.3994C146.699 14.4756 147.189 12.6024 148.12 10.9842C148.201 10.8447 148.286 10.7033 148.372 10.5677C148.89 9.75661 149.513 9.03251 150.221 8.41482C150.335 8.31489 150.455 8.21562 150.576 8.11894C150.816 7.93143 151.065 7.7517 151.318 7.58884C152.735 6.67917 154.358 6.19708 156.013 6.19708C157.667 6.19708 159.29 6.67917 160.706 7.58884C160.961 7.7517 161.21 7.93143 161.449 8.11894C161.571 8.21562 161.688 8.3136 161.803 8.41287C162.512 9.03251 163.135 9.75661 163.654 10.5677C163.742 10.7052 163.825 10.8447 163.904 10.9829C164.836 12.6024 165.328 14.4756 165.328 16.3994V19.4989H177.722V16.3994C177.724 14.4756 178.215 12.6024 179.146 10.9842C179.226 10.8447 179.31 10.7033 179.397 10.5677C179.915 9.75661 180.536 9.03251 181.246 8.41482C181.358 8.31489 181.48 8.21562 181.602 8.11894C181.84 7.93143 182.089 7.7517 182.343 7.58884C183.76 6.67917 185.383 6.19708 187.038 6.19708C188.692 6.19708 190.314 6.67917 191.731 7.58884C191.986 7.7517 192.236 7.93143 192.474 8.11894C192.595 8.21562 192.715 8.3136 192.829 8.41482C193.538 9.03251 194.16 9.75661 194.678 10.5677C194.765 10.7033 194.849 10.8447 194.932 10.9875C195.861 12.6024 196.352 14.4756 196.352 16.3994V19.4989H208.747L208.749 16.3994C208.749 14.4756 209.24 12.6024 210.169 10.9842C210.251 10.8434 210.335 10.7033 210.421 10.5677C210.94 9.75661 211.563 9.03251 212.27 8.41482C212.385 8.31489 212.504 8.21562 212.627 8.11894C212.865 7.93143 213.114 7.7517 213.37 7.58884C214.785 6.67917 216.407 6.19708 218.062 6.19708C219.716 6.19708 221.339 6.67917 222.756 7.58884C223.01 7.7517 223.261 7.93143 223.499 8.11894C223.62 8.21562 223.739 8.3136 223.854 8.41482C224.563 9.03251 225.184 9.75661 225.703 10.5677C225.789 10.7033 225.875 10.8447 225.957 10.9875C226.886 12.6024 227.377 14.4756 227.377 16.3994V19.4989H239.771L239.773 16.3994C239.773 14.4756 240.265 12.6024 241.195 10.9842C241.516 10.4243 241.889 9.89612 242.305 9.41273C242.406 9.29529 242.512 9.1772 242.621 9.0643C242.942 8.72366 243.288 8.40443 243.65 8.11894C244.128 7.74002 244.642 7.41171 245.175 7.1392C245.308 7.07237 245.444 7.00748 245.579 6.94649C245.715 6.8868 245.853 6.8284 245.991 6.7752C246.268 6.66749 246.554 6.57406 246.839 6.4962C246.974 6.45986 247.114 6.42483 247.253 6.39498L247.476 6.35475C247.746 6.30349 247.951 6.2704 248.13 6.25029L248.408 6.22368L248.492 6.21849L248.568 6.21525C249.022 6.20357 249.5 6.19708 249.975 6.19708C253.69 6.19708 257.234 6.58574 259.957 7.28843C262.182 7.8633 263.226 8.48943 263.57 8.7321L263.787 8.88457L264.019 9.02083C267.604 11.1056 270.67 14.2583 272.433 17.6699L272.481 17.7626L272.535 17.8613C272.811 18.3524 273.079 18.987 273.328 19.7345C273.339 19.7714 273.361 19.8428 273.373 19.8759C273.4 19.959 273.433 20.0634 273.466 20.1698C273.57 20.5085 273.638 20.7492 273.691 20.9653L273.712 21.0432C274.23 23.0552 274.582 25.5299 274.726 28.2012C274.765 28.8883 274.788 29.5975 274.798 30.3073C274.801 30.5428 274.803 30.7835 274.803 31.0249C274.803 31.4979 274.796 31.98 274.783 32.455L274.782 32.5043L274.774 32.5925L274.75 32.8735C274.717 33.1609 274.67 33.4483 274.608 33.7286C274.578 33.8733 274.542 34.018 274.504 34.1588C274.388 34.5909 274.237 35.0127 274.054 35.4195C273.993 35.5577 273.928 35.694 273.86 35.825C273.381 36.7665 272.733 37.6256 271.938 38.3782C271.825 38.4859 271.705 38.5923 271.584 38.6968C271.469 38.7967 271.345 38.8979 271.217 38.9979C270.968 39.1938 270.702 39.3794 270.431 39.5539C268.719 40.6485 266.702 41.2266 264.599 41.2266H261.501V53.6227H264.599C265.495 53.6227 266.382 53.7291 267.234 53.9367C267.564 54.0165 267.893 54.1132 268.21 54.2222C268.368 54.2774 268.527 54.3371 268.681 54.3987C268.987 54.5213 269.292 54.6595 269.584 54.8088C271.597 55.8437 273.183 57.4846 274.054 59.4298C274.175 59.7004 274.283 59.9813 274.376 60.2603C274.658 61.1226 274.803 62.0226 274.803 62.9381C274.803 63.8516 274.658 64.7516 274.376 65.6139C274.329 65.7534 274.278 65.8961 274.225 66.0343C274.172 66.1706 274.113 66.3101 274.054 66.4444C273.811 66.9875 273.509 67.5143 273.155 68.0075C273.067 68.1333 272.974 68.2547 272.881 68.3728C272.69 68.6154 272.486 68.8497 272.271 69.0735C272.163 69.1851 272.051 69.298 271.936 69.4057C271.709 69.6205 271.467 69.8281 271.218 70.0221C270.712 70.4172 270.162 70.7683 269.586 71.0654C269.292 71.2147 268.987 71.3542 268.682 71.4755C268.526 71.5384 268.368 71.5968 268.212 71.652C267.892 71.7629 267.563 71.8596 267.232 71.9388C266.38 72.1464 265.495 72.2515 264.599 72.2515H261.501V84.6476H264.599C265.495 84.6476 266.382 84.754 267.234 84.9597C267.563 85.0414 267.892 85.1375 268.209 85.2471C268.368 85.3023 268.526 85.362 268.682 85.4236C268.987 85.5462 269.292 85.6838 269.584 85.835C270.017 86.0575 270.438 86.3119 270.835 86.5928C272.398 87.6991 273.57 89.1771 274.225 90.8667C274.278 91.0043 274.329 91.147 274.376 91.2865C274.468 91.5675 274.547 91.8562 274.608 92.1456C274.641 92.2968 274.67 92.4447 274.691 92.5855C274.741 92.8879 274.773 93.1922 274.789 93.4958C274.798 93.6522 274.803 93.8079 274.803 93.9623C274.803 94.423 274.766 94.8863 274.693 95.3366C274.622 95.7765 274.516 96.2151 274.376 96.6388C274.329 96.7783 274.278 96.921 274.225 97.0586C273.848 98.0318 273.296 98.9389 272.585 99.7545C272.484 99.8707 272.378 99.9855 272.27 100.098C270.33 102.118 267.534 103.276 264.601 103.276H261.501V115.672H264.599C267.914 115.672 270.933 117.086 272.879 119.551C272.976 119.671 273.069 119.793 273.157 119.918C273.686 120.66 274.097 121.466 274.376 122.311C274.421 122.449 274.464 122.594 274.504 122.738C274.702 123.468 274.803 124.225 274.803 124.987C274.803 125.75 274.702 126.507 274.504 127.238C274.464 127.381 274.421 127.524 274.376 127.663C274.097 128.508 273.686 129.314 273.157 130.057C273.067 130.181 272.974 130.306 272.879 130.426C270.933 132.889 267.914 134.301 264.601 134.301H261.501V146.697H264.599C267.914 146.699 270.933 148.111 272.879 150.576C272.974 150.695 273.067 150.816 273.155 150.94C273.686 151.685 274.097 152.491 274.376 153.336C274.421 153.474 274.464 153.619 274.504 153.763C274.702 154.492 274.803 155.25 274.803 156.012C274.803 156.776 274.702 157.532 274.504 158.263C274.464 158.406 274.421 158.548 274.376 158.688C274.097 159.533 273.686 160.339 273.157 161.082C273.067 161.208 272.974 161.331 272.879 161.45C270.933 163.914 267.914 165.327 264.601 165.327H261.501V177.724H264.601C267.207 177.724 269.687 178.622 271.587 180.255C271.944 180.562 272.28 180.894 272.585 181.245C273.296 182.06 273.848 182.968 274.225 183.941C274.279 184.082 274.329 184.221 274.374 184.357C274.516 184.784 274.622 185.223 274.693 185.665C274.766 186.113 274.803 186.576 274.803 187.037C274.803 187.191 274.798 187.347 274.789 187.504C274.773 187.807 274.741 188.112 274.693 188.412C274.67 188.555 274.641 188.703 274.608 188.852C274.547 189.141 274.469 189.432 274.374 189.714C274.329 189.852 274.278 189.995 274.225 190.133C273.572 191.822 272.398 193.3 270.833 194.408C270.44 194.686 270.019 194.942 269.584 195.164C269.292 195.316 268.987 195.453 268.682 195.574C268.526 195.637 268.368 195.697 268.213 195.75C267.892 195.862 267.563 195.958 267.232 196.04C266.38 196.245 265.495 196.352 264.599 196.352H261.501V208.748H264.599C265.495 208.748 266.382 208.853 267.234 209.061C267.563 209.14 267.892 209.236 268.21 209.347C268.368 209.403 268.526 209.461 268.682 209.524C268.987 209.645 269.292 209.785 269.584 209.934C270.162 210.231 270.712 210.582 271.218 210.977C271.841 211.464 272.401 212.019 272.879 212.625C272.974 212.745 273.067 212.867 273.157 212.992C273.509 213.485 273.811 214.01 274.054 214.553C274.113 214.688 274.172 214.826 274.226 214.967C274.278 215.105 274.329 215.246 274.376 215.387C274.658 216.248 274.803 217.148 274.803 218.061C274.803 218.975 274.658 219.877 274.376 220.739C274.283 221.018 274.175 221.297 274.054 221.57C273.183 223.515 271.597 225.156 269.586 226.189C269.292 226.34 268.987 226.478 268.682 226.601C268.526 226.662 268.368 226.722 268.212 226.775C267.892 226.886 267.563 226.983 267.232 227.064C266.38 227.27 265.495 227.377 264.599 227.377H261.501V239.773H264.599C265.846 239.773 267.061 239.974 268.21 240.372C268.526 240.482 268.838 240.606 269.139 240.745C269.586 240.947 270.021 241.183 270.432 241.447C270.704 241.62 270.968 241.807 271.218 242.001C271.343 242.1 271.467 242.203 271.587 242.304C271.705 242.407 271.825 242.513 271.939 242.623C272.618 243.264 273.193 243.99 273.647 244.779C273.721 244.908 273.793 245.041 273.86 245.174C273.928 245.305 273.993 245.442 274.054 245.578C274.237 245.987 274.388 246.408 274.504 246.837C274.542 246.981 274.578 247.128 274.61 247.271C274.67 247.551 274.717 247.838 274.75 248.126L274.776 248.408L274.782 248.493L274.785 248.563C274.796 249.021 274.803 249.501 274.803 249.974C274.803 250.217 274.801 250.457 274.798 250.697C274.788 251.403 274.765 252.111 274.726 252.797C274.582 255.469 274.23 257.944 273.712 259.956L273.691 260.034C273.637 260.251 273.569 260.494 273.475 260.798C273.434 260.933 273.401 261.039 273.366 261.144C273.354 261.177 273.341 261.22 273.328 261.265C273.075 262.021 272.808 262.65 272.529 263.152L272.479 263.24L272.431 263.331C270.67 266.741 267.604 269.894 264.019 271.98L263.787 272.115L263.568 272.269C263.226 272.51 262.182 273.136 259.961 273.709C257.234 274.414 253.69 274.802 249.975 274.802Z" fill="#EDA54F"/>
<path d="M62.9926 48.5715C62.9926 53.236 59.2118 57.0161 54.5479 57.0161C49.8841 57.0161 46.1033 53.236 46.1033 48.5715C46.1033 43.9076 49.8841 40.1269 54.5479 40.1269C59.2118 40.1269 62.9926 43.9076 62.9926 48.5715Z" fill="#F7BA61"/>
<path d="M107.034 48.5715C107.034 53.236 103.254 57.0161 98.5898 57.0161C93.9259 57.0161 90.1451 53.236 90.1451 48.5715C90.1451 43.9076 93.9259 40.1269 98.5898 40.1269C103.254 40.1269 107.034 43.9076 107.034 48.5715Z" fill="#F7BA61"/>
<path d="M151.076 48.5715C151.076 53.236 147.296 57.0161 142.631 57.0161C137.967 57.0161 134.186 53.236 134.186 48.5715C134.186 43.9076 137.967 40.1269 142.631 40.1269C147.296 40.1269 151.076 43.9076 151.076 48.5715Z" fill="#F7BA61"/>
<path d="M195.118 48.5715C195.118 53.236 191.338 57.0161 186.674 57.0161C182.009 57.0161 178.229 53.236 178.229 48.5715C178.229 43.9076 182.009 40.1269 186.674 40.1269C191.338 40.1269 195.118 43.9076 195.118 48.5715Z" fill="#F7BA61"/>
<path d="M239.16 48.5715C239.16 53.236 235.378 57.0161 230.716 57.0161C226.052 57.0161 222.271 53.236 222.271 48.5715C222.271 43.9076 226.052 40.1269 230.716 40.1269C235.378 40.1269 239.16 43.9076 239.16 48.5715Z" fill="#F7BA61"/>
<path d="M62.9926 95.3827C62.9926 100.047 59.2118 103.827 54.5479 103.827C49.8841 103.827 46.1033 100.047 46.1033 95.3827C46.1033 90.7188 49.8841 86.938 54.5479 86.938C59.2118 86.938 62.9926 90.7188 62.9926 95.3827Z" fill="#F7BA61"/>
<path d="M107.034 95.3827C107.034 100.047 103.254 103.827 98.5898 103.827C93.9259 103.827 90.1451 100.047 90.1451 95.3827C90.1451 90.7188 93.9259 86.938 98.5898 86.938C103.254 86.938 107.034 90.7188 107.034 95.3827Z" fill="#F7BA61"/>
<path d="M151.076 95.3827C151.076 100.047 147.296 103.827 142.631 103.827C137.967 103.827 134.186 100.047 134.186 95.3827C134.186 90.7188 137.967 86.938 142.631 86.938C147.296 86.938 151.076 90.7188 151.076 95.3827Z" fill="#F7BA61"/>
<path d="M195.118 95.3827C195.118 100.047 191.338 103.827 186.674 103.827C182.009 103.827 178.229 100.047 178.229 95.3827C178.229 90.7188 182.009 86.938 186.674 86.938C191.338 86.938 195.118 90.7188 195.118 95.3827Z" fill="#F7BA61"/>
<path d="M239.16 95.3827C239.16 100.047 235.378 103.827 230.716 103.827C226.052 103.827 222.271 100.047 222.271 95.3827C222.271 90.7188 226.052 86.938 230.716 86.938C235.378 86.938 239.16 90.7188 239.16 95.3827Z" fill="#F7BA61"/>
<path d="M62.9926 142.194C62.9926 146.858 59.2118 150.638 54.5479 150.638C49.8841 150.638 46.1033 146.858 46.1033 142.194C46.1033 137.53 49.8841 133.749 54.5479 133.749C59.2118 133.749 62.9926 137.53 62.9926 142.194Z" fill="#F7BA61"/>
<path d="M107.034 142.194C107.034 146.858 103.254 150.638 98.5898 150.638C93.9259 150.638 90.1451 146.858 90.1451 142.194C90.1451 137.53 93.9259 133.749 98.5898 133.749C103.254 133.749 107.034 137.53 107.034 142.194Z" fill="#F7BA61"/>
<path d="M151.076 142.194C151.076 146.858 147.296 150.638 142.631 150.638C137.967 150.638 134.186 146.858 134.186 142.194C134.186 137.53 137.967 133.749 142.631 133.749C147.296 133.749 151.076 137.53 151.076 142.194Z" fill="#F7BA61"/>
<path d="M195.118 142.194C195.118 146.858 191.338 150.638 186.674 150.638C182.009 150.638 178.229 146.858 178.229 142.194C178.229 137.53 182.009 133.749 186.674 133.749C191.338 133.749 195.118 137.53 195.118 142.194Z" fill="#F7BA61"/>
<path d="M239.16 142.194C239.16 146.858 235.378 150.638 230.716 150.638C226.052 150.638 222.271 146.858 222.271 142.194C222.271 137.53 226.052 133.749 230.716 133.749C235.378 133.749 239.16 137.53 239.16 142.194Z" fill="#F7BA61"/>
<path d="M62.9926 189.005C62.9926 193.668 59.2118 197.448 54.5479 197.448C49.8841 197.448 46.1033 193.668 46.1033 189.005C46.1033 184.341 49.8841 180.56 54.5479 180.56C59.2118 180.56 62.9926 184.341 62.9926 189.005Z" fill="#F7BA61"/>
<path d="M107.034 189.005C107.034 193.668 103.254 197.448 98.5898 197.448C93.9259 197.448 90.1451 193.668 90.1451 189.005C90.1451 184.341 93.9259 180.56 98.5898 180.56C103.254 180.56 107.034 184.341 107.034 189.005Z" fill="#F7BA61"/>
<path d="M151.076 189.005C151.076 193.668 147.296 197.448 142.631 197.448C137.967 197.448 134.186 193.668 134.186 189.005C134.186 184.341 137.967 180.56 142.631 180.56C147.296 180.56 151.076 184.341 151.076 189.005Z" fill="#F7BA61"/>
<path d="M195.118 189.005C195.118 193.668 191.338 197.448 186.674 197.448C182.009 197.448 178.229 193.668 178.229 189.005C178.229 184.341 182.009 180.56 186.674 180.56C191.338 180.56 195.118 184.341 195.118 189.005Z" fill="#F7BA61"/>
<path d="M239.16 189.005C239.16 193.668 235.378 197.448 230.716 197.448C226.052 197.448 222.271 193.668 222.271 189.005C222.271 184.341 226.052 180.56 230.716 180.56C235.378 180.56 239.16 184.341 239.16 189.005Z" fill="#F7BA61"/>
<path d="M62.9926 235.814C62.9926 240.479 59.2118 244.26 54.5479 244.26C49.8841 244.26 46.1033 240.479 46.1033 235.814C46.1033 231.152 49.8841 227.37 54.5479 227.37C59.2118 227.37 62.9926 231.152 62.9926 235.814Z" fill="#F7BA61"/>
<path d="M107.034 235.814C107.034 240.479 103.254 244.26 98.5898 244.26C93.9259 244.26 90.1451 240.479 90.1451 235.814C90.1451 231.152 93.9259 227.37 98.5898 227.37C103.254 227.37 107.034 231.152 107.034 235.814Z" fill="#F7BA61"/>
<path d="M151.076 235.814C151.076 240.479 147.296 244.26 142.631 244.26C137.967 244.26 134.186 240.479 134.186 235.814C134.186 231.152 137.967 227.37 142.631 227.37C147.296 227.37 151.076 231.152 151.076 235.814Z" fill="#F7BA61"/>
<path d="M195.118 235.814C195.118 240.479 191.338 244.26 186.674 244.26C182.009 244.26 178.229 240.479 178.229 235.814C178.229 231.152 182.009 227.37 186.674 227.37C191.338 227.37 195.118 231.152 195.118 235.814Z" fill="#F7BA61"/>
<path d="M239.16 235.814C239.16 240.479 235.378 244.26 230.716 244.26C226.052 244.26 222.271 240.479 222.271 235.814C222.271 231.152 226.052 227.37 230.716 227.37C235.378 227.37 239.16 231.152 239.16 235.814Z" fill="#F7BA61"/>
<path d="M58.0464 46.8774C58.0464 49.9866 55.5257 52.5087 52.4164 52.5087C49.3072 52.5087 46.7871 49.9866 46.7871 46.8774C46.7871 43.7694 49.3072 41.248 52.4164 41.248C55.5257 41.248 58.0464 43.7694 58.0464 46.8774Z" fill="#773B17"/>
<path d="M102.089 46.8774C102.089 49.9866 99.5677 52.5087 96.4584 52.5087C93.3492 52.5087 90.8291 49.9866 90.8291 46.8774C90.8291 43.7694 93.3492 41.248 96.4584 41.248C99.5677 41.248 102.089 43.7694 102.089 46.8774Z" fill="#773B17"/>
<path d="M146.13 46.8774C146.13 49.9866 143.61 52.5087 140.5 52.5087C137.391 52.5087 134.871 49.9866 134.871 46.8774C134.871 43.7694 137.391 41.248 140.5 41.248C143.61 41.248 146.13 43.7694 146.13 46.8774Z" fill="#773B17"/>
<path d="M190.172 46.8774C190.172 49.9866 187.652 52.5087 184.542 52.5087C181.433 52.5087 178.912 49.9866 178.912 46.8774C178.912 43.7694 181.433 41.248 184.542 41.248C187.652 41.248 190.172 43.7694 190.172 46.8774Z" fill="#773B17"/>
<path d="M234.214 46.8774C234.214 49.9866 231.693 52.5087 228.585 52.5087C225.475 52.5087 222.954 49.9866 222.954 46.8774C222.954 43.7694 225.475 41.248 228.585 41.248C231.693 41.248 234.214 43.7694 234.214 46.8774Z" fill="#773B17"/>
<path d="M58.0464 93.6885C58.0464 96.7978 55.5257 99.3179 52.4164 99.3179C49.3072 99.3179 46.7871 96.7978 46.7871 93.6885C46.7871 90.5793 49.3072 88.0592 52.4164 88.0592C55.5257 88.0592 58.0464 90.5793 58.0464 93.6885Z" fill="#773B17"/>
<path d="M102.089 93.6885C102.089 96.7978 99.5677 99.3179 96.4584 99.3179C93.3492 99.3179 90.8291 96.7978 90.8291 93.6885C90.8291 90.5793 93.3492 88.0592 96.4584 88.0592C99.5677 88.0592 102.089 90.5793 102.089 93.6885Z" fill="#773B17"/>
<path d="M146.13 93.6885C146.13 96.7978 143.61 99.3179 140.5 99.3179C137.391 99.3179 134.871 96.7978 134.871 93.6885C134.871 90.5793 137.391 88.0592 140.5 88.0592C143.61 88.0592 146.13 90.5793 146.13 93.6885Z" fill="#773B17"/>
<path d="M190.172 93.6885C190.172 96.7978 187.652 99.3179 184.542 99.3179C181.433 99.3179 178.912 96.7978 178.912 93.6885C178.912 90.5793 181.433 88.0592 184.542 88.0592C187.652 88.0592 190.172 90.5793 190.172 93.6885Z" fill="#773B17"/>
<path d="M234.214 93.6885C234.214 96.7978 231.693 99.3179 228.585 99.3179C225.475 99.3179 222.954 96.7978 222.954 93.6885C222.954 90.5793 225.475 88.0592 228.585 88.0592C231.693 88.0592 234.214 90.5793 234.214 93.6885Z" fill="#773B17"/>
<path d="M58.0464 140.5C58.0464 143.609 55.5257 146.129 52.4164 146.129C49.3072 146.129 46.7871 143.609 46.7871 140.5C46.7871 137.39 49.3072 134.87 52.4164 134.87C55.5257 134.87 58.0464 137.39 58.0464 140.5Z" fill="#773B17"/>
<path d="M102.089 140.5C102.089 143.609 99.5677 146.129 96.4584 146.129C93.3492 146.129 90.8291 143.609 90.8291 140.5C90.8291 137.39 93.3492 134.87 96.4584 134.87C99.5677 134.87 102.089 137.39 102.089 140.5Z" fill="#773B17"/>
<path d="M146.13 140.5C146.13 143.609 143.61 146.129 140.5 146.129C137.391 146.129 134.871 143.609 134.871 140.5C134.871 137.39 137.391 134.87 140.5 134.87C143.61 134.87 146.13 137.39 146.13 140.5Z" fill="#773B17"/>
<path d="M190.172 140.5C190.172 143.609 187.652 146.129 184.542 146.129C181.433 146.129 178.912 143.609 178.912 140.5C178.912 137.39 181.433 134.87 184.542 134.87C187.652 134.87 190.172 137.39 190.172 140.5Z" fill="#773B17"/>
<path d="M234.214 140.5C234.214 143.609 231.693 146.129 228.585 146.129C225.475 146.129 222.954 143.609 222.954 140.5C222.954 137.39 225.475 134.87 228.585 134.87C231.693 134.87 234.214 137.39 234.214 140.5Z" fill="#773B17"/>
<path d="M58.0464 187.311C58.0464 190.42 55.5257 192.94 52.4164 192.94C49.3072 192.94 46.7871 190.42 46.7871 187.311C46.7871 184.202 49.3072 181.68 52.4164 181.68C55.5257 181.68 58.0464 184.202 58.0464 187.311Z" fill="#773B17"/>
<path d="M102.089 187.311C102.089 190.42 99.5677 192.94 96.4584 192.94C93.3492 192.94 90.8291 190.42 90.8291 187.311C90.8291 184.202 93.3492 181.68 96.4584 181.68C99.5677 181.68 102.089 184.202 102.089 187.311Z" fill="#773B17"/>
<path d="M146.13 187.311C146.13 190.42 143.61 192.94 140.5 192.94C137.391 192.94 134.871 190.42 134.871 187.311C134.871 184.202 137.391 181.68 140.5 181.68C143.61 181.68 146.13 184.202 146.13 187.311Z" fill="#773B17"/>
<path d="M190.172 187.311C190.172 190.42 187.652 192.94 184.542 192.94C181.433 192.94 178.912 190.42 178.912 187.311C178.912 184.202 181.433 181.68 184.542 181.68C187.652 181.68 190.172 184.202 190.172 187.311Z" fill="#773B17"/>
<path d="M234.214 187.311C234.214 190.42 231.693 192.94 228.585 192.94C225.475 192.94 222.954 190.42 222.954 187.311C222.954 184.202 225.475 181.68 228.585 181.68C231.693 181.68 234.214 184.202 234.214 187.311Z" fill="#773B17"/>
<path d="M58.0464 234.122C58.0464 237.23 55.5257 239.751 52.4164 239.751C49.3072 239.751 46.7871 237.23 46.7871 234.122C46.7871 231.013 49.3072 228.491 52.4164 228.491C55.5257 228.491 58.0464 231.013 58.0464 234.122Z" fill="#773B17"/>
<path d="M102.089 234.122C102.089 237.23 99.5677 239.751 96.4584 239.751C93.3492 239.751 90.8291 237.23 90.8291 234.122C90.8291 231.013 93.3492 228.491 96.4584 228.491C99.5677 228.491 102.089 231.013 102.089 234.122Z" fill="#773B17"/>
<path d="M146.13 234.122C146.13 237.23 143.61 239.751 140.5 239.751C137.391 239.751 134.871 237.23 134.871 234.122C134.871 231.013 137.391 228.491 140.5 228.491C143.61 228.491 146.13 231.013 146.13 234.122Z" fill="#773B17"/>
<path d="M190.172 234.122C190.172 237.23 187.652 239.751 184.542 239.751C181.433 239.751 178.912 237.23 178.912 234.122C178.912 231.013 181.433 228.491 184.542 228.491C187.652 228.491 190.172 231.013 190.172 234.122Z" fill="#773B17"/>
<path d="M234.214 234.122C234.214 237.23 231.693 239.751 228.585 239.751C225.475 239.751 222.954 237.23 222.954 234.122C222.954 231.013 225.475 228.491 228.585 228.491C231.693 228.491 234.214 231.013 234.214 234.122Z" fill="#773B17"/>
</svg>
