<svg width="218" height="277" viewBox="0 0 218 277" fill="none" xmlns="http://www.w3.org/2000/svg">
<path d="M5.09338 271.593H211.995V3.37668H5.09338V271.593Z" fill="#B6E4FA"/>
<path d="M212.255 226.473C208.443 227.083 205.003 229.881 203.772 233.557C201.626 228.198 192.713 227.651 189.927 232.709C188.1 225.528 180.768 220.173 173.374 220.614C165.982 221.053 159.34 227.244 158.378 234.589C153.946 229.013 144.08 229.258 139.933 235.047C139.891 228.991 134.73 223.405 128.696 222.885C122.666 222.366 116.626 226.987 115.549 232.946C112.021 228.507 104.003 229.045 101.1 233.914C97.2116 228.492 87.499 229.182 84.4179 235.103C83.0378 229.502 76.5856 225.722 71.025 227.261C65.4668 228.8 61.8736 235.36 63.5716 240.872C58.6263 235.619 49.5005 235.074 43.9629 239.7C38.4253 244.325 37.3408 253.401 41.6309 259.206C38.1136 259.813 36.1362 264.596 38.1976 267.51C34.7375 265.457 29.9659 268.974 29.791 272.994L29.7929 273.055H212.255V226.473Z" fill="#B2D067"/>
<path d="M54.1228 234.284C52.8709 233.338 51.9781 232.124 51.9165 230.678C51.8561 229.225 53.225 227.702 54.6231 228.097C55.2129 228.265 55.674 228.715 56.0883 229.163C57.9798 231.205 59.992 233.963 60.7654 236.674C58.8907 236.6 56.0722 235.763 54.1228 234.284Z" fill="#B2D067"/>
<path d="M61.104 228.058C61.4773 227.828 61.9545 227.685 62.387 227.811C62.9283 227.967 63.2307 228.486 63.3837 228.978C63.9817 230.882 63.2257 232.794 62.4896 234.518C62.3409 234.862 62.112 235.752 61.6578 235.118C60.3356 233.264 58.4086 229.701 61.104 228.058Z" fill="#B2D067"/>
<path d="M27.7552 264.418C26.26 263.941 25.0144 263.095 24.4743 261.754C23.9349 260.403 24.7157 258.511 26.1655 258.419C26.7758 258.379 27.3626 258.649 27.902 258.934C30.3659 260.23 33.182 262.159 34.8159 264.455C33.0227 265.011 30.0884 265.163 27.7552 264.418Z" fill="#B2D067"/>
<path d="M32.2618 256.219C32.5387 255.878 32.9394 255.585 33.3893 255.559C33.953 255.526 34.4097 255.915 34.7195 256.327C35.9167 257.923 35.842 259.98 35.7225 261.848C35.6989 262.222 35.7773 263.138 35.1395 262.692C33.2735 261.386 30.2683 258.669 32.2618 256.219Z" fill="#B2D067"/>
<path d="M148.454 228.156C149.707 227.211 150.605 226.001 150.667 224.555C150.73 223.104 149.368 221.576 147.968 221.969C147.377 222.134 146.917 222.581 146.498 223.03C144.604 225.068 142.584 227.82 141.804 230.53C143.677 230.459 146.498 229.631 148.454 228.156Z" fill="#B2D067"/>
<path d="M205.572 223.888C205.666 222.32 205.327 220.853 204.267 219.867C203.203 218.874 201.156 218.924 200.548 220.243C200.29 220.799 200.331 221.44 200.401 222.049C200.723 224.813 201.508 228.135 203.061 230.488C204.226 229.015 205.425 226.331 205.572 223.888Z" fill="#B2D067"/>
<path d="M141.487 221.911C141.116 221.681 140.638 221.536 140.208 221.661C139.662 221.815 139.361 222.335 139.203 222.827C138.602 224.728 139.354 226.644 140.085 228.369C140.232 228.712 140.46 229.604 140.915 228.97C142.243 227.119 144.179 223.564 141.487 221.911Z" fill="#B2D067"/>
<path d="M66.3492 261.994L66.2708 261.989C64.3768 261.733 62.886 259.836 63.0179 257.848C63.1398 256.018 64.584 254.326 66.4549 253.825C67.6471 253.506 68.9574 253.651 70.1265 254.193C69.9567 252.793 70.4302 251.291 71.463 250.3C72.9053 248.914 75.2547 248.614 77.0448 249.591C78.777 250.535 79.8422 252.592 79.6325 254.591C79.6002 254.909 79.3059 255.145 79.0004 255.104C78.6837 255.072 78.4535 254.789 78.4871 254.473C78.6482 252.92 77.8294 251.33 76.4948 250.602C75.1539 249.874 73.3346 250.101 72.2607 251.133C71.165 252.182 70.9087 254 71.6789 255.27C71.8276 255.512 71.7741 255.828 71.5564 256.01C71.338 256.194 71.0182 256.19 70.8054 255.999C69.6736 254.999 68.087 254.585 66.7517 254.938C65.3431 255.316 64.2561 256.571 64.1671 257.923C64.0763 259.306 65.1309 260.671 66.4263 260.848C66.7411 260.889 66.9627 261.18 66.9197 261.496C66.8799 261.786 66.6341 261.994 66.3492 261.994Z" fill="#9DC85C"/>
<path d="M109.812 250.026C109.593 250.026 109.385 249.903 109.288 249.693C108.925 248.906 108.933 247.99 109.308 247.112C109.723 246.141 110.538 245.365 111.484 245.039C112.833 244.573 114.42 244.881 115.682 245.798C116.226 244.132 117.727 242.832 119.404 242.721C120.478 242.632 121.594 243.118 122.383 243.975C123.115 244.769 123.451 245.779 123.308 246.743C123.26 247.058 122.962 247.266 122.652 247.229C122.338 247.181 122.121 246.888 122.167 246.574C122.261 245.956 122.031 245.292 121.535 244.757C120.981 244.153 120.213 243.835 119.482 243.87C118.04 243.967 116.733 245.368 116.626 246.933C116.609 247.162 116.459 247.359 116.24 247.437C116.024 247.514 115.784 247.452 115.626 247.283C114.616 246.187 113.068 245.716 111.86 246.128C111.215 246.351 110.657 246.888 110.368 247.565C110.122 248.138 110.111 248.723 110.336 249.209C110.468 249.499 110.341 249.841 110.053 249.975C109.974 250.01 109.893 250.026 109.812 250.026Z" fill="#9DC85C"/>
<path d="M93.9885 273.055C94.1279 271.973 94.4123 271.209 94.8858 270.686C95.3866 270.132 96.3411 269.818 96.9608 270.231C97.145 270.352 97.3273 270.543 97.5226 270.742C97.9619 271.201 98.5107 271.759 99.3326 271.679C99.6095 271.647 99.826 271.423 99.8441 271.144C99.9312 269.794 100.022 268.399 100.629 267.224C101.133 266.249 102.215 265.29 103.452 265.454C104.232 265.566 104.985 266.166 105.471 267.058C105.943 267.931 106.139 268.96 106.327 269.957C106.372 270.199 106.566 270.385 106.81 270.422C107.052 270.453 107.291 270.334 107.403 270.118C108.028 268.917 109.009 267.332 110.342 267.332L110.398 267.333C111.194 267.361 111.871 267.98 112.235 268.552C112.703 269.282 112.927 270.178 113.144 271.043C113.222 271.352 113.533 271.543 113.843 271.462C114.152 271.386 114.339 271.072 114.262 270.763C114.035 269.852 113.775 268.82 113.206 267.933C112.528 266.873 111.494 266.218 110.438 266.184C108.987 266.105 107.921 267.15 107.149 268.28C106.996 267.679 106.792 267.074 106.486 266.51C105.827 265.296 104.754 264.478 103.613 264.312C101.838 264.057 100.291 265.368 99.6052 266.696C99.0116 267.843 98.8398 269.127 98.7447 270.326C98.6283 270.231 98.502 270.1 98.3514 269.944C98.1224 269.708 97.8891 269.463 97.5998 269.27C96.4325 268.493 94.8702 268.988 94.0315 269.912C93.1647 270.868 92.9252 272.147 92.8213 273.055H93.9885Z" fill="#9DC85C"/>
<path d="M160.564 247.334C160.321 247.334 160.094 247.178 160.017 246.933C159.577 245.563 159.634 244.013 160.174 242.68C160.321 242.317 160.572 241.794 161.061 241.469C161.512 241.168 162.042 241.119 162.403 241.106C163.911 241.058 165.408 241.62 166.536 242.611C166.894 241.633 167.609 240.746 168.701 240.454C169.526 240.236 170.468 240.52 171.11 241.179C171.663 241.748 171.862 242.465 171.659 243.15C171.568 243.455 171.244 243.623 170.942 243.537C170.636 243.446 170.462 243.124 170.555 242.82C170.664 242.448 170.433 242.137 170.282 241.984C169.938 241.628 169.404 241.456 168.999 241.568C168.036 241.824 167.511 242.926 167.431 243.842C167.41 244.078 167.248 244.279 167.019 244.346C166.794 244.41 166.545 244.331 166.4 244.142C165.476 242.934 163.954 242.234 162.439 242.256C162.221 242.264 161.906 242.289 161.7 242.428C161.53 242.541 161.383 242.758 161.241 243.111C160.8 244.197 160.754 245.464 161.112 246.581C161.209 246.885 161.044 247.208 160.74 247.307L160.564 247.334Z" fill="#9DC85C"/>
<path d="M212.255 247.99C211.952 247.689 211.603 247.447 211.22 247.291C210.411 246.966 209.453 247.001 208.592 247.385C208.174 247.573 207.803 247.829 207.501 248.14C206.916 246.513 205.994 244.934 204.281 244.529C202.891 244.196 201.29 244.84 200.21 246.16C199.289 247.286 198.834 248.694 198.433 249.935C198.336 250.238 198.501 250.563 198.805 250.66C199.107 250.762 199.433 250.591 199.528 250.29C199.918 249.087 200.319 247.849 201.102 246.89C201.76 246.085 202.91 245.388 204.017 245.65C205.561 246.015 206.295 247.971 206.761 249.632C206.83 249.874 207.046 250.045 207.297 250.053C207.549 250.074 207.773 249.911 207.857 249.672C208.049 249.145 208.487 248.696 209.063 248.436C209.64 248.178 210.268 248.15 210.788 248.361C211.309 248.57 211.741 249.026 211.977 249.612C212.214 250.196 212.217 250.827 211.986 251.338C211.859 251.622 211.981 251.947 212.255 252.084V247.99Z" fill="#9DC85C"/>
<path d="M212.256 34.241C208.318 33.6599 204.028 33.9878 199.596 35.1376C185.626 38.7663 178.957 50.931 177.979 64.5478C172.293 61.6714 165.849 58.4901 160.246 63.0714C156.214 66.3653 153.559 72.6222 153.142 77.7255C143.679 78.0502 140.042 80.2771 137.08 89.3992C131.627 85.8408 126.025 88.3639 124.869 94.6444C120.081 91.7281 112.207 95.0874 118.208 100.215H212.256V34.241Z" fill="white"/>
<path d="M68.5162 274.804C79.378 270.973 89.6879 263.216 95.2828 254.535C101.48 244.916 103.338 232.893 101.776 221.559C100.567 212.781 97.4704 203.887 93.0646 196.194C88.9568 189.02 87.0224 182.846 89.6493 174.521C91.9142 167.345 96.3386 161.087 99.6861 154.349C108.377 136.85 109.34 115.146 100.089 97.9371C93.1741 85.0793 80.9858 74.9094 77.4218 60.7505C74.7482 50.1345 73.5959 35.9931 60.8053 32.4727C39.8016 26.6974 24.7406 47.1225 20.6957 64.5559C18.0569 75.9242 14.0306 87.163 7.10118 96.5477C6.59222 97.239 6.05775 97.9084 5.52515 98.5773V270.731C11.3514 272.57 17.561 273.863 23.8645 274.804H68.5162Z" fill="#98BA66"/>
<path d="M46.3117 192.759C47.9456 184.525 51.2626 176.43 57.0522 170.35C61.0853 166.114 64.7899 161.477 68.9823 157.515C73.0726 153.653 78.3365 149.607 81.3174 144.821C81.5943 144.381 81.8619 143.854 81.6864 143.367C81.361 142.449 80.0177 142.642 79.1254 143.027C70.8588 146.59 61.8935 152.941 52.5101 152.42C51.4449 152.358 50.2496 152.127 49.6778 151.227C49.2759 150.596 49.2927 149.79 49.3468 149.043C50.4531 134.038 60.9428 121.543 65.9042 107.339C66.9191 104.439 67.163 100.291 64.2853 99.2194C62.2799 98.4703 60.1924 99.8628 58.3078 100.878C49.4694 105.637 52.6874 88.856 52.6706 84.3308C52.6414 76.0897 52.4143 66.7685 49.4831 58.9779C49.3792 58.7054 49.2361 58.4061 48.958 58.3264C48.5342 58.2001 48.1852 58.6655 47.9898 59.0619C44.7911 65.5639 44.1857 74.4981 42.9879 81.6024C40.7324 94.9586 39.5652 108.411 38.2542 121.866C38.0116 124.372 37.6525 126.928 36.4666 129.149C34.0481 133.688 26.2669 134.701 23.9952 129.114C30.4978 145.114 34.1831 163.487 27.6768 179.482C27.217 180.612 26.6626 181.779 25.6521 182.461C23.5354 183.888 21.0261 182.543 18.5254 181.198C16.0012 179.839 13.4831 178.48 11.3838 179.973C13.778 192.501 24.1165 202.228 27.2854 214.581C29.343 222.595 28.1154 231.404 23.9429 238.551C23.2479 239.744 22.3943 240.958 21.1032 241.453C19.8501 241.933 18.4284 241.628 17.1952 241.1C15.7666 240.488 14.4905 239.602 13.3033 238.567C10.4909 236.109 8.17324 232.804 5.52515 230.278V241.31C7.73085 244.996 10.1848 248.534 12.8908 251.87C15.8923 255.572 19.1837 259.038 22.7309 262.221C25.1071 264.35 29.386 269.566 32.6923 269.809C36.3708 270.078 40.0686 265.261 41.555 262.466C43.8845 258.087 44.8832 253.071 47.4448 248.823C52.0528 241.182 59.5777 240.214 65.6199 234.703C72.1406 228.753 77.8443 221.571 81.007 213.263C81.2789 212.548 81.4301 211.535 80.7444 211.191C80.3263 210.981 79.8266 211.167 79.3992 211.355L56.6894 221.289C54.2087 222.376 48.8248 226.053 46.4156 224.612C44.4974 223.467 44.5273 219.714 44.5403 217.841C44.6057 209.445 44.6735 200.992 46.3117 192.759Z" fill="#8DB361"/>
<path d="M38.9785 274.804C39.2914 267.047 39.6231 259.415 39.9298 252.206C40.9048 230.01 42.0223 207.811 43.2144 185.617C45.6168 141.226 48.2381 96.8364 51.3167 52.4821C51.3528 51.9551 50.9646 51.4885 50.4351 51.4325C49.8931 51.3783 49.4103 51.7716 49.3562 52.3135C44.8141 96.5608 40.7281 140.851 36.8605 185.17C34.9329 207.33 33.0837 229.497 31.3733 251.687C30.8158 259.068 30.2334 266.87 29.6678 274.804H38.9785Z" fill="#996B48"/>
<path d="M45.4923 87.0548C45.4923 87.0548 45.2583 86.7119 44.8489 86.1134C44.6442 85.8122 44.3953 85.4488 44.1104 85.032C43.9672 84.8229 43.816 84.6002 43.6561 84.3662C43.4981 84.1273 43.345 83.8386 43.1795 83.5586C42.8529 82.988 42.4995 82.3714 42.1261 81.72C41.7286 81.0754 41.4386 80.3679 41.0808 79.6512C40.7498 78.9251 40.3467 78.2014 40.0524 77.4193C39.7394 76.6472 39.4221 75.862 39.1041 75.0767C38.7918 74.2928 38.5466 73.482 38.2697 72.6999C38.136 72.3079 38.0028 71.9197 37.8715 71.5339C37.7589 71.1438 37.6469 70.7599 37.5374 70.381C37.3215 69.6225 37.1124 68.8914 36.9146 68.1952C36.7485 67.4946 36.5923 66.8307 36.4473 66.2172C36.1375 65.0002 35.9763 63.9617 35.8326 63.2431C35.6969 62.5251 35.6192 62.1138 35.6192 62.1138C35.5619 61.8095 35.7616 61.5183 36.0653 61.4611C36.3515 61.407 36.6278 61.5806 36.7068 61.8562L36.7142 61.883C36.7142 61.883 36.8262 62.278 37.0228 62.9712C37.2276 63.6606 37.4727 64.658 37.8834 65.8202C38.0775 66.4051 38.2878 67.0373 38.5105 67.7068C38.7631 68.3626 39.0295 69.0557 39.3057 69.7725C39.4445 70.129 39.5863 70.4924 39.7288 70.8601C39.8893 71.2203 40.0517 71.5849 40.2154 71.9527C40.5501 72.6825 40.8537 73.441 41.2221 74.1671C41.5929 74.8901 41.9644 75.6131 42.3296 76.3236C42.6756 77.0454 43.1223 77.6937 43.495 78.3533C43.8901 78.9935 44.2335 79.6561 44.6386 80.1912C45.0237 80.7438 45.3877 81.2677 45.7237 81.7505C45.8961 81.9913 46.0386 82.2221 46.2134 82.4417C46.3932 82.6601 46.5643 82.8686 46.7248 83.0627C47.0459 83.4534 47.3259 83.7944 47.5574 84.0744C48.0184 84.6338 48.2822 84.9554 48.2822 84.9554L48.2847 84.9586C48.8988 85.704 48.7918 86.8046 48.0464 87.4181C47.3016 88.031 46.1997 87.9258 45.5862 87.1792L45.4923 87.0548Z" fill="#996B48"/>
<path d="M44.3686 111.434C44.3686 111.434 44.9323 111.035 45.9179 110.337C46.4107 109.988 47.0086 109.565 47.6955 109.079C48.3893 108.596 49.1564 108.045 49.9541 107.426C50.7654 106.811 51.6446 106.143 52.5742 105.439C53.5118 104.746 54.4532 103.934 55.4544 103.137C56.448 102.327 57.4914 101.508 58.4957 100.613C59.5136 99.7302 60.5477 98.8337 61.5818 97.9371C62.5867 97.0069 63.5921 96.0767 64.5808 95.1608C65.5851 94.2574 66.514 93.3097 67.4305 92.4063C68.3371 91.4954 69.2492 90.6467 70.05 89.7819C70.8613 88.9245 71.6285 88.1156 72.3366 87.3671C73.0546 86.6261 73.6861 85.9255 74.2361 85.2945C74.7918 84.6667 75.2765 84.1204 75.6759 83.6712C76.4742 82.7696 76.9309 82.2557 76.9309 82.2557L76.9427 82.2414C77.1481 82.0099 77.5027 81.9894 77.7342 82.1947C77.9544 82.3907 77.983 82.7236 77.807 82.9544C77.807 82.9544 77.3851 83.5045 76.649 84.4645C76.2801 84.9455 75.8327 85.5304 75.3188 86.2011C74.8098 86.8762 74.2243 87.6278 73.5573 88.4242C72.8972 89.2287 72.1829 90.1017 71.4269 91.0238C70.6803 91.9558 69.8235 92.8748 68.9742 93.8623C68.1131 94.8391 67.2414 95.8676 66.2925 96.8519C65.3573 97.8524 64.4072 98.8673 63.4571 99.8833C62.4728 100.868 61.4897 101.852 60.5209 102.821C59.5652 103.805 58.5672 104.711 57.6159 105.608C56.654 106.494 55.7611 107.383 54.8452 108.168C53.9387 108.964 53.0819 109.716 52.2905 110.409C51.5003 111.116 50.7686 111.726 50.1177 112.251C49.4675 112.785 48.9007 113.252 48.4347 113.635C47.5014 114.401 46.9681 114.84 46.9681 114.84C46.0535 115.59 44.7027 115.458 43.9511 114.544C43.2001 113.63 43.332 112.279 44.2466 111.527L44.3686 111.434Z" fill="#996B48"/>
<path d="M40.3118 150.308C40.3118 150.308 39.7655 149.804 38.8073 148.925C38.327 148.485 37.7459 147.952 37.0795 147.339C36.7447 147.033 36.3901 146.708 36.0161 146.364C35.6465 146.001 35.2651 145.593 34.8638 145.182C34.0668 144.354 33.2025 143.457 32.2879 142.508C31.8194 142.042 31.3795 141.536 30.9427 141.01C30.5003 140.489 30.0486 139.959 29.5882 139.417C28.6748 138.331 27.6942 137.242 26.8312 136.025C25.9408 134.835 25.0355 133.626 24.1302 132.417C23.3021 131.157 22.472 129.896 21.6563 128.655C20.8108 127.434 20.1214 126.145 19.4127 124.923C19.0636 124.311 18.7195 123.711 18.3823 123.119C18.0382 122.535 17.7147 121.957 17.4422 121.367C16.871 120.211 16.3322 119.116 15.8331 118.104C15.5874 117.597 15.3404 117.12 15.1276 116.653C14.9291 116.178 14.7412 115.729 14.5651 115.307C14.2123 114.464 13.9062 113.729 13.653 113.123C13.1483 111.914 12.8609 111.223 12.8609 111.223C12.6991 110.836 12.8814 110.391 13.2678 110.229C13.6393 110.076 14.0617 110.239 14.2378 110.592L14.2615 110.637C14.2615 110.637 14.5875 111.298 15.1593 112.454C15.4455 113.032 15.7927 113.733 16.1903 114.537C16.39 114.939 16.6003 115.367 16.8231 115.817C17.0614 116.259 17.3351 116.715 17.6064 117.194C18.1571 118.15 18.7519 119.185 19.3816 120.28C19.6827 120.834 20.0349 121.379 20.407 121.928C20.7728 122.481 21.1449 123.045 21.5238 123.62C22.2885 124.763 23.0351 125.971 23.9348 127.103C24.8022 128.253 25.682 129.422 26.5624 130.593C27.5125 131.705 28.462 132.817 29.3965 133.911C30.2993 135.029 31.3166 136.02 32.2618 137.008C32.7353 137.498 33.2038 137.981 33.6592 138.454C34.1116 138.933 34.562 139.391 35.0287 139.795C35.9421 140.629 36.8057 141.42 37.6015 142.148C38.0034 142.509 38.3718 142.863 38.7495 143.188C39.1427 143.507 39.5191 143.809 39.8719 144.094C40.5756 144.663 41.191 145.158 41.6968 145.566C42.7098 146.383 43.2884 146.85 43.2884 146.85C44.2696 147.642 44.4233 149.078 43.6325 150.058C42.8404 151.041 41.4044 151.195 40.4232 150.402L40.3118 150.308Z" fill="#996B48"/>
<path d="M40.8769 170.089C40.8769 170.089 41.817 169.541 43.4602 168.582C44.2828 168.103 45.2808 167.52 46.425 166.853C46.9987 166.518 47.6066 166.163 48.2493 165.787C48.8746 165.4 49.5074 164.978 50.1806 164.544C51.5252 163.671 52.9812 162.729 54.5217 161.73C55.3014 161.244 56.0754 160.698 56.8594 160.124C57.6483 159.559 58.4553 158.983 59.2741 158.395C60.9093 157.213 62.6359 156.033 64.2716 154.683C65.9367 153.369 67.6284 152.031 69.3202 150.695C70.9479 149.281 72.5749 147.864 74.1777 146.473C75.8122 145.107 77.2906 143.629 78.7615 142.235C79.4957 141.536 80.2143 140.85 80.9199 140.176C81.6317 139.507 82.3174 138.842 82.9458 138.159C84.2288 136.815 85.4414 135.542 86.5614 134.367C87.1189 133.777 87.6652 133.22 88.1623 132.675C88.6464 132.116 89.1068 131.586 89.538 131.087C90.4035 130.09 91.157 129.22 91.778 128.505C93.0205 127.072 93.731 126.253 93.731 126.253L93.7516 126.229C93.9886 125.955 94.403 125.925 94.6768 126.162C94.9394 126.392 94.9761 126.786 94.7658 127.06C94.7658 127.06 94.0969 127.923 92.9272 129.432C92.3417 130.187 91.6305 131.105 90.816 132.159C90.4085 132.685 89.9742 133.247 89.5156 133.836C89.0434 134.414 88.5257 135.004 87.9956 135.63C86.9304 136.879 85.7774 138.231 84.5567 139.661C83.9594 140.387 83.3023 141.097 82.6204 141.81C81.9459 142.532 81.2553 143.268 80.5541 144.016C79.1448 145.509 77.7237 147.092 76.147 148.564C74.5971 150.067 73.0229 151.596 71.45 153.124C69.8055 154.577 68.1617 156.031 66.5427 157.463C64.9492 158.93 63.2618 160.226 61.6603 161.523C60.8564 162.168 60.0656 162.803 59.2928 163.426C58.525 164.054 57.7634 164.658 56.9832 165.204C55.4457 166.325 53.9916 167.386 52.6489 168.364C51.9763 168.852 51.3311 169.319 50.7176 169.761C50.0966 170.17 49.5087 170.559 48.9561 170.924C47.848 171.654 46.8836 172.291 46.089 172.816C44.5012 173.864 43.5934 174.463 43.5934 174.463C42.4062 175.247 40.809 174.92 40.0251 173.732C39.2417 172.545 39.5696 170.947 40.7561 170.164L40.8769 170.089Z" fill="#996B48"/>
<path d="M36.6963 208.611C36.6963 208.611 36.2427 208.217 35.4481 207.527C35.0505 207.183 34.5689 206.766 34.0158 206.285C33.4614 205.813 32.838 205.264 32.1635 204.622C31.489 203.993 30.7592 203.311 29.9864 202.591C29.2043 201.878 28.4571 201.071 27.642 200.269C26.8393 199.456 25.9931 198.636 25.1936 197.741C24.381 196.862 23.5572 195.966 22.7328 195.075C21.9426 194.151 21.1518 193.229 20.3734 192.321C19.5826 191.427 18.8652 190.492 18.1559 189.605C17.4571 188.706 16.746 187.87 16.1381 187.025C15.5196 186.186 14.936 185.393 14.3972 184.664C13.3033 183.216 12.5026 181.929 11.8909 181.066C11.2961 180.193 10.9551 179.693 10.9551 179.693C10.7355 179.369 10.8183 178.927 11.1424 178.705C11.4498 178.496 11.8629 178.561 12.0931 178.845L12.1124 178.867C12.1124 178.867 12.4876 179.331 13.1453 180.145C13.8185 180.946 14.7064 182.145 15.9004 183.48C16.4871 184.156 17.1236 184.887 17.7975 185.658C18.4589 186.44 19.2267 187.203 19.9808 188.024C20.7467 188.837 21.5201 189.691 22.3657 190.501C23.197 191.325 24.0413 192.161 24.8862 192.998C25.7604 193.802 26.6328 194.606 27.4933 195.398C28.3395 196.202 29.228 196.933 30.0717 197.658C30.921 198.369 31.7186 199.098 32.5188 199.713C33.3084 200.339 34.0556 200.931 34.7469 201.478C35.4226 202.027 36.0809 202.518 36.6801 202.948C37.2699 203.381 37.7845 203.759 38.2088 204.071C39.0569 204.692 39.541 205.047 39.541 205.047C40.557 205.791 40.7767 207.22 40.0306 208.238C39.2865 209.254 37.8579 209.472 36.8419 208.727L36.6963 208.611Z" fill="#996B48"/>
<path d="M36.6744 236.885C36.6744 236.885 37.492 236.547 38.9218 235.955C39.6373 235.66 40.5053 235.3 41.5014 234.887C41.9992 234.682 42.5293 234.462 43.0874 234.233C43.6331 233.989 44.1788 233.71 44.7636 233.431C45.9284 232.869 47.1915 232.259 48.5261 231.614C48.8602 231.452 49.1993 231.287 49.5422 231.122C49.8781 230.936 50.2185 230.748 50.5626 230.556C51.2513 230.176 51.9544 229.787 52.67 229.392C54.0954 228.591 55.6061 227.82 57.0447 226.877C58.5056 225.968 59.9908 225.042 61.4754 224.118C62.9151 223.123 64.3555 222.127 65.7723 221.146C67.2108 220.19 68.5454 219.139 69.8502 218.139C71.1444 217.125 72.4442 216.2 73.5921 215.222C74.7476 214.251 75.8395 213.332 76.8481 212.483C77.3521 212.059 77.8355 211.651 78.2954 211.264C78.7377 210.858 79.1571 210.472 79.551 210.11C80.3399 209.383 81.0281 208.751 81.5943 208.23C82.7285 207.186 83.3763 206.591 83.3763 206.591L83.4005 206.569C83.706 206.288 84.1814 206.307 84.462 206.613C84.7333 206.908 84.7227 207.362 84.4471 207.647C84.4471 207.647 83.8273 208.282 82.7422 209.396C82.199 209.953 81.5401 210.628 80.7835 211.406C80.4046 211.793 80.0021 212.207 79.5777 212.642C79.1347 213.059 78.6687 213.497 78.1827 213.954C77.209 214.869 76.1544 215.858 75.0394 216.906C73.9281 217.962 72.6657 218.968 71.4076 220.069C70.1389 221.159 68.8385 222.301 67.4311 223.352C66.0417 224.431 64.6293 225.525 63.2182 226.619C61.7535 227.646 60.2888 228.674 58.8472 229.683C57.4261 230.73 55.9259 231.605 54.5073 232.506C53.7955 232.952 53.0943 233.39 52.4086 233.82C52.0652 234.035 51.7255 234.247 51.3901 234.458C51.0417 234.65 50.6982 234.841 50.3585 235.031C48.9946 235.783 47.7054 236.493 46.5151 237.149C45.9191 237.474 45.3479 237.802 44.8035 238.081C44.2578 238.343 43.7407 238.591 43.2548 238.823C42.2829 239.288 41.4355 239.695 40.7374 240.029C39.3418 240.698 38.5447 241.08 38.5447 241.08C37.3999 241.628 36.0279 241.146 35.4798 240.001C34.931 238.857 35.4144 237.485 36.5587 236.936L36.6744 236.885Z" fill="#996B48"/>
<path d="M32.9555 264.592C32.9555 264.592 31.4554 263.481 29.2055 261.813C28.6424 261.396 28.0333 260.943 27.39 260.465C26.7391 260.008 26.0852 259.385 25.3945 258.818C24.0282 257.654 22.571 256.41 21.1126 255.166C19.7611 253.839 18.4097 252.512 17.1429 251.268C16.5219 250.636 15.8761 250.077 15.3497 249.456C14.8103 248.848 14.3019 248.275 13.8309 247.745C11.96 245.634 10.7106 244.226 10.7106 244.226C10.4393 243.919 10.4679 243.451 10.774 243.178C11.0571 242.928 11.4796 242.931 11.7577 243.176L11.7969 243.212C11.7969 243.212 13.1876 244.436 15.2757 246.273C15.7946 246.73 16.3577 247.226 16.9538 247.75C17.5349 248.288 18.2367 248.756 18.9137 249.295C20.2844 250.343 21.7466 251.461 23.2094 252.579C24.7263 253.583 26.2457 254.583 27.6687 255.521C28.3917 255.98 29.0245 256.464 29.7394 256.846C30.4381 257.241 31.0995 257.616 31.7093 257.96C34.1464 259.338 35.7723 260.258 35.7723 260.258C37.0173 260.962 37.4572 262.542 36.7528 263.788C36.0485 265.032 34.4687 265.47 33.2237 264.766C33.1347 264.716 33.0364 264.651 32.9555 264.592Z" fill="#996B48"/>
<path d="M169.457 3.37668H137.484L85.0059 76.3379C89.9393 83.5281 95.9554 90.2516 100.089 97.9371C100.285 98.3017 100.476 98.6682 100.662 99.0359L169.457 3.37668Z" fill="#D7F0FC"/>
<path d="M85.0059 76.3379L66.4792 102.096C66.7934 103.735 66.4674 105.729 65.9043 107.339C60.9428 121.543 50.4531 134.038 49.3469 149.043C49.2927 149.79 49.2759 150.596 49.6779 151.227C50.2497 152.127 51.4449 152.358 52.5101 152.42C52.8766 152.439 53.2425 152.45 53.6077 152.45C57.0771 152.45 60.4886 151.555 63.8255 150.26L100.662 99.0359C100.476 98.6681 100.285 98.3017 100.089 97.9371C95.9554 90.2516 89.9393 83.5281 85.0059 76.3379Z" fill="#C2D394"/>
<path d="M66.4791 102.096L46.3515 130.079C45.6005 142.774 44.8757 155.472 44.1707 168.168C44.8377 167.778 45.5924 167.339 46.4249 166.853C46.9986 166.518 47.6065 166.163 48.2492 165.787C48.8745 165.4 49.5073 164.978 50.1805 164.544C51.5251 163.671 52.9811 162.729 54.5216 161.73C55.2117 161.3 55.898 160.822 56.5905 160.32L63.8254 150.26C60.4886 151.555 57.077 152.45 53.6076 152.45C53.2424 152.45 52.8765 152.439 52.5101 152.42C51.4449 152.358 50.2496 152.127 49.6778 151.227C49.2759 150.596 49.2927 149.79 49.3468 149.043C50.4531 134.038 60.9428 121.543 65.9042 107.339C66.4673 105.729 66.7933 103.735 66.4791 102.096ZM41.1319 137.336L37.6438 142.186C38.0289 142.535 38.3848 142.874 38.7495 143.188C39.1427 143.507 39.5191 143.809 39.8719 144.094C40.0797 144.263 40.2794 144.424 40.4717 144.579C40.6907 142.164 40.9104 139.75 41.1319 137.336Z" fill="#BACE8E"/>
<path d="M30.4549 152.181L11.4622 178.587C11.4889 178.584 11.515 178.583 11.5412 178.583C11.7496 178.583 11.9543 178.673 12.0931 178.845L12.1124 178.868C12.1124 178.868 12.271 179.064 12.5635 179.425C12.8503 179.353 13.144 179.321 13.442 179.321C15.0429 179.321 16.7826 180.259 18.5254 181.198C20.2676 182.134 22.0135 183.072 23.6281 183.072C24.3312 183.072 25.0094 182.894 25.6521 182.461C26.6626 181.779 27.2169 180.612 27.6767 179.482C31.1972 170.827 31.7335 161.475 30.4549 152.181Z" fill="#C2D394"/>
<path d="M35.2222 145.553L30.4549 152.181C31.7335 161.475 31.1972 170.827 27.6768 179.482C27.217 180.612 26.6626 181.779 25.6521 182.461C25.0094 182.894 24.3312 183.072 23.6281 183.072C22.0135 183.072 20.2676 182.134 18.5254 181.198C16.7826 180.259 15.043 179.321 13.442 179.321C13.144 179.321 12.8503 179.353 12.5635 179.425C12.7203 179.619 12.9156 179.861 13.1452 180.145C13.8185 180.946 14.7063 182.145 15.9003 183.481C16.4871 184.156 17.1236 184.887 17.7974 185.658C18.4588 186.44 19.2266 187.203 19.9807 188.024C20.7467 188.837 21.5201 189.691 22.3656 190.501C23.1969 191.325 24.0412 192.161 24.8862 192.998C25.7604 193.802 26.6327 194.606 27.4932 195.398C28.2703 196.137 29.0848 196.814 29.8663 197.481L36.6054 188.11C36.6906 187.13 36.7752 186.15 36.8605 185.17C37.884 173.447 38.9224 161.722 39.9802 150.004C39.7245 149.768 39.3262 149.401 38.8073 148.925C38.327 148.485 37.7459 147.952 37.0795 147.339C36.7447 147.033 36.3901 146.708 36.0161 146.364C35.7579 146.11 35.4941 145.835 35.2222 145.553ZM48.9722 170.913C48.9666 170.918 48.961 170.921 48.9561 170.924C47.8479 171.654 46.8835 172.291 46.089 172.816C44.9765 173.551 44.1981 174.063 43.8316 174.306C43.7569 175.663 43.6829 177.015 43.6082 178.372L48.9722 170.913Z" fill="#BACE8E"/>
<path d="M5.52519 186.841L5.09338 187.441V231.928L5.52519 231.327V186.841Z" fill="#D7F0FC"/>
<path d="M10.8475 179.441L5.52515 186.841V231.327V230.278C5.67385 230.419 5.82131 230.564 5.96878 230.711L23.8577 205.836C19.5757 197.408 13.4078 189.684 11.4827 180.467C11.1424 179.968 10.9551 179.693 10.9551 179.693C10.9016 179.614 10.8661 179.528 10.8475 179.441Z" fill="#C2D394"/>
<path d="M11.4827 180.467C13.4078 189.684 19.5757 197.408 23.8577 205.836L27.7701 200.396C27.7272 200.353 27.6842 200.312 27.6419 200.269C26.8393 199.456 25.9931 198.636 25.1936 197.741C24.381 196.862 23.5572 195.966 22.7328 195.075C21.9426 194.151 21.1517 193.229 20.3734 192.321C19.5826 191.427 18.8652 190.492 18.1558 189.605C17.4571 188.706 16.7459 187.87 16.138 187.025C15.5196 186.186 14.936 185.393 14.3971 184.664C13.3033 183.216 12.5025 181.929 11.8909 181.066C11.7378 180.841 11.6009 180.64 11.4827 180.467ZM5.52515 230.278V231.327L5.96878 230.711C5.82131 230.564 5.67385 230.419 5.52515 230.278Z" fill="#BACE8E"/>
<path d="M46.3515 130.079L41.1319 137.336C40.9104 139.75 40.6907 142.164 40.4717 144.579C40.929 144.948 41.3403 145.279 41.6968 145.566C42.7098 146.383 43.2884 146.85 43.2884 146.85C44.2696 147.642 44.4233 149.078 43.6325 150.058C43.1814 150.618 42.5212 150.908 41.8542 150.908C41.3515 150.908 40.845 150.743 40.4232 150.402L40.3118 150.308C40.3118 150.308 40.1967 150.203 39.9802 150.004C38.9224 161.722 37.884 173.447 36.8604 185.17C36.7752 186.15 36.6906 187.13 36.6053 188.11L43.6082 178.372C43.6829 177.015 43.7569 175.663 43.8316 174.306C43.6748 174.409 43.5933 174.463 43.5933 174.463C43.1565 174.752 42.6637 174.89 42.1765 174.89C41.3403 174.89 40.5209 174.482 40.025 173.732C39.2416 172.545 39.5695 170.948 40.7561 170.164L40.8768 170.089C40.8768 170.089 41.8169 169.541 43.4601 168.583C43.6835 168.452 43.9212 168.313 44.1707 168.168C44.8757 155.472 45.6005 142.774 46.3515 130.079Z" fill="#C19D79"/>
<path d="M37.6439 142.186L35.2223 145.553C35.4942 145.835 35.758 146.11 36.0162 146.364C36.3902 146.708 36.7448 147.033 37.0796 147.339C37.7459 147.952 38.3271 148.485 38.8074 148.925C39.3263 149.401 39.7245 149.768 39.9803 150.004C40.1968 150.203 40.3119 150.308 40.3119 150.308L40.4233 150.402C40.8451 150.743 41.3516 150.908 41.8543 150.908C42.5213 150.908 43.1815 150.618 43.6326 150.058C44.4234 149.078 44.2697 147.642 43.2885 146.85C43.2885 146.85 42.7099 146.383 41.6969 145.566C41.3404 145.279 40.9291 144.948 40.4718 144.579C40.2795 144.424 40.0798 144.263 39.872 144.094C39.5192 143.809 39.1428 143.507 38.7496 143.188C38.3849 142.874 38.029 142.535 37.6439 142.186Z" fill="#C19D79"/>
<path d="M56.5906 160.32C55.8981 160.822 55.2118 161.3 54.5217 161.73C52.9812 162.729 51.5252 163.671 50.1806 164.544C49.5074 164.978 48.8746 165.4 48.2493 165.787C47.6066 166.163 46.9987 166.518 46.425 166.853C45.5925 167.339 44.8378 167.778 44.1708 168.168C43.9213 168.313 43.6836 168.452 43.4602 168.582C41.817 169.541 40.8769 170.089 40.8769 170.089L40.7561 170.164C39.5696 170.947 39.2417 172.545 40.0251 173.732C40.521 174.482 41.3404 174.89 42.1766 174.89C42.6638 174.89 43.1566 174.752 43.5934 174.463C43.5934 174.463 43.6749 174.409 43.8317 174.306C44.1982 174.063 44.9765 173.551 46.089 172.816C46.8836 172.291 47.848 171.654 48.9561 170.924C48.9611 170.921 48.9667 170.918 48.9723 170.913L56.5906 160.32Z" fill="#C19D79"/>
<path d="M11.5412 178.583C11.515 178.583 11.4889 178.584 11.4621 178.587L10.8474 179.441C10.8661 179.528 10.9015 179.614 10.9551 179.693C10.9551 179.693 11.1423 179.968 11.4827 180.467C11.6009 180.64 11.7378 180.841 11.8908 181.066C12.5025 181.929 13.3032 183.216 14.3971 184.664C14.9359 185.393 15.5195 186.186 16.138 187.025C16.7459 187.87 17.4571 188.706 18.1558 189.605C18.8651 190.492 19.5825 191.427 20.3733 192.321C21.1517 193.229 21.9425 194.151 22.7327 195.075C23.5571 195.966 24.3809 196.862 25.1935 197.741C25.9931 198.636 26.8392 199.456 27.6419 200.269C27.6842 200.312 27.7271 200.353 27.7701 200.396L29.8663 197.481C29.0848 196.814 28.2703 196.137 27.4932 195.398C26.6327 194.606 25.7603 193.802 24.8862 192.998C24.0412 192.161 23.1969 191.325 22.3656 190.501C21.52 189.691 20.7466 188.837 19.9807 188.024C19.2266 187.203 18.4588 186.44 17.7974 185.658C17.1236 184.887 16.4871 184.156 15.9003 183.481C14.7063 182.145 13.8184 180.946 13.1452 180.145C12.9156 179.861 12.7202 179.619 12.5634 179.425C12.271 179.064 12.1123 178.868 12.1123 178.868L12.0931 178.845C11.9543 178.673 11.7496 178.583 11.5412 178.583Z" fill="#C19D79"/>
<path d="M193.626 3.37668H185.622L120.764 93.563C120.799 93.563 120.836 93.563 120.871 93.563C122.217 93.563 123.644 93.899 124.869 94.6444C125.665 90.3182 128.572 87.7746 132.086 87.7746C132.352 87.7746 132.62 87.7889 132.892 87.8194L193.626 3.37668ZM116.929 98.8971L105.734 114.463C106.301 117.715 106.593 121.022 106.623 124.341L123.976 100.215H118.208C117.677 99.7607 117.253 99.3208 116.929 98.8971Z" fill="#D7F0FC"/>
<path d="M132.086 87.7746C128.572 87.7746 125.666 90.3182 124.869 94.6444C123.644 93.899 122.217 93.563 120.871 93.563C120.836 93.563 120.799 93.563 120.764 93.563L116.929 98.8971C117.253 99.3208 117.677 99.7607 118.208 100.215H123.976L132.892 87.8194C132.62 87.789 132.352 87.7746 132.086 87.7746Z" fill="white"/>
<path d="M105.734 114.463L45.4301 198.318C44.9373 202.362 44.7326 206.443 44.6355 210.528L106.623 124.341C106.593 121.022 106.301 117.715 105.734 114.463Z" fill="#C2D394"/>
<path d="M45.4301 198.318L42.3153 202.65C42.1088 206.634 41.9053 210.619 41.7056 214.602L44.6355 210.528C44.7326 206.443 44.9373 202.362 45.4301 198.318Z" fill="#BACE8E"/>
<path d="M28.2616 222.191L15.364 240.126C15.9476 240.497 16.5562 240.826 17.1952 241.1C17.9972 241.444 18.8788 241.692 19.7424 241.692C20.2066 241.692 20.6652 241.62 21.1032 241.453C22.3943 240.958 23.2479 239.744 23.9429 238.551C26.8219 233.621 28.2983 227.898 28.2616 222.191Z" fill="#C2D394"/>
<path d="M34.4351 213.607L28.2616 222.191C28.2983 227.898 26.8218 233.621 23.9429 238.551C23.2479 239.744 22.3942 240.958 21.1032 241.453C20.6651 241.62 20.2066 241.692 19.7424 241.692C18.8788 241.692 17.9971 241.444 17.1951 241.1C16.5561 240.826 15.9476 240.497 15.364 240.126L12.6226 243.938C13.2342 244.476 14.1544 245.287 15.2756 246.273C15.7945 246.73 16.3576 247.226 16.9537 247.75C17.1329 247.915 17.3227 248.074 17.5199 248.231L33.4004 226.15C33.7413 221.968 34.086 217.788 34.4351 213.607Z" fill="#BACE8E"/>
<path d="M5.52519 253.807L5.09338 254.408V265.508L5.52519 264.907V253.807Z" fill="#D7F0FC"/>
<path d="M9.81461 247.842L5.52515 253.807V264.907L13.9659 253.171C13.6038 252.742 13.2448 252.307 12.8908 251.87C11.8262 250.558 10.8014 249.214 9.81461 247.842Z" fill="#C2D394"/>
<path d="M11.6519 245.287L9.81458 247.842C10.8014 249.214 11.8262 250.558 12.8907 251.87C13.2448 252.307 13.6038 252.742 13.9659 253.171L16.0814 250.231C15.8232 249.976 15.5755 249.721 15.3497 249.456C14.8102 248.848 14.3019 248.275 13.8309 247.745C12.9418 246.742 12.1933 245.897 11.6519 245.287Z" fill="#BACE8E"/>
<path d="M42.3153 202.65L40.132 205.684C40.6067 206.452 40.598 207.463 40.0306 208.238C39.5845 208.846 38.8919 209.168 38.1901 209.168C38.0159 209.168 37.8417 209.149 37.6699 209.109L34.4351 213.607C34.0861 217.788 33.7414 221.968 33.4004 226.15L41.7055 214.602C41.9053 210.619 42.1087 206.634 42.3153 202.65Z" fill="#C19D79"/>
<path d="M40.132 205.684L37.6699 209.109C37.8416 209.149 38.0159 209.168 38.1901 209.168C38.8919 209.168 39.5844 208.846 40.0306 208.238C40.598 207.463 40.6067 206.452 40.132 205.684Z" fill="#C19D79"/>
<path d="M12.6226 243.938L11.652 245.287C12.1933 245.897 12.9418 246.742 13.8309 247.745C14.3019 248.275 14.8103 248.848 15.3497 249.456C15.5756 249.721 15.8232 249.976 16.0814 250.231L17.52 248.231C17.3227 248.074 17.133 247.915 16.9538 247.75C16.3577 247.226 15.7946 246.73 15.2757 246.273C14.1545 245.287 13.2342 244.476 12.6226 243.938Z" fill="#C19D79"/>
<path d="M208.44 100.215H192.46L102.194 225.724C102.334 227.979 102.339 230.245 102.198 232.5C103.884 230.795 106.335 229.916 108.772 229.916C110.653 229.916 112.525 230.44 114.03 231.509L208.44 100.215Z" fill="#D7F0FC"/>
<path d="M108.771 229.916C106.335 229.916 103.883 230.795 102.198 232.5C101.714 240.309 99.5062 247.98 95.2827 254.535C90.9684 261.23 83.8492 267.375 75.8358 271.593H85.2068L114.03 231.509C112.525 230.44 110.653 229.916 108.771 229.916Z" fill="#D4E297"/>
<path d="M211.995 73.0502L192.459 100.215H208.44L211.995 95.2691V73.0502Z" fill="white"/>
<path d="M102.194 225.724L69.2037 271.593H75.8358C83.8491 267.375 90.9684 261.23 95.2827 254.535C99.5062 247.98 101.714 240.309 102.198 232.5C102.338 230.245 102.334 227.979 102.194 225.724Z" fill="#C2D394"/>
<path d="M210.505 269.967H7.41043V6.17037H210.505V269.967ZM0 -7.62939e-06V276.137H217.914V-7.62939e-06H0Z" fill="#966A65"/>
<path d="M64.9113 271.59H71.4039V4.54704H64.9113V271.59Z" fill="#966A65"/>
<path d="M146.511 271.59H153.003V4.54704H146.511V271.59Z" fill="#966A65"/>
<path d="M0 87.7062H213.286V81.2141H0V87.7062Z" fill="#966A65"/>
<path d="M0 194.922H213.286V188.429H0V194.922Z" fill="#966A65"/>
</svg>
