<svg width="270" height="180" viewBox="0 0 270 180" fill="none" xmlns="http://www.w3.org/2000/svg">
<rect x="2.5" y="2.5" width="265" height="175" rx="7.5" fill="#22B7D8" stroke="#4E834D" stroke-width="5"/>
<g filter="url(#filter0_d_253_99)">
<path d="M198.122 103.19L207.565 56.1837L243.552 87.8649L198.122 103.19Z" stroke="#FFCA0D" stroke-width="5" shape-rendering="crispEdges"/>
</g>
<g filter="url(#filter1_d_253_99)">
<rect x="45.2954" y="20.523" width="51" height="26" transform="rotate(40.1728 45.2954 20.523)" stroke="#FFCA0D" stroke-width="5" shape-rendering="crispEdges"/>
</g>
<g filter="url(#filter2_d_253_99)">
<rect x="121.03" y="116.66" width="44" height="44" transform="rotate(-13.9801 121.03 116.66)" stroke="#FFCA0D" stroke-width="5" shape-rendering="crispEdges"/>
</g>
<g filter="url(#filter3_d_253_99)">
<path d="M78.5 122.5C78.5 135.249 68.38 145.5 56 145.5C43.62 145.5 33.5 135.249 33.5 122.5C33.5 109.751 43.62 99.5 56 99.5C68.38 99.5 78.5 109.751 78.5 122.5Z" stroke="#FFCA0D" stroke-width="5" shape-rendering="crispEdges"/>
</g>
<g filter="url(#filter4_d_253_99)">
<path d="M126.843 65.1397C126.54 64.9836 126.323 64.7521 126.193 64.4453C126.082 64.1005 126.105 63.7764 126.261 63.4729C126.378 63.2452 126.486 63.0365 126.583 62.8468C126.7 62.6192 126.817 62.3915 126.935 62.1639C127.845 60.9531 128.896 59.9824 130.088 59.2519C131.337 58.5029 132.632 57.8976 133.973 57.436C135.352 56.9938 136.664 56.5891 137.908 56.2217C139.153 55.8544 140.255 55.4377 141.214 54.9716C142.231 54.4872 142.964 53.8563 143.412 53.0791C143.917 52.2834 144.107 51.4937 143.983 50.7099C143.896 49.9456 143.57 49.2263 143.006 48.5519C142.479 47.8971 141.817 47.3647 141.02 46.9548C139.503 46.1741 138.122 45.9197 136.879 46.1917C135.635 46.4636 134.463 47.2039 133.361 48.4125C132.995 48.7518 132.61 48.9859 132.208 49.1149C131.825 49.2059 131.387 49.1245 130.894 48.8708L123.951 45.299C123.572 45.1038 123.317 44.8051 123.188 44.4029C123.079 43.9627 123.141 43.515 123.376 43.0597C124.194 41.5616 125.316 40.2674 126.741 39.177C128.203 38.1061 129.901 37.3241 131.834 36.8311C133.824 36.3196 136.001 36.2397 138.363 36.5912C140.745 36.9048 143.244 37.735 145.862 39.0817C148.708 40.5456 150.903 42.1069 152.449 43.7657C153.995 45.4246 155.016 47.0774 155.512 48.7242C156.046 50.3905 156.219 51.9668 156.03 53.453C155.861 54.9013 155.465 56.1371 154.843 57.1604C154.102 58.5068 153.202 59.6032 152.143 60.4498C151.084 61.2963 149.931 61.9987 148.684 62.5568C147.495 63.0965 146.258 63.588 144.975 64.0313C143.748 64.4561 142.569 64.9291 141.438 65.4504C140.325 65.9338 139.354 66.5619 138.525 67.3348C138.312 67.5613 138.1 67.7879 137.887 68.0144C137.694 68.203 137.511 68.4203 137.336 68.6664C136.817 69.023 136.375 69.2756 136.011 69.424C135.666 69.5346 135.266 69.4727 134.811 69.2385L126.843 65.1397ZM120.75 77.2634C120.333 77.0487 120.06 76.7402 119.931 76.338C119.802 75.9358 119.845 75.526 120.059 75.1087L123.397 68.6208C123.592 68.2414 123.891 67.9872 124.293 67.8583C124.715 67.6914 125.134 67.7153 125.552 67.93L132.836 71.6775C133.254 71.8922 133.517 72.2196 133.626 72.6597C133.793 73.0815 133.779 73.482 133.584 73.8614L130.246 80.3493C130.032 80.7666 129.704 81.03 129.264 81.1395C128.862 81.2684 128.452 81.2255 128.035 81.0108L120.75 77.2634Z" fill="#F87A6E"/>
<path d="M123.812 65.2085L123.847 65.3165L123.87 65.3721C123.73 65.408 123.59 65.4519 123.451 65.5038C122.448 65.8473 121.656 66.5394 121.174 67.4772L117.836 73.965C117.355 74.9002 117.195 75.9947 117.55 77.1013C117.905 78.2078 118.671 79.0054 119.607 79.4864L126.891 83.2339C127.804 83.7034 128.868 83.867 129.947 83.5449C131.076 83.2408 131.95 82.5021 132.469 81.4929L135.807 75.0051C136.317 74.0144 136.36 72.9448 136.031 71.9598C136.274 71.9353 136.522 71.8855 136.774 71.8047L136.865 71.7753L136.954 71.7391C137.553 71.4952 138.161 71.1326 138.751 70.7273L139.118 70.4756L139.375 70.1129C139.473 69.9751 139.561 69.8747 139.635 69.8024L139.674 69.7644L139.711 69.7248L140.03 69.3849L140.286 69.1112C140.882 68.5682 141.591 68.1096 142.434 67.7433L142.459 67.7325L142.483 67.7212C143.538 67.2354 144.641 66.7926 145.793 66.3935C147.144 65.9267 148.451 65.4078 149.711 64.836C151.147 64.1925 152.48 63.3809 153.704 62.4027C155.039 61.3355 156.134 59.9881 157.008 58.4114C157.833 57.036 158.311 55.4605 158.512 53.7556C158.75 51.8616 158.52 49.9264 157.899 47.9814C157.261 45.8786 155.999 43.9086 154.278 42.0614C152.473 40.124 150.011 38.4046 147.006 36.8586C144.195 35.4127 141.426 34.4759 138.71 34.1154C136.079 33.7262 133.569 33.8044 131.214 34.4092C129.003 34.9733 127.008 35.8825 125.264 37.1599L125.242 37.1756L125.221 37.1917C123.534 38.4833 122.176 40.041 121.182 41.8609L121.167 41.8883L121.153 41.9161C120.68 42.8357 120.488 43.9021 120.762 45.0061L120.782 45.0869L120.808 45.1662C121.142 46.2069 121.845 47.027 122.807 47.5221L129.751 51.0939C130.559 51.5098 131.624 51.8234 132.786 51.547L132.88 51.5248L132.971 51.4955C133.779 51.2365 134.473 50.7897 135.059 50.247L135.137 50.175L135.209 50.0966C136.061 49.1617 136.802 48.7675 137.413 48.6339C137.921 48.5228 138.699 48.5721 139.877 49.1779C140.383 49.4385 140.764 49.7544 141.058 50.1189L141.073 50.1381L141.089 50.157C141.385 50.5109 141.475 50.7818 141.499 50.9915L141.505 51.0471L141.514 51.1023C141.525 51.1749 141.544 51.356 141.301 51.7389L141.272 51.7844L141.245 51.831C141.109 52.0685 140.816 52.3922 140.139 52.7147L140.131 52.7188L140.122 52.7229C139.31 53.1175 138.34 53.4876 137.201 53.824C135.936 54.1974 134.605 54.608 133.21 55.0553L133.184 55.0635L133.159 55.0721C131.649 55.5919 130.196 56.2718 128.802 57.1078L128.792 57.1142L128.781 57.1206C127.3 58.0287 126.02 59.2204 124.937 60.6611L124.809 60.8311L124.711 61.0203L124.536 61.3617L124.36 61.7032L124.038 62.3292C123.559 63.2609 123.513 64.2749 123.812 65.2085Z" stroke="#995335" stroke-width="5"/>
</g>
<defs>
<filter id="filter0_d_253_99" x="193.818" y="51.446" width="57.6361" height="59.4968" filterUnits="userSpaceOnUse" color-interpolation-filters="sRGB">
<feFlood flood-opacity="0" result="BackgroundImageFix"/>
<feColorMatrix in="SourceAlpha" type="matrix" values="0 0 0 0 0 0 0 0 0 0 0 0 0 0 0 0 0 0 127 0" result="hardAlpha"/>
<feOffset dx="1" dy="2"/>
<feGaussianBlur stdDeviation="1"/>
<feComposite in2="hardAlpha" operator="out"/>
<feColorMatrix type="matrix" values="0 0 0 0 0 0 0 0 0 0 0 0 0 0 0 0 0 0 0.25 0"/>
<feBlend mode="normal" in2="BackgroundImageFix" result="effect1_dropShadow_253_99"/>
<feBlend mode="normal" in="SourceGraphic" in2="effect1_dropShadow_253_99" result="shape"/>
</filter>
<filter id="filter1_d_253_99" x="24" y="17" width="66.7877" height="63.8125" filterUnits="userSpaceOnUse" color-interpolation-filters="sRGB">
<feFlood flood-opacity="0" result="BackgroundImageFix"/>
<feColorMatrix in="SourceAlpha" type="matrix" values="0 0 0 0 0 0 0 0 0 0 0 0 0 0 0 0 0 0 127 0" result="hardAlpha"/>
<feOffset dx="1" dy="2"/>
<feGaussianBlur stdDeviation="1"/>
<feComposite in2="hardAlpha" operator="out"/>
<feColorMatrix type="matrix" values="0 0 0 0 0 0 0 0 0 0 0 0 0 0 0 0 0 0 0.25 0"/>
<feBlend mode="normal" in2="BackgroundImageFix" result="effect1_dropShadow_253_99"/>
<feBlend mode="normal" in="SourceGraphic" in2="effect1_dropShadow_253_99" result="shape"/>
</filter>
<filter id="filter2_d_253_99" x="117" y="103" width="63.3862" height="63.3862" filterUnits="userSpaceOnUse" color-interpolation-filters="sRGB">
<feFlood flood-opacity="0" result="BackgroundImageFix"/>
<feColorMatrix in="SourceAlpha" type="matrix" values="0 0 0 0 0 0 0 0 0 0 0 0 0 0 0 0 0 0 127 0" result="hardAlpha"/>
<feOffset dx="1" dy="2"/>
<feGaussianBlur stdDeviation="1"/>
<feComposite in2="hardAlpha" operator="out"/>
<feColorMatrix type="matrix" values="0 0 0 0 0 0 0 0 0 0 0 0 0 0 0 0 0 0 0.25 0"/>
<feBlend mode="normal" in2="BackgroundImageFix" result="effect1_dropShadow_253_99"/>
<feBlend mode="normal" in="SourceGraphic" in2="effect1_dropShadow_253_99" result="shape"/>
</filter>
<filter id="filter3_d_253_99" x="30" y="97" width="54" height="55" filterUnits="userSpaceOnUse" color-interpolation-filters="sRGB">
<feFlood flood-opacity="0" result="BackgroundImageFix"/>
<feColorMatrix in="SourceAlpha" type="matrix" values="0 0 0 0 0 0 0 0 0 0 0 0 0 0 0 0 0 0 127 0" result="hardAlpha"/>
<feOffset dx="1" dy="2"/>
<feGaussianBlur stdDeviation="1"/>
<feComposite in2="hardAlpha" operator="out"/>
<feColorMatrix type="matrix" values="0 0 0 0 0 0 0 0 0 0 0 0 0 0 0 0 0 0 0.25 0"/>
<feBlend mode="normal" in2="BackgroundImageFix" result="effect1_dropShadow_253_99"/>
<feBlend mode="normal" in="SourceGraphic" in2="effect1_dropShadow_253_99" result="shape"/>
</filter>
<filter id="filter4_d_253_99" x="110.858" y="31.3765" width="54.2468" height="62.8362" filterUnits="userSpaceOnUse" color-interpolation-filters="sRGB">
<feFlood flood-opacity="0" result="BackgroundImageFix"/>
<feColorMatrix in="SourceAlpha" type="matrix" values="0 0 0 0 0 0 0 0 0 0 0 0 0 0 0 0 0 0 127 0" result="hardAlpha"/>
<feOffset dy="4"/>
<feGaussianBlur stdDeviation="2"/>
<feComposite in2="hardAlpha" operator="out"/>
<feColorMatrix type="matrix" values="0 0 0 0 0 0 0 0 0 0 0 0 0 0 0 0 0 0 0.25 0"/>
<feBlend mode="normal" in2="BackgroundImageFix" result="effect1_dropShadow_253_99"/>
<feBlend mode="normal" in="SourceGraphic" in2="effect1_dropShadow_253_99" result="shape"/>
</filter>
</defs>
</svg>
