<svg width="423" height="504" viewBox="0 0 423 504" fill="none" xmlns="http://www.w3.org/2000/svg">
<path d="M277.439 285.125L247.949 306.742L272.585 340.35L302.075 318.733L277.439 285.125Z" fill="#B7BFB7"/>
<path d="M262.686 295.918L247.93 306.735L272.566 340.343L287.323 329.526L262.686 295.918Z" fill="#909690"/>
<path d="M285.73 293.788L253.76 317.22C250.215 319.829 245.222 319.064 242.612 315.518L225.195 291.746L270.015 258.897L287.432 282.668C290.042 286.214 289.276 291.207 285.73 293.788Z" fill="#2A3E62"/>
<path d="M257.732 304.426L240.314 280.654L225.195 291.746L242.612 315.518C245.222 319.064 250.186 319.829 253.76 317.22L268.88 306.128C265.334 308.766 260.342 307.972 257.732 304.426Z" fill="#22324F"/>
<path d="M411.993 497.351L409.865 498.912C398.121 507.507 381.47 504.954 372.874 493.21L262.923 343.232C260.427 339.828 261.164 335.006 264.568 332.51L296.992 308.738C300.396 306.242 305.219 306.979 307.715 310.383L417.666 460.361C426.318 472.076 423.737 488.728 411.993 497.351Z" fill="#39171C"/>
<path d="M390.377 480.359L280.426 330.382C277.929 326.978 278.667 322.156 282.071 319.659L264.568 332.481C261.164 334.978 260.427 339.8 262.923 343.204L372.874 493.181C381.47 504.925 398.121 507.478 409.865 498.883L411.993 497.323C414.716 495.337 416.9 492.898 418.602 490.231C408.362 492.983 396.986 489.409 390.377 480.359Z" fill="#2B1116"/>
<path d="M257.129 257.129C304.465 209.793 304.465 133.046 257.129 85.7097C209.793 38.3735 133.046 38.3735 85.7097 85.7097C38.3735 133.046 38.3735 209.793 85.7097 257.129C133.046 304.465 209.793 304.465 257.129 257.129Z" fill="#ABD8D3"/>
<path d="M244.967 253.025C190.984 292.597 115.13 280.91 75.5295 226.927C58.4524 203.637 50.9351 176.263 52.24 149.484C46.4248 181.142 53.1194 215.041 73.6573 243.068C113.229 297.051 189.083 308.738 243.066 269.166C273.759 246.67 290.751 212.46 292.453 177.199C287.092 206.531 270.951 233.99 244.967 253.025Z" fill="#91C3C2"/>
<path d="M87.699 57.1777C24.6103 103.416 10.9657 192.064 57.2042 255.124C103.443 318.213 192.09 331.857 255.15 285.619C318.239 239.38 331.884 150.733 285.645 87.6724C239.407 24.5838 150.759 10.9392 87.699 57.1777ZM243.094 269.166C189.112 308.738 113.258 297.051 73.6572 243.068C34.085 189.085 45.7723 113.231 99.755 73.659C153.738 34.0868 229.592 45.7741 269.192 99.7568C308.764 153.74 297.077 229.593 243.094 269.166Z" fill="#2A3E62"/>
<path d="M265.448 118.763C264.341 139.045 217.848 151.243 173.056 148.804C128.264 146.364 85.3162 124.805 86.4225 104.523C87.5288 84.24 133.115 54.9367 177.878 57.3762C222.67 59.8158 266.526 98.4803 265.448 118.763Z" fill="#C2E8E1"/>
<path d="M214.841 40.2708C185.935 31.0515 144.717 29.7182 117.967 46.0577C117.768 46.1996 117.91 46.54 118.137 46.5116C132.434 44.072 145.908 39.4198 160.546 38.9659C178.247 38.3986 195.693 41.2637 212.401 47.079C229.194 52.9226 244.967 61.2342 258.611 72.6945C272.88 84.6938 281.645 99.5299 293.333 113.6C293.645 113.969 294.184 113.657 294.07 113.203C284.482 79.5878 246.952 50.5114 214.841 40.2708Z" fill="#405780"/>
<path d="M248.399 265.421C208.118 292.597 156.262 299.32 112.69 274.555C66.7356 248.429 45.8574 189.879 51.8429 151.499C37.4891 189.936 65.9697 254.273 109.684 278.697C155.071 304.057 208.118 296.512 248.598 265.705C248.768 265.563 248.569 265.308 248.399 265.421Z" fill="#162134"/>
<path d="M272.596 276.343C271.036 275.548 269.277 277.364 269.901 278.896C271.802 283.605 275.32 287.973 278.951 291.547C281.986 294.526 287.007 289.618 284.34 286.356C281.135 282.47 277.078 278.64 272.596 276.343Z" fill="#405780"/>
<path d="M359.513 389.414C342.238 366.04 325.615 339.233 303.29 320.312C302.382 319.546 300.793 320.624 301.332 321.758C314.069 348.055 335.401 371.032 352.961 394.208C372.165 419.569 389.923 446.489 410.347 470.856C412.929 473.948 417.439 470.573 415.368 467.197C398.802 440.163 378.349 414.888 359.513 389.414Z" fill="#532129"/>
</svg>
