<svg width="305" height="321" viewBox="0 0 305 321" fill="none" xmlns="http://www.w3.org/2000/svg">
<path d="M17.4521 278.625L6.27465 273.301C3.64152 272.046 2.71165 268.762 4.2963 266.314L147.752 44.6412L276.485 194.552C276.485 194.552 185.86 224.41 155.697 234.783C124.221 245.606 29.9308 279.334 29.9308 279.334C27.8849 280.038 25.7418 280.326 23.6218 280.206C21.5018 280.084 19.4049 279.557 17.4521 278.625Z" fill="#CB5F00"/>
<path d="M147.971 47.9045L5.94022 267.378C5.48476 268.081 5.35957 268.913 5.58771 269.721C5.81668 270.529 6.35945 271.172 7.11636 271.533L18.2938 276.858C20.0069 277.674 21.837 278.142 23.733 278.25C25.615 278.355 27.5052 278.098 29.2933 277.482C30.2141 277.154 123.934 243.635 155.062 232.93C181.92 223.695 257.618 198.712 273.093 193.607L147.971 47.9045ZM24.5566 282.19C24.2074 282.19 23.859 282.18 23.5106 282.161C21.104 282.024 18.783 281.429 16.6095 280.394L5.43205 275.068C3.66867 274.229 2.35169 272.668 1.81963 270.788C1.28757 268.907 1.59149 266.89 2.65232 265.249L147.53 41.3789L279.875 195.496L277.096 196.411C276.19 196.71 186.139 226.386 156.333 236.635C125.229 247.331 31.5327 280.841 30.5897 281.176C28.6294 281.853 26.6066 282.19 24.5566 282.19Z" fill="#4E172B"/>
<path d="M256.96 187.975C250.283 193.203 219.219 189.422 217.77 207.717C214.991 231.697 211.711 243.239 204.127 243.713C194.836 244.295 194.256 212.168 176.258 212.17C165.773 212.693 151.796 235.636 128.716 241.391C115.446 244.691 109.053 241.845 101.57 241.199C95.3801 240.666 68.8471 241.1 70.6533 271.355C70.4877 284.211 82.1939 317.086 65.9446 318.752C47.5103 320.643 55.8157 284.147 55.4937 276.516C55.3487 263.743 43.3328 259.495 25.802 270.484C14.0233 277.879 7.01017 275.536 3.67778 273.206C2.16725 272.15 1.56848 270.208 2.21749 268.483C7.33385 254.884 41.3322 181.898 71.5329 127.667C108.211 61.7998 125.512 34.0461 125.512 34.0461L217.583 89.2331L256.96 187.975Z" fill="#FDCD50"/>
<path d="M217.583 89.2331L125.512 34.0461C125.512 34.0461 130.588 46.758 129.661 48.2759C194.016 95.9045 232.397 161.784 234.383 193.192C243.443 190.98 253.492 190.691 256.96 187.975L217.583 89.2331Z" fill="#E29517"/>
<path d="M134.266 39.2935L125.512 34.0461C125.512 34.0461 108.211 61.7998 71.5328 127.667C41.3321 181.898 7.33374 254.884 2.21738 268.483C1.56919 270.208 2.16714 272.15 3.67767 273.206C3.89016 273.356 45.1093 191.045 82.4977 123.344C104.931 82.724 128.124 46.0323 134.266 39.2935Z" fill="#F9EBCD"/>
<path d="M133.444 222.01C120.128 228.277 105.247 225.144 91.1483 228.277C79.4199 230.231 68.8907 235.064 55.118 241.75C26.5399 255.622 27.3775 265.808 3.56158 273.11C3.60194 273.141 3.63571 273.176 3.67772 273.206C7.0101 275.536 14.0233 277.879 25.8019 270.484C43.3328 259.495 55.3486 263.744 55.4936 276.516C55.8156 284.146 47.5102 320.643 65.9446 318.752C82.1938 317.086 70.4877 284.211 70.6532 271.355C68.847 241.1 95.3801 240.666 101.57 241.199C109.053 241.845 115.446 244.691 128.716 241.391C151.796 235.636 165.773 212.693 176.258 212.17C194.256 212.168 194.836 244.295 204.127 243.713C211.71 243.239 214.991 231.697 217.77 207.717C219.219 189.422 250.283 193.203 256.96 187.975L250.935 171.358C223.128 179.05 201.328 181.542 178.091 191.463C161.984 198.34 149.894 214.178 133.444 222.01Z" fill="#E29517"/>
<path d="M43.6005 262.221C52.0443 262.221 57.3517 267.69 57.4522 276.496C57.5197 278.089 57.2422 280.759 56.8905 284.139C55.9235 293.442 54.3035 309.012 59.447 314.716C60.9699 316.407 63.0331 317.086 65.7444 316.803C67.7631 316.599 69.2671 315.812 70.3427 314.402C74.367 309.12 72.1819 296.087 70.4259 285.617C69.5175 280.198 68.6584 275.077 68.6938 271.402C68.1091 261.378 70.4729 253.473 75.7193 247.903C83.1707 239.994 94.4543 239.139 98.9596 239.139C100.203 239.139 101.156 239.199 101.738 239.249C103.659 239.416 105.45 239.709 107.345 240.021C110.261 240.502 113.276 240.997 116.879 240.997C120.451 240.997 124.168 240.506 128.244 239.492C140.783 236.363 150.752 227.796 158.762 220.914C165.547 215.082 170.907 210.475 176.161 210.214L176.258 210.211C187.969 210.211 192.905 221.801 196.871 231.115C199.1 236.35 201.406 241.763 203.879 241.763L204.004 241.759C210.566 241.349 213.475 227.763 215.824 207.492C216.918 193.666 232.74 191.17 244.293 189.348C248.372 188.703 252.267 188.09 254.514 187.13L216.007 90.574L126.163 36.7197C121.965 43.5821 104.615 72.2854 73.2435 128.62C42.7077 183.452 8.9094 256.256 4.05002 269.173C3.71645 270.061 4.02448 271.06 4.80034 271.602C6.63537 272.886 8.84186 273.536 11.358 273.536C15.2735 273.536 19.7829 271.952 24.7609 268.827C31.6521 264.505 38.167 262.221 43.6005 262.221ZM64.6029 320.782C61.3109 320.782 58.597 319.625 56.538 317.339C50.2282 310.341 51.8935 294.329 52.9955 283.734C53.3168 280.641 53.5951 277.969 53.5375 276.601C53.4592 269.833 49.9308 266.139 43.6005 266.139C38.9033 266.139 33.1083 268.216 26.8422 272.144C21.2316 275.665 16.0222 277.451 11.358 277.453C7.20367 277.453 4.27816 276.017 2.55596 274.811C0.314055 273.244 -0.579578 270.358 0.384887 267.794C5.2698 254.808 39.1998 181.702 69.8222 126.714C106.105 61.5593 123.675 33.2893 123.848 33.0109L124.867 31.3768L219.155 87.8939L259.324 188.614L258.169 189.518C255.601 191.528 250.88 192.273 244.904 193.215C234.067 194.925 220.578 197.055 219.723 207.871C216.931 231.956 213.642 245.081 204.248 245.667C198.969 245.99 196.319 239.808 193.268 232.648C189.578 223.984 185.395 214.165 176.309 214.129C172.4 214.357 167.262 218.772 161.314 223.883C152.991 231.037 142.632 239.939 129.191 243.291C124.801 244.383 120.774 244.915 116.879 244.915C112.955 244.915 109.78 244.392 106.708 243.886C104.89 243.586 103.172 243.304 101.403 243.152C100.898 243.108 100.064 243.055 98.9596 243.055C94.9625 243.055 84.9744 243.789 78.5699 250.589C74.0803 255.354 72.074 262.301 72.6077 271.239L72.6118 271.311L72.611 271.38C72.5682 274.71 73.4033 279.692 74.2887 284.97C76.2671 296.771 78.5098 310.145 73.4568 316.774C71.7149 319.061 69.2539 320.382 66.1439 320.7C65.6201 320.755 65.1012 320.782 64.6029 320.782Z" fill="#4E172B"/>
<path d="M74.2821 232.996V232.993C73.7789 232.011 74.1915 230.805 75.1881 230.328C88.5761 223.934 98.9011 224.119 108.056 224.281C112.797 224.368 117.274 224.446 121.528 223.508C133.886 220.786 141.198 214.744 149.662 207.751C157.744 201.076 166.861 193.543 181.916 188.218C182.955 187.849 184.098 188.399 184.444 189.445C184.776 190.452 184.248 191.547 183.248 191.901C168.849 196.98 160.369 203.987 152.157 210.77C143.67 217.783 135.654 224.406 122.372 227.332C117.666 228.37 112.962 228.285 107.986 228.197C99.2692 228.041 89.4401 227.866 76.8576 233.872C75.9063 234.326 74.7631 233.934 74.2821 232.996Z" fill="#4E172B"/>
<path d="M219.94 179.091C219.558 178.05 220.104 176.901 221.154 176.554C225.989 174.943 239.589 170.802 258.211 168.322L258.727 172.204C240.62 174.616 227.083 178.726 222.394 180.273C221.391 180.606 220.307 180.083 219.94 179.091Z" fill="#4E172B"/>
<path d="M302.293 194.408C301.047 199.538 298.251 203.956 294.28 206.791C290.059 209.823 285.225 211.584 280.236 212.086C275.819 212.51 271.526 211.295 267.868 208.961C264.595 206.846 261.806 203.84 259.847 200.142V200.132C259.723 199.899 259.598 199.662 259.48 199.42V199.413C259.128 198.701 258.799 197.956 258.508 197.195C233.89 132.398 188.07 79.0325 127.734 44.9147C122.95 42.2033 119.338 38.1848 117.341 33.603C115.781 29.9766 115.241 25.9828 116.112 22.0657C117.278 16.8744 119.823 12.0479 123.686 8.0929C127.093 4.60732 131.886 2.52438 137.125 2.06232C142.382 1.59203 148.06 2.7517 153.096 5.60885C221.428 44.255 273.328 104.693 301.196 178.076C301.314 178.381 301.424 178.688 301.525 179.002C302.301 181.257 302.771 183.569 302.951 185.854C303.187 188.791 302.959 191.699 302.293 194.408Z" fill="#EE871F"/>
<path d="M123.688 16.9147C127.095 13.4292 131.887 11.3462 137.127 10.8817C142.384 10.4122 148.062 11.5719 153.099 14.4307C221.431 53.0768 273.328 113.514 301.198 186.898C301.317 187.203 301.426 187.51 301.528 187.822C302.055 189.359 302.432 190.923 302.681 192.485C303.035 190.343 303.132 188.108 302.951 185.854C302.771 183.569 302.301 181.257 301.525 179.002C301.424 178.688 301.314 178.381 301.196 178.076C273.328 104.693 221.428 44.255 153.096 5.60885C148.06 2.7517 142.382 1.59203 137.125 2.06232C131.886 2.52438 127.093 4.60732 123.686 8.0929C119.823 12.0479 117.278 16.8744 116.112 22.0657C115.496 24.838 115.598 27.6441 116.256 30.3374C117.476 25.3544 119.964 20.7289 123.688 16.9147Z" fill="#F8D1A9"/>
<path d="M261.639 154.345C238.538 133.098 232.397 101.116 147.226 49.0559C139.549 45.0481 121.126 34.8088 117.887 34.7248C119.962 38.8364 123.346 42.429 127.734 44.9147C188.07 79.0325 233.89 132.398 258.508 197.195C258.799 197.957 259.128 198.701 259.48 199.413V199.42C259.599 199.662 259.723 199.899 259.847 200.133V200.142C261.806 203.84 264.595 206.846 267.868 208.961C271.526 211.295 275.819 212.51 280.236 212.086C285.225 211.584 290.059 209.823 294.281 206.792C298.251 203.956 301.047 199.538 302.293 194.408C302.959 191.699 303.187 188.791 302.951 185.854C302.771 183.569 302.301 181.258 301.525 179.002C301.424 178.688 301.314 178.381 301.197 178.076C299.33 173.163 297.349 168.313 295.27 163.519C274.693 157.13 272.475 164.31 261.639 154.345Z" fill="#CB5F00"/>
<path d="M243.831 105.182C243.211 105.182 242.6 104.889 242.22 104.338C234.611 93.3446 225.547 82.5873 215.278 72.3677C214.512 71.6042 214.508 70.3647 215.272 69.5987C216.035 68.8311 217.275 68.8295 218.043 69.593C228.479 79.9789 237.697 90.9199 245.44 102.11C246.056 102.999 245.834 104.218 244.945 104.833C244.604 105.07 244.216 105.182 243.831 105.182Z" fill="#4E172B"/>
<path d="M199.972 57.6628C199.526 57.6628 199.076 57.5112 198.71 57.1991C167.839 31.1421 138.664 17.6989 138.373 17.5663C137.388 17.1166 136.954 15.9552 137.403 14.9702C137.853 13.9876 139.014 13.5511 139.999 14.0024C140.294 14.1375 169.96 27.8072 201.236 54.2068C202.062 54.9053 202.165 56.1407 201.47 56.9668C201.082 57.4247 200.529 57.6628 199.972 57.6628Z" fill="#4E172B"/>
<path d="M261.765 199.566C263.522 202.745 265.993 205.419 268.933 207.315C272.367 209.507 276.265 210.5 280.048 210.135C284.769 209.661 289.3 207.955 293.142 205.204C296.667 202.684 299.242 198.689 300.393 193.949C301.519 189.356 301.264 184.275 299.674 179.638C299.573 179.33 299.468 179.042 299.364 178.761C271.46 105.295 220.549 46.0068 152.138 7.3187C148.214 5.09244 143.809 3.91548 139.396 3.91548C138.694 3.91548 137.989 3.9476 137.3 4.00855C132.442 4.43848 128.103 6.37647 125.082 9.46094C121.57 13.0577 119.127 17.5662 118.022 22.4932C117.284 25.8313 117.67 29.4075 119.137 32.8313C120.991 37.0795 124.388 40.7694 128.7 43.2114C158.92 60.3008 185.603 82.1911 208.002 108.274C230.398 134.352 248.008 164.036 260.342 196.498C260.711 197.459 261.127 198.372 261.573 199.203L261.765 199.566ZM278.486 214.127C274.454 214.127 270.419 212.91 266.817 210.61C263.203 208.28 260.199 204.978 258.12 201.057L257.932 200.692C257.481 199.819 257.062 198.881 256.684 197.896C232.047 133.054 187.124 80.744 126.77 46.6204C121.724 43.7616 117.737 39.4178 115.545 34.3855C113.744 30.1916 113.282 25.7893 114.2 21.6415C115.465 16.0013 118.26 10.8438 122.281 6.72239C125.956 2.96914 131.167 0.620159 136.954 0.107864C137.757 0.0362089 138.577 -3.05176e-05 139.396 -3.05176e-05C144.485 -3.05176e-05 149.559 1.35154 154.067 3.90972C188.266 23.2525 218.459 48.0247 243.808 77.5434C269.154 107.058 289.077 140.65 303.029 177.382C303.155 177.72 303.275 178.053 303.385 178.386C305.209 183.708 305.5 189.571 304.197 194.879C302.826 200.525 299.71 205.324 295.421 208.388C291.025 211.536 285.842 213.49 280.432 214.034C279.783 214.095 279.131 214.127 278.486 214.127Z" fill="#4E172B"/>
<path d="M302.293 194.408C301.047 199.538 298.251 203.956 294.28 206.792C290.059 209.823 285.225 211.584 280.236 212.086C275.819 212.51 271.526 211.295 267.868 208.961C264.595 206.846 261.806 203.84 259.847 200.142V200.133C259.723 199.899 259.598 199.662 259.48 199.42V199.413C259.151 196.359 259.362 193.289 260.083 190.375C261.093 186.333 263.098 182.597 266.113 179.723C270.109 175.906 274.919 173.221 280.181 172.046C284.834 171.004 289.682 171.968 293.88 174.591C297.296 176.705 300.273 179.942 302.379 183.952C302.598 184.578 302.786 185.213 302.951 185.854C303.187 188.791 302.959 191.699 302.293 194.408Z" fill="#CB5F00"/>
<path d="M261.795 199.623C263.543 202.771 266.004 205.425 268.93 207.316C272.36 209.505 276.265 210.496 280.051 210.138C284.773 209.663 289.302 207.955 293.138 205.202C296.665 202.682 299.239 198.686 300.391 193.946C301 191.461 301.209 188.851 301.013 186.179C300.878 185.67 300.734 185.194 300.576 184.735C298.658 181.129 295.989 178.2 292.849 176.256C289.039 173.876 284.656 173.052 280.609 173.956C275.808 175.027 271.264 177.511 267.467 181.137C264.842 183.64 262.944 186.999 261.983 190.849C261.338 193.46 261.137 196.156 261.392 198.867C261.449 198.975 261.506 199.082 261.564 199.193L261.795 199.623ZM278.494 214.129C274.459 214.129 270.419 212.913 266.816 210.612C263.193 208.272 260.191 204.972 258.118 201.058L257.89 200.618C257.829 200.501 257.772 200.388 257.716 200.272L257.521 199.869V199.517C257.184 196.272 257.405 193.038 258.181 189.905C259.326 185.327 261.601 181.318 264.764 178.304C269.076 174.186 274.261 171.361 279.755 170.134C284.795 169.005 290.249 170.013 294.92 172.931C298.681 175.262 301.863 178.759 304.112 183.041L304.227 183.303C304.458 183.963 304.661 184.639 304.848 185.369L304.903 185.698C305.154 188.848 304.918 191.935 304.194 194.874C302.824 200.523 299.706 205.324 295.419 208.385C291.03 211.536 285.846 213.49 280.432 214.034C279.785 214.097 279.136 214.129 278.494 214.129Z" fill="#4E172B"/>
<path d="M4.43054 275.016L2.92578 271.399C14.8057 266.453 21.5908 261.173 28.1518 256.069C34.8989 250.818 41.8651 245.397 54.0819 240.624C55.104 240.226 56.2604 240.74 56.6401 241.769C57.0091 242.768 56.5075 243.882 55.5142 244.27C43.841 248.823 37.3788 253.85 30.5567 259.16C23.7915 264.422 16.7964 269.865 4.43054 275.016Z" fill="#4E172B"/>
<path d="M148.142 110.091C138.603 118.623 124.253 118.142 116.087 109.015C107.922 99.8875 109.034 85.5729 118.57 77.0402C128.109 68.5066 142.459 68.9892 150.626 78.115C158.789 87.2424 157.678 101.559 148.142 110.091Z" fill="#D52319"/>
<path d="M119.433 111.874C111.269 102.749 112.38 88.4317 121.916 79.899C130.108 72.572 141.848 71.8991 150.173 77.6365C141.939 68.981 127.936 68.6606 118.57 77.0402C109.034 85.5729 107.922 99.8875 116.087 109.015C117.24 110.303 118.517 111.412 119.886 112.355C119.735 112.194 119.581 112.038 119.433 111.874Z" fill="#EDA09C"/>
<path d="M149.481 77.8177C147.56 75.6713 145.295 74.0076 142.835 72.8232C143.885 73.6262 144.876 74.5306 145.787 75.5494C153.953 84.6743 152.839 98.9914 143.303 107.524C136.009 114.05 125.902 115.296 117.896 111.442C126.256 117.833 138.525 117.373 146.997 109.793C156.533 101.26 157.647 86.9434 149.481 77.8177Z" fill="#A90400"/>
<path d="M134.344 72.9006C129.05 72.9006 123.911 74.8889 119.878 78.4988C111.159 86.2985 110.116 99.4024 117.548 107.709C121.309 111.914 126.572 114.229 132.368 114.229C137.663 114.229 142.799 112.241 146.834 108.631C155.553 100.832 156.597 87.73 149.164 79.4221C145.403 75.2159 140.14 72.9006 134.344 72.9006ZM132.368 118.146C125.543 118.146 119.078 115.294 114.627 110.32C105.755 100.404 106.941 84.8201 117.265 75.5807C122.02 71.3259 128.086 68.9851 134.344 68.9851C141.17 68.9851 147.634 71.8357 152.085 76.8104C160.957 86.7285 159.772 102.312 149.447 111.549C144.692 115.804 138.626 118.146 132.368 118.146Z" fill="#4E172B"/>
<path d="M146.963 86.9582C145.974 87.8411 144.485 87.7934 143.638 86.8462C142.79 85.8999 142.906 84.4149 143.896 83.5295C144.884 82.6441 146.373 82.6943 147.221 83.6415C148.066 84.5878 147.952 86.0728 146.963 86.9582Z" fill="#EDA4A0"/>
<path d="M127.759 82.6803C126.77 83.5657 125.282 83.5147 124.436 82.5683C123.588 81.6212 123.705 80.137 124.694 79.2516C125.682 78.3678 127.171 78.4164 128.016 79.3636C128.864 80.31 128.748 81.7941 127.759 82.6803Z" fill="#EDA4A0"/>
<path d="M125.016 95.7925C124.027 96.6778 122.538 96.6276 121.691 95.6813C120.846 94.7341 120.959 93.2499 121.949 92.3645C122.939 91.4808 124.426 91.5294 125.273 92.4757C126.121 93.4229 126.005 94.9095 125.016 95.7925Z" fill="#A60B07"/>
<path d="M138.046 81.0479C137.214 81.8238 135.936 81.8049 135.194 81.0101C134.451 80.2153 134.523 78.9419 135.356 78.1677C136.189 77.3919 137.466 77.4092 138.211 78.204C138.953 79.0004 138.879 80.2746 138.046 81.0479Z" fill="#A60B07"/>
<path d="M122.575 104.613C121.742 105.386 120.464 105.37 119.721 104.575C118.979 103.777 119.051 102.506 119.884 101.73C120.717 100.957 121.995 100.973 122.739 101.768C123.481 102.565 123.407 103.837 122.575 104.613Z" fill="#EDA4A0"/>
<path d="M144.888 95.7949C144.055 96.5708 142.778 96.5535 142.036 95.757C141.291 94.9622 141.366 93.6881 142.198 92.9147C143.031 92.1388 144.308 92.1553 145.051 92.9526C145.793 93.7474 145.722 95.0207 144.888 95.7949Z" fill="#EDA4A0"/>
<path d="M146.318 102.293C145.637 102.926 144.593 102.913 143.986 102.261C143.378 101.612 143.438 100.57 144.119 99.9378C144.8 99.3052 145.844 99.3184 146.451 99.9699C147.058 100.619 146.999 101.661 146.318 102.293Z" fill="#EDA4A0"/>
<path d="M135.746 110.278C134.913 111.053 133.636 111.037 132.894 110.24C132.149 109.445 132.222 108.172 133.056 107.397C133.889 106.621 135.166 106.639 135.908 107.436C136.65 108.231 136.579 109.504 135.746 110.278Z" fill="#EDA4A0"/>
<path d="M134.106 82.7429C133.547 83.2618 132.691 83.2511 132.194 82.7182C131.695 82.1845 131.746 81.3329 132.303 80.814C132.862 80.2951 133.718 80.3058 134.216 80.8395C134.713 81.3724 134.662 82.2249 134.106 82.7429Z" fill="#EDA4A0"/>
<path d="M122.195 85.75C121.636 86.2689 120.782 86.2582 120.285 85.7245C119.787 85.1916 119.835 84.3391 120.392 83.8211C120.951 83.3022 121.807 83.3129 122.304 83.8458C122.802 84.377 122.752 85.2311 122.195 85.75Z" fill="#EDA4A0"/>
<path d="M128.263 108.922C127.707 109.441 126.851 109.43 126.352 108.897C125.855 108.363 125.904 107.512 126.463 106.993C127.019 106.474 127.875 106.485 128.373 107.018C128.87 107.55 128.822 108.404 128.263 108.922Z" fill="#A60B07"/>
<path d="M149.202 97.3293C148.644 97.8507 147.79 97.8375 147.292 97.3046C146.795 96.7734 146.843 95.9193 147.399 95.4004C147.959 94.8815 148.814 94.8922 149.312 95.4259C149.809 95.9588 149.761 96.8113 149.202 97.3293Z" fill="#A60B07"/>
<path d="M135.622 89.7899C135.177 90.2033 134.498 90.1926 134.104 89.7709C133.709 89.3468 133.747 88.6706 134.19 88.2588C134.633 87.8461 135.312 87.8544 135.708 88.2777C136.103 88.7019 136.065 89.3789 135.622 89.7899Z" fill="#A60B07"/>
<path d="M118.467 90.994C118.024 91.405 117.344 91.3968 116.949 90.9726C116.555 90.5509 116.593 89.8739 117.036 89.4613C117.478 89.0494 118.157 89.0585 118.554 89.4818C118.948 89.906 118.91 90.5822 118.467 90.994Z" fill="#A60B07"/>
<path d="M136.868 101.732C136.425 102.145 135.746 102.135 135.35 101.713C134.955 101.289 134.993 100.612 135.436 100.201C135.879 99.7878 136.56 99.7969 136.954 100.22C137.349 100.644 137.311 101.321 136.868 101.732Z" fill="#EDA4A0"/>
<path d="M141.408 105.949C140.964 106.36 140.286 106.352 139.891 105.928C139.495 105.505 139.535 104.828 139.978 104.417C140.421 104.003 141.1 104.014 141.494 104.436C141.89 104.859 141.85 105.536 141.408 105.949Z" fill="#A60B07"/>
<path d="M149.017 90.8631C148.574 91.2765 147.895 91.2658 147.499 90.8441C147.105 90.4199 147.142 89.7438 147.586 89.3303C148.03 88.9193 148.709 88.9275 149.104 89.3509C149.498 89.775 149.459 90.4521 149.017 90.8631Z" fill="#EDA4A0"/>
<path d="M85.037 213.441C76.7522 220.852 64.2858 220.436 57.1919 212.505C50.0989 204.578 51.065 192.142 59.3498 184.731C67.6347 177.317 80.101 177.736 87.1949 185.665C94.288 193.592 93.3219 206.028 85.037 213.441Z" fill="#D52319"/>
<path d="M60.5548 214.827C53.4617 206.899 54.427 194.461 62.7127 187.05C69.2745 181.18 78.4571 180.226 85.518 184.02C78.2611 177.722 67.0169 177.872 59.3498 184.731C51.065 192.142 50.0989 204.578 57.1919 212.505C58.667 214.154 60.3777 215.474 62.2317 216.472C61.6461 215.963 61.0836 215.417 60.5548 214.827Z" fill="#EDA09C"/>
<path d="M87.1949 185.665C86.6843 185.093 86.1423 184.566 85.5798 184.074C91.2776 192 89.9409 203.354 82.1774 210.3C74.4889 217.18 63.2028 217.308 55.9474 210.956C56.3313 211.489 56.7455 212.006 57.1919 212.505C64.2858 220.436 76.7522 220.852 85.037 213.441C93.3219 206.028 94.288 193.592 87.1949 185.665Z" fill="#A90400"/>
<path d="M73.0524 181.391C68.5158 181.391 64.1136 183.094 60.6552 186.189C57.0263 189.436 54.8247 193.835 54.4566 198.577C54.0909 203.285 55.5808 207.767 58.6513 211.2C61.87 214.797 66.3744 216.78 71.3351 216.78C75.87 216.78 80.2731 215.075 83.7306 211.983C87.3604 208.735 89.5619 204.335 89.9301 199.595C90.2958 194.887 88.8058 190.402 85.7353 186.969C82.5166 183.373 78.0122 181.391 73.0524 181.391ZM71.3351 220.694C65.3333 220.694 59.6462 218.185 55.7324 213.813C51.9429 209.575 50.1029 204.057 50.5518 198.273C50.999 192.521 53.6593 187.193 58.0443 183.269C62.2217 179.533 67.5514 177.475 73.0524 177.475C79.0533 177.475 84.7396 179.984 88.6534 184.359C92.4438 188.595 94.2837 194.113 93.8349 199.897C93.3876 205.651 90.7273 210.979 86.3424 214.901C82.1649 218.637 76.8353 220.694 71.3351 220.694Z" fill="#4E172B"/>
<path d="M84.0133 193.346C83.1542 194.114 81.8611 194.071 81.1256 193.249C80.3901 192.427 80.4898 191.136 81.3497 190.368C82.2087 189.599 83.501 189.643 84.2365 190.466C84.972 191.286 84.8723 192.576 84.0133 193.346Z" fill="#EDA4A0"/>
<path d="M67.3317 189.628C66.4726 190.398 65.1795 190.354 64.444 189.532C63.7085 188.709 63.809 187.421 64.668 186.651C65.5271 185.884 66.8202 185.926 67.5557 186.748C68.2912 187.571 68.1907 188.861 67.3317 189.628Z" fill="#EDA4A0"/>
<path d="M64.9479 201.02C64.0889 201.788 62.7958 201.746 62.0603 200.923C61.3248 200.101 61.4253 198.811 62.2843 198.043C63.1434 197.274 64.4365 197.318 65.1719 198.14C65.9074 198.963 65.807 200.251 64.9479 201.02Z" fill="#EDA4A0"/>
<path d="M76.2679 188.211C75.5448 188.884 74.4353 188.869 73.7896 188.178C73.1447 187.488 73.2081 186.381 73.9313 185.708C74.6552 185.036 75.7647 185.051 76.4096 185.742C77.0553 186.432 76.9919 187.538 76.2679 188.211Z" fill="#A60B07"/>
<path d="M62.8279 208.681C62.1039 209.355 60.9945 209.341 60.3496 208.649C59.7039 207.958 59.7673 206.851 60.4905 206.178C61.2144 205.505 62.3239 205.52 62.9696 206.212C63.6145 206.903 63.5511 208.008 62.8279 208.681Z" fill="#A60B07"/>
<path d="M82.2112 201.023C81.4872 201.695 80.3778 201.68 79.7329 200.989C79.0871 200.297 79.1506 199.193 79.8737 198.52C80.5977 197.847 81.7071 197.862 82.3528 198.551C82.9977 199.243 82.9343 200.35 82.2112 201.023Z" fill="#EDA4A0"/>
<path d="M83.4533 206.667C82.8619 207.217 81.9551 207.205 81.4271 206.64C80.9 206.074 80.9519 205.172 81.5433 204.622C82.1346 204.071 83.0414 204.084 83.5686 204.649C84.0965 205.214 84.0446 206.117 83.4533 206.667Z" fill="#A60B07"/>
<path d="M74.269 213.604C73.5459 214.277 72.4364 214.262 71.7907 213.57C71.145 212.881 71.2084 211.774 71.9324 211.101C72.6555 210.429 73.7649 210.443 74.4107 211.133C75.0556 211.825 74.993 212.932 74.269 213.604Z" fill="#A60B07"/>
<path d="M72.844 189.686C72.3598 190.135 71.616 190.126 71.1844 189.662C70.752 189.201 70.794 188.458 71.2783 188.007C71.7635 187.558 72.5064 187.566 72.9388 188.03C73.3712 188.494 73.3292 189.234 72.844 189.686Z" fill="#EDA4A0"/>
<path d="M62.4977 192.296C62.0126 192.747 61.2697 192.736 60.8373 192.274C60.4049 191.811 60.4477 191.07 60.932 190.62C61.4171 190.168 62.16 190.179 62.5924 190.643C63.0248 191.104 62.982 191.844 62.4977 192.296Z" fill="#A60B07"/>
<path d="M67.7697 212.425C67.2846 212.876 66.5417 212.866 66.1093 212.404C65.6769 211.94 65.7197 211.2 66.204 210.749C66.6883 210.298 67.432 210.308 67.8645 210.77C68.296 211.234 68.254 211.974 67.7697 212.425Z" fill="#EDA4A0"/>
<path d="M86.6554 202.524C86.1703 202.973 85.4274 202.964 84.995 202.5C84.5626 202.037 84.6054 201.296 85.0897 200.846C85.5748 200.396 86.3177 200.405 86.7493 200.869C87.1825 201.33 87.1397 202.073 86.6554 202.524Z" fill="#EDA4A0"/>
<path d="M74.1603 195.806C73.7757 196.164 73.1859 196.156 72.8425 195.79C72.499 195.421 72.5328 194.833 72.9174 194.476C73.3029 194.118 73.8926 194.126 74.2361 194.492C74.5795 194.86 74.5457 195.448 74.1603 195.806Z" fill="#A60B07"/>
<path d="M59.2584 196.852C58.8738 197.209 58.2841 197.202 57.9406 196.833C57.5972 196.467 57.6309 195.878 58.0156 195.519C58.401 195.163 58.9908 195.169 59.3342 195.538C59.6768 195.906 59.6439 196.494 59.2584 196.852Z" fill="#EDA4A0"/>
<path d="M75.2441 206.18C74.8586 206.539 74.2689 206.53 73.9254 206.163C73.582 205.797 73.6157 205.208 74.0004 204.849C74.3858 204.491 74.9756 204.499 75.319 204.867C75.6616 205.233 75.6279 205.821 75.2441 206.18Z" fill="#EDA4A0"/>
<path d="M80.1217 210.205C79.737 210.564 79.1465 210.555 78.803 210.188C78.4604 209.822 78.4942 209.233 78.8788 208.874C79.2634 208.516 79.8532 208.524 80.1966 208.892C80.5401 209.258 80.5063 209.846 80.1217 210.205Z" fill="#EDA4A0"/>
<path d="M85.7981 196.738C85.4127 197.097 84.8229 197.088 84.4795 196.721C84.1369 196.352 84.1706 195.764 84.5553 195.407C84.9399 195.049 85.5304 195.056 85.8731 195.425C86.2165 195.791 86.1827 196.38 85.7981 196.738Z" fill="#A60B07"/>
<path d="M94.1644 124.869C87.7097 127.344 79.6184 133.277 80.5738 147.442C81.348 152.66 84.0017 152.313 86.6595 152.955C88.8874 153.496 91.2274 154.145 91.2941 156.127C91.3616 158.106 90.3379 163.422 91.2002 165.786C92.0633 168.149 99.2066 168.324 99.2066 168.324C99.2066 168.324 106.324 168.951 107.446 166.698C108.568 164.446 108.146 159.049 108.435 157.088C108.724 155.127 111.121 154.743 113.394 154.457C116.107 154.115 118.708 154.757 120.061 149.66C122.596 135.691 115.218 128.887 109.082 125.706C106.754 124.5 104.25 123.823 101.713 123.68C99.1778 123.538 96.6122 123.93 94.1644 124.869Z" fill="#DBB287"/>
<path d="M84.0734 149.152C83.118 134.987 91.2101 129.052 97.6648 126.579C100.113 125.641 102.679 125.246 105.213 125.389C107.007 125.488 108.785 125.864 110.497 126.498C110.021 126.214 109.548 125.948 109.082 125.706C106.754 124.5 104.25 123.823 101.713 123.68C99.1778 123.538 96.6122 123.93 94.1644 124.869C87.7097 127.344 79.6184 133.277 80.5738 147.442C81.2203 151.802 83.1814 152.277 85.359 152.69C84.7759 151.944 84.3246 150.843 84.0734 149.152Z" fill="#F0DECC"/>
<path d="M94.7006 167.496C93.8374 165.132 94.862 159.817 94.7945 157.834C94.7335 156.049 92.826 155.346 90.8196 154.83C91.103 155.186 91.2768 155.61 91.294 156.125C91.3616 158.106 90.3378 163.422 91.2002 165.786C91.5831 166.833 93.1966 167.449 94.8768 167.812C94.8093 167.709 94.7417 167.608 94.7006 167.496Z" fill="#F0DECC"/>
<path d="M110.975 126.791C115.203 130.751 118.433 137.066 116.626 147.024C115.273 152.121 112.675 151.478 109.962 151.821C107.687 152.108 105.289 152.49 105 154.453C104.712 156.414 105.135 161.809 104.013 164.061C102.89 166.313 95.7729 165.689 95.7729 165.689C95.7729 165.689 93.2461 165.621 91.0157 165.073C91.0651 165.33 91.1228 165.572 91.2002 165.786C92.0633 168.15 99.2066 168.324 99.2066 168.324C99.2066 168.324 106.324 168.951 107.446 166.698C108.568 164.446 108.146 159.049 108.435 157.088C108.724 155.127 111.121 154.743 113.394 154.457C116.107 154.115 118.708 154.757 120.061 149.66C122.338 137.108 116.614 130.344 110.975 126.791Z" fill="#BC7A3F"/>
<path d="M93.0171 165.048C93.5961 165.661 96.5867 166.298 99.2552 166.368L99.3771 166.374C99.3936 166.374 101.108 166.52 102.882 166.395C104.937 166.249 105.593 165.853 105.728 165.756C106.255 164.586 106.308 161.735 106.343 159.836C106.366 158.619 106.385 157.567 106.497 156.803C107.014 153.289 110.855 152.804 113.15 152.515C113.573 152.46 113.993 152.428 114.406 152.399C116.481 152.243 117.352 152.178 118.147 149.232C120.396 136.663 113.974 130.447 108.18 127.445C106.111 126.372 103.9 125.762 101.603 125.634C99.3269 125.507 97.0249 125.87 94.8653 126.696C88.773 129.033 81.6931 134.491 82.5225 147.231C82.9837 150.248 83.8403 150.41 85.8862 150.797C86.293 150.875 86.7073 150.952 87.1208 151.054C89.3685 151.598 93.1308 152.509 93.2518 156.06C93.2774 156.829 93.1794 157.876 93.0649 159.089C92.887 160.985 92.6201 163.829 93.0171 165.048ZM103.158 170.302C101.252 170.437 99.4677 170.308 99.1012 170.281C96.52 170.211 90.5438 169.697 89.361 166.459C88.628 164.449 88.9138 161.406 89.1658 158.725C89.263 157.689 89.3553 156.713 89.3372 156.192C89.3174 155.615 86.9701 155.045 86.1991 154.859C85.8508 154.775 85.5024 154.71 85.1589 154.645C82.7729 154.193 79.5047 153.578 78.6366 147.731L78.6251 147.653L78.6202 147.575C77.542 131.592 87.4568 125.343 93.4635 123.04C96.1386 122.016 98.9966 121.567 101.825 121.725C104.674 121.885 107.419 122.64 109.983 123.968C115.695 126.929 124.848 134.247 121.986 150.01L121.953 150.162C120.436 155.876 117.12 156.122 114.697 156.304C114.349 156.329 113.995 156.354 113.641 156.399C112.852 156.5 110.457 156.802 110.373 157.373C110.297 157.89 110.278 158.87 110.259 159.909C110.209 162.604 110.153 165.657 109.201 167.571C108.399 169.178 106.422 170.07 103.158 170.302Z" fill="#4E172B"/>
<path d="M135.169 178.161C137.158 181.823 133.395 187.714 126.764 191.315C120.132 194.918 113.143 194.87 111.155 191.208C109.164 187.545 112.926 181.655 119.558 178.05C126.189 174.449 133.178 174.498 135.169 178.161Z" fill="#819715"/>
<path d="M121.508 180.842C126.943 177.888 132.615 177.393 135.58 179.326C135.493 178.922 135.366 178.527 135.169 178.161C133.178 174.498 126.189 174.449 119.558 178.05C112.926 181.655 109.164 187.545 111.155 191.208C111.513 191.867 112.039 192.405 112.692 192.831C111.909 189.175 115.538 184.085 121.508 180.842Z" fill="#C9D39A"/>
<path d="M135.169 178.161C134.823 177.526 134.321 177.007 133.703 176.589C134.202 180.218 130.603 185.104 124.816 188.248C119.334 191.227 113.613 191.701 110.67 189.71C110.744 190.237 110.902 190.742 111.155 191.208C113.143 194.87 120.132 194.918 126.764 191.315C133.395 187.714 137.158 181.823 135.169 178.161Z" fill="#5C6802"/>
<path d="M129.012 177.338C126.405 177.338 123.38 178.203 120.493 179.771C114.431 183.067 111.612 187.95 112.876 190.274C113.481 191.389 115.098 192.028 117.312 192.028C119.916 192.028 122.941 191.166 125.83 189.597C131.892 186.301 134.709 181.418 133.448 179.095C132.841 177.979 131.223 177.338 129.012 177.338ZM117.312 195.945C113.562 195.945 110.765 194.594 109.434 192.142C106.889 187.459 110.925 180.514 118.623 176.332C122.075 174.456 125.764 173.422 129.012 173.422C132.759 173.422 135.556 174.774 136.889 177.227C139.434 181.909 135.396 188.855 127.698 193.035C124.246 194.912 120.559 195.945 117.312 195.945Z" fill="#4E172B"/>
<path d="M187.068 101.051C189.143 104.665 186.133 110.288 180.344 113.612C174.555 116.932 168.181 116.692 166.106 113.078C164.032 109.462 167.042 103.838 172.832 100.518C178.62 97.1967 184.996 97.4348 187.068 101.051Z" fill="#819715"/>
<path d="M174.795 103.459C179.587 100.708 184.775 100.406 187.596 102.434C187.49 101.949 187.32 101.485 187.068 101.051C184.996 97.4348 178.62 97.1967 172.832 100.518C167.042 103.838 164.032 109.462 166.106 113.078C166.462 113.7 166.956 114.214 167.542 114.634C166.762 111.083 169.701 106.382 174.795 103.459Z" fill="#C9D39A"/>
<path d="M187.069 101.051C186.714 100.429 186.223 99.9172 185.64 99.4955C186.409 103.046 183.469 107.742 178.382 110.66C173.587 113.411 168.398 113.71 165.575 111.682C165.682 112.171 165.855 112.64 166.106 113.078C168.181 116.692 174.555 116.932 180.344 113.612C186.133 110.288 189.143 104.665 187.069 101.051Z" fill="#5C6802"/>
<path d="M180.909 100.132C178.671 100.132 176.149 100.872 173.806 102.215C168.63 105.186 166.49 109.81 167.803 112.102C168.495 113.306 170.121 113.995 172.267 113.995C174.507 113.995 177.028 113.255 179.371 111.912C184.547 108.943 186.687 104.317 185.371 102.026C184.682 100.822 183.054 100.132 180.909 100.132ZM172.267 117.911C168.679 117.911 165.815 116.504 164.406 114.052C161.756 109.428 165.029 102.738 171.858 98.8185C174.782 97.1399 177.998 96.2166 180.909 96.2166C184.496 96.2166 187.362 97.6226 188.768 100.075C191.42 104.699 188.148 111.391 181.319 115.309C178.394 116.987 175.179 117.911 172.267 117.911Z" fill="#4E172B"/>
<path d="M217.199 157.202C218.472 160.325 214.919 164.725 209.263 167.032C203.608 169.336 197.991 168.673 196.717 165.548C195.444 162.423 198.996 158.022 204.654 155.718C210.309 153.413 215.925 154.077 217.199 157.202Z" fill="#819715"/>
<path d="M205.934 158.674C210.608 156.768 215.246 156.896 217.439 158.76C217.467 158.218 217.399 157.694 217.199 157.202C215.925 154.077 210.309 153.413 204.654 155.718C198.996 158.022 195.444 162.423 196.717 165.548C196.939 166.09 197.297 166.553 197.758 166.945C197.908 164.044 201.168 160.616 205.934 158.674Z" fill="#C9D39A"/>
<path d="M217.199 157.202C216.964 156.626 216.581 156.135 216.077 155.73C216.217 158.708 212.87 162.359 207.892 164.388C203.278 166.268 198.691 166.17 196.466 164.375C196.485 164.78 196.565 165.175 196.717 165.548C197.991 168.673 203.608 169.336 209.263 167.032C214.919 164.725 218.472 160.325 217.199 157.202Z" fill="#5C6802"/>
<path d="M211.175 156.304C209.364 156.304 207.363 156.727 205.392 157.531C200.569 159.496 197.792 162.994 198.53 164.807C198.935 165.802 200.588 166.445 202.741 166.445C204.552 166.445 206.553 166.022 208.525 165.217C210.921 164.24 213.03 162.773 214.306 161.193C215.307 159.954 215.71 158.737 215.385 157.94C214.979 156.945 213.327 156.304 211.175 156.304ZM202.741 170.363C198.815 170.363 195.96 168.877 194.904 166.286C193.196 162.098 197.154 156.658 203.913 153.904C206.35 152.912 208.862 152.386 211.175 152.386C215.1 152.386 217.956 153.873 219.012 156.462C219.908 158.663 219.32 161.216 217.352 163.654C215.649 165.764 213.039 167.608 210.002 168.845C207.565 169.838 205.054 170.363 202.741 170.363Z" fill="#4E172B"/>
<path d="M48.8791 225.061C50.8747 227.782 48.5002 232.915 43.5766 236.528C38.653 240.141 33.0433 240.864 31.0476 238.144C29.052 235.425 31.4257 230.293 36.3501 226.679C41.2737 223.066 46.8834 222.342 48.8791 225.061Z" fill="#819715"/>
<path d="M37.9817 229.137C42.2407 226.012 47.0078 225.053 49.5108 226.609C49.412 226.04 49.2118 225.515 48.8791 225.061C46.8834 222.342 41.2737 223.066 36.3501 226.679C31.4257 230.293 29.052 235.425 31.0476 238.144C31.3169 238.511 31.6571 238.811 32.0475 239.055C31.5566 236.209 33.8784 232.148 37.9817 229.137Z" fill="#C9D39A"/>
<path d="M48.8791 225.061C48.4549 224.484 47.8611 224.07 47.1528 223.799C48.1329 226.649 45.779 231.092 41.3734 234.326C37.495 237.17 33.1989 238.214 30.5707 237.204C30.686 237.539 30.8376 237.858 31.0476 238.144C33.0433 240.864 38.653 240.141 43.5766 236.528C48.5002 232.915 50.8747 227.782 48.8791 225.061Z" fill="#5C6802"/>
<path d="M44.9199 225.373C42.7406 225.373 39.9699 226.451 37.5081 228.258C35.4194 229.79 33.7334 231.726 32.881 233.569C32.2122 235.015 32.1175 236.293 32.6265 236.987C33.1668 237.723 34.3503 237.835 35.0068 237.835C37.1853 237.835 39.9559 236.755 42.4177 234.948C44.5065 233.418 46.1924 231.481 47.0449 229.636C47.7137 228.19 47.8092 226.914 47.3002 226.219C46.7591 225.483 45.5763 225.373 44.9199 225.373ZM35.0068 241.75C32.5927 241.75 30.6267 240.881 29.4687 239.302C28.0628 237.387 28.0126 234.767 29.3262 231.924C30.4645 229.464 32.5474 227.039 35.1913 225.099C38.3466 222.784 41.8923 221.456 44.9199 221.456C47.3331 221.456 49.3 222.324 50.4571 223.901C51.8631 225.818 51.9141 228.439 50.5996 231.281C49.4614 233.742 47.3784 236.167 44.7346 238.106C41.5793 240.422 38.0336 241.75 35.0068 241.75Z" fill="#4E172B"/>
<path d="M170.603 129.406C163.696 129.129 153.917 131.384 149.198 144.773C147.849 149.871 150.423 150.601 152.612 152.243C154.444 153.617 156.337 155.138 155.617 156.985C154.895 158.832 151.853 163.311 151.712 165.821C151.573 168.335 158.065 171.318 158.065 171.318C158.065 171.318 164.356 174.705 166.277 173.079C168.198 171.456 169.941 166.329 170.981 164.643C172.02 162.954 174.376 163.55 176.577 164.185C179.204 164.942 181.338 166.559 184.595 162.412C192.445 150.582 188.357 141.418 183.976 136.071C182.314 134.042 180.282 132.43 178.009 131.297C175.735 130.163 173.222 129.512 170.603 129.406Z" fill="#DBB287"/>
<path d="M151.739 147.727C156.458 134.336 166.237 132.081 173.142 132.36C175.763 132.465 178.274 133.117 180.547 134.249C182.156 135.051 183.641 136.098 184.962 137.357C184.638 136.908 184.309 136.475 183.976 136.071C182.314 134.042 180.282 132.43 178.009 131.297C175.735 130.163 173.223 129.512 170.603 129.406C163.696 129.129 153.917 131.384 149.198 144.773C148.07 149.034 149.683 150.244 151.522 151.483C151.28 150.568 151.3 149.38 151.739 147.727Z" fill="#F0DECC"/>
<path d="M154.252 168.775C154.394 166.263 157.434 161.786 158.155 159.939C158.807 158.273 157.331 156.875 155.693 155.606C155.81 156.046 155.805 156.504 155.617 156.985C154.895 158.832 151.853 163.311 151.712 165.821C151.65 166.935 152.891 168.139 154.288 169.136C154.267 169.016 154.246 168.893 154.252 168.775Z" fill="#F0DECC"/>
<path d="M185.287 137.817C187.604 143.122 188.078 150.199 182.483 158.633C179.225 162.781 177.091 161.164 174.465 160.407C172.263 159.772 169.907 159.175 168.868 160.865C167.829 162.551 166.083 167.675 164.164 169.3C162.244 170.926 155.952 167.54 155.952 167.54C155.952 167.54 153.656 166.479 151.823 165.096C151.769 165.349 151.726 165.596 151.712 165.821C151.573 168.335 158.065 171.318 158.065 171.318C158.065 171.318 164.356 174.705 166.277 173.079C168.198 171.456 169.941 166.329 170.981 164.643C172.02 162.954 174.376 163.55 176.577 164.185C179.204 164.942 181.338 166.559 184.595 162.412C191.649 151.781 189.061 143.305 185.287 137.817Z" fill="#BC7A3F"/>
<path d="M153.672 165.862C153.961 166.656 156.458 168.421 158.882 169.539L158.992 169.593C159.007 169.6 160.523 170.412 162.202 170.998C164.149 171.677 164.909 171.572 165.069 171.535C166.016 170.669 167.192 168.071 167.974 166.34C168.476 165.229 168.91 164.272 169.315 163.616C171.177 160.59 174.899 161.663 177.121 162.304C177.53 162.423 177.929 162.558 178.321 162.692C180.288 163.372 181.112 163.654 183.008 161.263C190.039 150.607 186.594 142.359 182.459 137.311C180.984 135.508 179.191 134.075 177.133 133.049C175.092 132.033 172.836 131.455 170.525 131.362C164.004 131.101 155.344 133.318 151.07 145.35C150.303 148.302 151.027 148.789 152.753 149.953C153.096 150.185 153.445 150.421 153.787 150.676C155.636 152.063 158.733 154.388 157.44 157.698C157.16 158.417 156.656 159.34 156.072 160.409C155.159 162.079 153.788 164.586 153.672 165.862ZM160.913 174.694C160.911 174.694 160.913 174.694 160.911 174.694C159.108 174.066 157.52 173.244 157.194 173.072C154.849 171.991 149.563 169.157 149.757 165.712C149.877 163.578 151.343 160.896 152.633 158.53C153.133 157.619 153.603 156.76 153.792 156.272C154.002 155.734 152.07 154.284 151.435 153.809C151.149 153.592 150.854 153.396 150.565 153.2C148.551 151.844 145.793 149.984 147.305 144.271L147.326 144.195L147.351 144.121C152.677 129.014 164.255 127.192 170.682 127.449C173.543 127.565 176.347 128.282 178.882 129.545C181.437 130.816 183.659 132.596 185.49 134.829C189.567 139.805 195.083 150.145 186.228 163.494L186.134 163.622C182.485 168.27 179.341 167.188 177.045 166.395C176.714 166.283 176.379 166.165 176.035 166.066C175.272 165.847 172.95 165.179 172.648 165.67C172.375 166.113 171.97 167.006 171.542 167.954C170.433 170.41 169.174 173.193 167.542 174.576C166.171 175.733 164.002 175.774 160.913 174.694Z" fill="#4E172B"/>
<path d="M129.956 128.574C130.249 129.312 129.296 130.382 127.827 130.962C126.359 131.544 124.932 131.413 124.639 130.675C124.345 129.935 125.301 128.864 126.768 128.284C128.238 127.705 129.665 127.833 129.956 128.574Z" fill="#E29517"/>
<path d="M155.161 118.988C155.452 119.728 154.499 120.797 153.031 121.379C151.562 121.959 150.135 121.83 149.841 121.09C149.551 120.35 150.504 119.281 151.973 118.702C153.441 118.119 154.868 118.248 155.161 118.988Z" fill="#E29517"/>
<path d="M140.309 151.336C140.602 152.074 139.647 153.146 138.179 153.725C136.71 154.305 135.282 154.177 134.989 153.439C134.698 152.698 135.651 151.628 137.121 151.048C138.588 150.468 140.016 150.596 140.309 151.336Z" fill="#E29517"/>
<path d="M113.156 201.803C113.449 202.542 112.494 203.614 111.027 204.194C109.556 204.774 108.129 204.645 107.838 203.905C107.545 203.167 108.498 202.096 109.968 201.516C111.435 200.934 112.863 201.065 113.156 201.803Z" fill="#E29517"/>
<path d="M66.6109 226.834C66.9033 227.572 65.9495 228.644 64.481 229.224C63.0125 229.804 61.5851 229.675 61.2928 228.937C61.0004 228.197 61.9541 227.125 63.4226 226.545C64.8912 225.965 66.3185 226.095 66.6109 226.834Z" fill="#E29517"/>
<path d="M201.839 139.384C202.129 140.123 201.176 141.192 199.709 141.772C198.239 142.354 196.812 142.226 196.519 141.486C196.228 140.745 197.181 139.676 198.65 139.095C200.118 138.515 201.545 138.643 201.839 139.384Z" fill="#E29517"/>
<path d="M45.4496 208.489C45.7419 209.229 44.7882 210.298 43.3197 210.88C41.8511 211.46 40.423 211.331 40.1306 210.591C39.839 209.85 40.792 208.781 42.2613 208.2C43.7298 207.62 45.1572 207.749 45.4496 208.489Z" fill="#E29517"/>
<path d="M73.1233 154.769C73.5425 155.115 73.3251 156.069 72.639 156.9C71.9521 157.733 71.056 158.125 70.6376 157.782C70.2184 157.436 70.4358 156.481 71.1219 155.648C71.8088 154.818 72.7049 154.423 73.1233 154.769Z" fill="#E29517"/>
<path d="M123.77 162.562C124.19 162.908 123.972 163.863 123.285 164.694C122.6 165.526 121.704 165.921 121.284 165.575C120.866 165.229 121.081 164.274 121.769 163.443C122.457 162.611 123.353 162.216 123.77 162.562Z" fill="#E29517"/>
<path d="M168.137 92.0581C168.556 92.4041 168.339 93.3595 167.652 94.1905C166.965 95.0232 166.069 95.4177 165.651 95.0718C165.231 94.7259 165.448 93.7705 166.136 92.9402C166.821 92.1067 167.717 91.713 168.137 92.0581Z" fill="#E29517"/>
<path d="M129.018 58.5251C129.435 58.871 129.218 59.8264 128.533 60.6566C127.846 61.4901 126.95 61.8838 126.532 61.5379C126.113 61.1928 126.329 60.2374 127.017 59.4064C127.702 58.5737 128.599 58.1792 129.018 58.5251Z" fill="#E29517"/>
<path d="M116.938 116.405C117.358 116.751 117.141 117.706 116.456 118.537C115.768 119.37 114.872 119.764 114.453 119.418C114.035 119.072 114.253 118.117 114.938 117.287C115.625 116.454 116.521 116.059 116.938 116.405Z" fill="#E29517"/>
<path d="M131.898 208.474C132.194 208.93 131.702 209.775 130.798 210.363C129.893 210.952 128.921 211.061 128.626 210.606C128.328 210.15 128.82 209.304 129.724 208.716C130.629 208.128 131.601 208.019 131.898 208.474Z" fill="#E29517"/>
<path d="M208.765 175.352C208.967 175.856 208.32 176.589 207.318 176.992C206.317 177.393 205.343 177.311 205.14 176.807C204.938 176.303 205.585 175.569 206.585 175.166C207.587 174.766 208.563 174.848 208.765 175.352Z" fill="#E29517"/>
<path d="M25.4239 248.358C25.7204 248.814 25.2279 249.659 24.3244 250.249C23.4208 250.837 22.4473 250.945 22.1508 250.49C21.8551 250.036 22.3468 249.188 23.2512 248.6C24.1547 248.012 25.1274 247.904 25.4239 248.358Z" fill="#E29517"/>
<path d="M104.488 176.467C105.139 177.336 104.271 179.088 102.546 180.38C100.823 181.675 98.8978 182.021 98.2463 181.152C97.5948 180.284 98.4638 178.531 100.188 177.239C101.911 175.944 103.836 175.598 104.488 176.467Z" fill="#E29517"/>
<path d="M158.646 182.833C158.99 183.862 157.616 185.251 155.57 185.937C153.527 186.622 151.592 186.343 151.246 185.315C150.902 184.285 152.279 182.896 154.322 182.21C156.365 181.525 158.301 181.804 158.646 182.833Z" fill="#E29517"/>
<path d="M70.1484 169.895C70.7842 170.774 69.8848 172.511 68.1387 173.775C66.3927 175.04 64.4613 175.35 63.8254 174.471C63.1896 173.591 64.089 171.856 65.8351 170.591C67.5803 169.328 69.5117 169.016 70.1484 169.895Z" fill="#E29517"/>
<path d="M105.081 107.984C105.876 108.722 105.335 110.603 103.87 112.184C102.407 113.766 100.575 114.451 99.7783 113.713C98.9818 112.975 99.5229 111.096 100.986 109.515C102.451 107.933 104.283 107.248 105.081 107.984Z" fill="#E29517"/>
<path d="M101.717 217.163C102.071 218.19 100.71 219.592 98.673 220.298C96.637 221.005 94.6982 220.745 94.3424 219.718C93.9874 218.694 95.3497 217.289 97.3865 216.585C99.4233 215.879 101.361 216.138 101.717 217.163Z" fill="#E29517"/>
<path d="M187.446 171.325C188.308 172.588 186.971 175 184.463 176.709C181.951 178.422 179.218 178.784 178.359 177.519C177.496 176.256 178.833 173.844 181.342 172.134C183.853 170.422 186.586 170.062 187.446 171.325Z" fill="#E29517"/>
<path d="M192.388 117.339C193.139 118.672 191.602 120.962 188.955 122.452C186.31 123.943 183.556 124.072 182.805 122.739C182.055 121.406 183.592 119.118 186.238 117.626C188.884 116.135 191.638 116.007 192.388 117.339Z" fill="#E29517"/>
</svg>
