<svg width="344" height="363" viewBox="0 0 344 363" fill="none" xmlns="http://www.w3.org/2000/svg">
<path d="M136.926 20.8088C132.336 12.1924 124.769 -6.34833 132.76 -14.9389C137.406 -19.9331 145.191 -12.0531 148.101 -8.79158C152.386 -3.987 154.567 2.31344 155.831 8.51149C158.172 20.0136 156.285 32.1969 155.913 43.9012C155.748 43.8237 155.578 43.7623 155.404 43.724C147.667 37.5651 141.598 29.5756 136.926 20.8088ZM335.081 327.256C329.455 323.72 322.699 323.495 317.069 326.046L261.093 290.87L260.348 292.052V275.994H231.185L97.0796 191.721L92.7353 198.632L92.1895 199.502L89.4409 203.875L204.206 275.994H65.0351C56.0056 275.994 47.7151 271.002 43.4964 263.04C39.2314 255.08 39.755 245.425 44.8044 237.955L139.544 97.6802C142.688 93.0021 147.303 89.6293 152.541 88.0034C155.352 90.0941 158.93 91.5258 163.356 92.0333C166.021 92.3388 166.712 89.3737 165.483 87.6001C171.325 89.0185 176.523 92.5738 179.971 97.6802L280.41 246.665L280.455 246.733L301.015 231.574L186.876 62.3235C181.077 53.7534 171.645 48.4538 161.394 47.9365C161.369 47.9133 161.344 47.8955 161.316 47.875C161.458 47.5438 161.54 47.1654 161.543 46.7353C161.663 30.6289 165.194 13.0044 158.54 -2.31573C154.332 -12.0077 142.561 -27.0679 130.454 -20.3115C118.135 -13.4368 125.451 8.56848 129.375 18.0236C134.032 29.2453 141.451 39.6095 150.888 47.38C150.414 48.0754 149.963 48.793 149.534 49.5294C142.733 51.7678 136.758 56.2154 132.642 62.3235L5.59312 250.439C-1.173 260.448 -1.84436 273.4 3.81945 284.09C9.49395 294.781 20.6159 301.455 32.7155 301.455H244.725L251.691 305.832L249.927 308.64L305.904 343.813C306.048 349.993 309.182 355.983 314.808 359.518C323.716 365.114 335.478 362.432 341.076 353.523C346.676 344.616 343.991 332.852 335.081 327.256Z" fill="#76787A"/>
<path d="M182.208 68.5857C183.067 69.7619 184.354 71.4688 185.934 73.6823C189.093 78.1067 193.688 84.3724 199.057 91.988C201.735 95.7997 204.641 99.9294 207.711 104.297C210.757 108.68 213.966 113.305 217.288 118.09C220.584 122.89 223.989 127.85 227.45 132.892C230.884 137.95 234.372 143.088 237.862 148.228C241.319 153.389 244.778 158.55 248.178 163.627C251.597 168.699 254.877 173.741 258.098 178.597C264.511 188.318 270.437 197.431 275.462 205.279C280.514 213.109 284.596 219.722 287.514 224.308C288.972 226.602 290.071 228.436 290.844 229.674C291.608 230.914 292.014 231.575 292.014 231.575C292.014 231.575 291.553 230.948 290.689 229.777C289.833 228.601 288.544 226.893 286.965 224.679C283.803 220.258 279.206 213.994 273.837 206.376C268.447 198.774 262.217 189.864 255.607 180.274C252.316 175.472 248.866 170.539 245.447 165.47C242.012 160.411 238.525 155.271 235.035 150.134C231.579 144.973 228.124 139.813 224.721 134.731C221.342 129.635 218.019 124.618 214.803 119.763C211.614 114.892 208.53 110.182 205.606 105.715C202.708 101.231 199.968 96.9938 197.439 93.0796C192.389 85.2477 188.302 78.64 185.385 74.0518C183.926 71.7582 182.825 69.923 182.057 68.6881C181.291 67.4477 180.883 66.7871 180.883 66.7871C180.883 66.7871 181.346 67.4112 182.208 68.5857ZM157.455 47.9748C157.344 48.1956 157.203 48.4128 157.023 48.6248C152.173 54.3188 149.031 63.9921 149.922 72.1348C152.696 71.2132 155.634 70.728 158.638 70.728C167.849 70.728 176.425 75.2895 181.597 82.93L290.03 239.569L280.409 246.665L280.455 246.733L301.015 231.575L186.876 62.3235C181.077 53.7552 171.645 48.4538 161.394 47.9365C160.844 47.9062 160.295 47.8929 159.741 47.8929C158.975 47.8929 158.212 47.9205 157.455 47.9748Z" fill="#9DA0A1"/>
<path d="M260.316 285.25V275.994H231.185L245.919 285.25H260.316Z" fill="#AEB0B1"/>
<path d="M144.69 74.5024C141.154 76.5681 138.07 79.4236 135.712 82.93L28.2235 242.095C22.492 250.556 21.9239 261.518 26.7223 270.558C31.5215 279.598 40.9259 285.25 51.1726 285.25H218.938L204.206 275.994H65.0351C56.0056 275.994 47.7151 271.002 43.4964 263.04C39.2314 255.08 39.755 245.425 44.8044 237.955L139.544 97.6803C142.688 93.0021 147.303 89.6293 152.542 88.0035C148.181 84.758 145.667 79.9302 144.69 74.5024Z" fill="#AEB0B1"/>
<path d="M181.597 82.93C176.425 75.2895 167.849 70.728 158.638 70.728C155.634 70.728 152.696 71.2132 149.922 72.1348C150.709 79.3399 154.652 85.3483 163.356 86.3464C164.323 86.4586 165.032 86.9483 165.483 87.6001C171.325 89.0185 176.522 92.5738 179.971 97.6803L280.409 246.665L290.03 239.569L181.597 82.93Z" fill="#AEB0B1"/>
<path d="M254.221 290.468L259.329 293.678L259.477 293.438V290.402L254.221 290.468Z" fill="white"/>
<path d="M33.6398 293.244L235.705 295.788L227.768 290.801L33.6398 293.244Z" fill="white"/>
<path d="M185.385 74.0518C188.302 78.64 192.389 85.2477 197.439 93.0796C199.968 96.9938 202.708 101.231 205.606 105.715C208.531 110.182 211.614 114.892 214.803 119.763C218.019 124.618 221.342 129.635 224.721 134.731C228.124 139.813 231.579 144.973 235.035 150.134C238.525 155.271 242.012 160.411 245.447 165.47C248.866 170.539 252.316 175.472 255.607 180.274C262.217 189.864 268.447 198.774 273.838 206.376C279.206 213.994 283.803 220.258 286.965 224.679C288.544 226.893 289.833 228.601 290.689 229.777C291.553 230.948 292.014 231.575 292.014 231.575C292.014 231.575 291.608 230.914 290.844 229.674C290.071 228.436 288.972 226.602 287.514 224.308C284.596 219.722 280.514 213.109 275.463 205.279C270.437 197.431 264.511 188.318 258.098 178.597C254.877 173.742 251.597 168.699 248.178 163.627C244.778 158.55 241.319 153.389 237.862 148.228C234.372 143.088 230.884 137.95 227.45 132.892C223.989 127.85 220.584 122.89 217.288 118.09C213.966 113.305 210.757 108.68 207.711 104.297C204.641 99.9294 201.735 95.7998 199.057 91.988C193.688 84.3724 189.093 78.1067 185.934 73.6823C184.354 71.4688 183.067 69.7619 182.208 68.5857C181.346 67.4112 180.883 66.7871 180.883 66.7871C180.883 66.7871 181.292 67.4478 182.057 68.6881C182.825 69.9231 183.926 71.7582 185.385 74.0518Z" fill="white"/>
<path d="M33.6397 293.244L227.768 290.801L235.705 295.788L33.6397 293.244ZM253.171 303.477L90.9207 201.521L92.1895 199.502L89.4409 203.875L204.206 275.994L218.937 285.25H51.1725C40.9258 285.25 31.5215 279.598 26.7222 270.558C21.9239 261.518 22.492 250.556 28.2234 242.095L135.712 82.9299C138.07 79.4236 141.154 76.5681 144.69 74.5023C143.232 66.4104 145.189 56.9945 149.534 49.5294C142.733 51.7652 136.758 56.2154 132.642 62.3235L5.59312 250.439C-1.173 260.448 -1.84436 273.4 3.81945 284.09C9.49395 294.781 20.6159 301.455 32.7155 301.455H244.725L251.691 305.832L254.08 302.034L253.171 303.477Z" fill="#9DA0A1"/>
<path d="M254.08 302.034L259.329 293.678L254.221 290.468L259.477 290.402V293.438L260.348 292.052V275.994H260.316V285.25H245.919L231.185 275.994L97.0795 191.721L92.7352 198.633L254.984 300.589L254.08 302.034Z" fill="#9DA0A1"/>
<path d="M324.978 345.405C322.132 349.938 316.144 351.306 311.61 348.454C307.869 346.104 306.283 341.62 307.443 337.577L254.69 304.432L256.505 301.542L308.954 334.5C311.936 330.435 317.595 329.307 321.929 332.031C326.463 334.883 327.83 340.868 324.978 345.405ZM335.081 327.256C329.455 323.72 322.699 323.495 317.069 326.046L261.093 290.87L260.348 292.052L259.477 293.438L259.329 293.678L254.08 302.034L251.691 305.832L249.927 308.64L305.904 343.813C306.048 349.993 309.182 355.983 314.808 359.518C323.716 365.114 335.478 362.432 341.076 353.523C346.676 344.616 343.991 332.852 335.081 327.256Z" fill="#6F7172"/>
<path d="M253.17 303.477L254.08 302.034L254.984 300.589L92.7353 198.633L92.1895 199.502L90.9207 201.521L253.17 303.477Z" fill="white"/>
<path d="M308.954 334.5L256.505 301.542L254.69 304.432L307.443 337.577C307.687 336.718 308.058 335.879 308.558 335.083C308.683 334.883 308.815 334.687 308.954 334.5Z" fill="#9DA0A1"/>
<path d="M321.929 332.031C317.595 329.307 311.936 330.435 308.954 334.5C308.815 334.687 308.683 334.883 308.558 335.083C308.058 335.879 307.687 336.718 307.443 337.577C306.283 341.62 307.869 346.104 311.61 348.454C316.144 351.306 322.132 349.938 324.978 345.405C327.83 340.868 326.463 334.883 321.929 332.031Z" fill="#9FA1A3"/>
<path d="M136.926 20.8088C132.336 12.1924 124.769 -6.34833 132.76 -14.9389C137.406 -19.9331 145.191 -12.0531 148.101 -8.79158C152.386 -3.987 154.567 2.31345 155.831 8.5115C158.172 20.0136 156.285 32.1969 155.913 43.9012C155.748 43.8237 155.578 43.765 155.404 43.7213C147.667 37.5651 141.598 29.5756 136.926 20.8088ZM144.69 74.5023C145.667 79.9302 148.181 84.7579 152.541 88.0034C155.352 90.0941 158.93 91.5258 163.356 92.0334C166.021 92.3388 166.712 89.3737 165.483 87.6001C165.032 86.9483 164.323 86.4586 163.356 86.3464C154.652 85.3483 150.709 79.3399 149.922 72.1348C149.032 63.9921 152.173 54.3188 157.023 48.6248C157.203 48.4128 157.344 48.1956 157.455 47.9748C158.212 47.9204 158.975 47.8928 159.741 47.8928C160.295 47.8928 160.844 47.9062 161.394 47.9365C161.369 47.916 161.344 47.8955 161.316 47.8724C161.458 47.5438 161.54 47.1654 161.543 46.7353C161.663 30.6289 165.194 13.0044 158.54 -2.31572C154.332 -12.0077 142.561 -27.0679 130.454 -20.3115C118.135 -13.4368 125.451 8.56848 129.375 18.0236C134.032 29.2453 141.451 39.6095 150.888 47.38C150.414 48.0754 149.963 48.793 149.534 49.5294C145.189 56.9945 143.232 66.4104 144.69 74.5023Z" fill="#76787A"/>
</svg>
