<svg width="293" height="210" viewBox="0 0 293 210" fill="none" xmlns="http://www.w3.org/2000/svg">
<path d="M292.755 178.831C292.755 196.167 274.198 197.993 274.198 197.993C230.897 209.854 135.078 209.635 135.078 209.635V209.417L135.035 209.635C135.035 209.635 61.8596 209.854 18.5583 197.993C18.5583 197.993 0 196.167 0 178.831V30.8003C0 13.4642 18.5583 11.641 18.5583 11.641C61.8596 -0.220549 135.035 0.00028459 135.035 0.00028459V0.214217L135.078 0.00028459C135.078 0.00028459 230.897 -0.220549 274.198 11.641C274.198 11.641 292.755 13.4642 292.755 30.8003V178.831Z" fill="#E09F51"/>
<path d="M210.209 193.277C213.834 193.277 216.774 190.339 216.774 186.712V23.7709C216.774 20.1458 213.834 17.2059 210.209 17.2059C84.929 3.74544 19.6321 21.6295 19.6321 21.6295C16.0049 21.6295 13.0664 24.5693 13.0664 28.1945V181.036C13.0664 184.661 16.0049 187.602 19.6321 187.602C19.6321 187.602 114.895 203.236 210.209 193.277Z" fill="#320506"/>
<path d="M275.67 186.712C275.67 186.712 282.888 184.647 282.888 175.697V32.4911C282.888 32.4911 282.888 25.6066 274.226 23.5411C274.226 23.5411 261.238 18.7214 233.091 18.7214C233.091 18.7214 222.988 18.4916 222.988 31.8038V180.976C222.988 180.976 222.76 190.156 229.484 190.615C229.484 190.615 251.011 191.532 275.67 186.712Z" fill="#320506"/>
<path d="M205.318 159.094C205.318 172.128 193.787 173.501 193.787 173.501C166.88 182.419 107.343 182.255 107.343 182.255V182.093L107.315 182.255C107.315 182.255 61.8457 182.419 34.9406 173.501C34.9406 173.501 23.409 172.128 23.409 159.094V47.7852C23.409 34.7505 34.9406 33.3779 34.9406 33.3779C61.8457 24.4597 107.315 24.6239 107.315 24.6239V24.7868L107.343 24.6239C107.343 24.6239 166.88 24.4597 193.787 33.3779C193.787 33.3779 205.318 34.7505 205.318 47.7852V159.094Z" fill="#59A5A1"/>
<path d="M176.171 29.318C146.965 24.5162 107.343 24.6239 107.343 24.6239L107.315 24.7868V24.6239C107.315 24.6239 61.8457 24.4597 34.9406 33.3779C34.9406 33.3779 23.409 34.7505 23.409 47.7852V159.094C23.409 172.128 34.9406 173.501 34.9406 173.501C61.8457 182.419 107.315 182.255 107.315 182.255L107.343 182.093V182.255C107.343 182.255 146.965 182.362 176.171 177.563V29.318Z" fill="#C55E4D"/>
<path d="M149.319 26.2532C127.295 24.5694 107.343 24.6239 107.343 24.6239L107.315 24.7868V24.6239C107.315 24.6239 61.8457 24.4597 34.9406 33.3779C34.9406 33.3779 23.409 34.7505 23.409 47.7852V159.094C23.409 172.128 34.9406 173.501 34.9406 173.501C61.8457 182.419 107.315 182.255 107.315 182.255L107.343 182.093V182.255C107.343 182.255 127.295 182.31 149.319 180.626V26.2532Z" fill="#F2685D"/>
<path d="M125.224 24.96C114.617 24.6046 107.343 24.6239 107.343 24.6239L107.315 24.7868V24.6239C107.315 24.6239 61.8457 24.4597 34.9406 33.3779C34.9406 33.3779 23.409 34.7505 23.409 47.7852V159.094C23.409 172.128 34.9406 173.501 34.9406 173.501C61.8457 182.419 107.315 182.255 107.315 182.255L107.343 182.093V182.255C107.343 182.255 114.617 182.273 125.224 181.919V24.96Z" fill="#678C42"/>
<path d="M101.126 24.7053C87.7854 25.011 55.7942 26.4651 34.9406 33.3779C34.9406 33.3779 23.409 34.7505 23.409 47.7852V159.094C23.409 172.128 34.9406 173.501 34.9406 173.501C55.7942 180.414 87.7854 181.868 101.126 182.172V24.7053Z" fill="#00B9C5"/>
<path d="M74.9632 26.1684C61.5932 27.3767 46.5413 29.5319 34.9406 33.3779C34.9406 33.3779 23.409 34.7505 23.409 47.7852V159.094C23.409 172.128 34.9406 173.501 34.9406 173.501C46.5413 177.347 61.5932 179.503 74.9632 180.711V26.1684Z" fill="#FABA51"/>
<path d="M50.8662 29.3994C45.2059 30.4684 39.7734 31.7754 34.9406 33.3778C34.9406 33.3778 23.409 34.7505 23.409 47.7851V159.094C23.409 172.128 34.9406 173.501 34.9406 173.501C39.7734 175.102 45.2059 176.411 50.8662 177.48V29.3994Z" fill="#EBD3B4"/>
<path d="M272.444 51.5393C272.444 62.3126 263.711 71.0465 252.938 71.0465C242.163 71.0465 233.431 62.3126 233.431 51.5393C233.431 40.7661 242.163 32.0315 252.938 32.0315C263.711 32.0315 272.444 40.7661 272.444 51.5393Z" fill="#602A2B"/>
<path d="M254.198 43.6211C254.198 44.3188 253.634 44.884 252.938 44.884C252.24 44.884 251.675 44.3188 251.675 43.6211V33.295C251.675 32.5967 252.24 32.0315 252.938 32.0315C253.634 32.0315 254.198 32.5967 254.198 33.295V43.6211Z" fill="#EBD3B4"/>
<path d="M254.315 26.5817C254.315 27.3429 253.698 27.9578 252.938 27.9578C252.177 27.9578 251.56 27.3429 251.56 26.5817C251.56 25.8219 252.177 25.205 252.938 25.205C253.698 25.205 254.315 25.8219 254.315 26.5817Z" fill="#EBD3B4"/>
<path d="M254.315 74.4315C254.315 75.1913 253.698 75.8082 252.938 75.8082C252.177 75.8082 251.56 75.1913 251.56 74.4315C251.56 73.6703 252.177 73.0554 252.938 73.0554C253.698 73.0554 254.315 73.6703 254.315 74.4315Z" fill="#EBD3B4"/>
<path d="M264.536 29.5354C264.208 30.2206 263.382 30.5105 262.698 30.1799C262.013 29.8514 261.725 29.0281 262.053 28.3429C262.382 27.6576 263.204 27.3691 263.89 27.6983C264.575 28.0268 264.865 28.8501 264.536 29.5354Z" fill="#EBD3B4"/>
<path d="M243.822 72.6703C243.494 73.3556 242.67 73.6441 241.983 73.3149C241.299 72.9864 241.009 72.1631 241.34 71.4778C241.668 70.7926 242.492 70.5027 243.177 70.8333C243.863 71.1618 244.153 71.9851 243.822 72.6703Z" fill="#EBD3B4"/>
<path d="M272.47 36.6234C271.877 37.0982 271.011 37.003 270.536 36.4095C270.061 35.816 270.156 34.9499 270.748 34.4731C271.343 33.9983 272.209 34.0949 272.684 34.687C273.161 35.2805 273.064 36.148 272.47 36.6234Z" fill="#EBD3B4"/>
<path d="M235.127 66.5381C234.533 67.015 233.665 66.9197 233.19 66.3242C232.715 65.7327 232.81 64.8653 233.404 64.3898C233.998 63.915 234.865 64.0102 235.34 64.6037C235.816 65.1972 235.718 66.0647 235.127 66.5381Z" fill="#EBD3B4"/>
<path d="M276.556 46.4478C275.816 46.6189 275.074 46.1579 274.905 45.4161C274.733 44.6756 275.193 43.9372 275.935 43.7639C276.677 43.5928 277.415 44.0538 277.587 44.7957C277.758 45.5361 277.297 46.2766 276.556 46.4478Z" fill="#EBD3B4"/>
<path d="M229.941 57.2493C229.201 57.4204 228.461 56.9574 228.288 56.2176C228.118 55.4771 228.579 54.7366 229.32 54.5655C230.059 54.3943 230.8 54.8553 230.971 55.5972C231.143 56.3377 230.682 57.0761 229.941 57.2493Z" fill="#EBD3B4"/>
<path d="M275.986 57.0726C275.242 56.9063 274.776 56.1699 274.942 55.4274C275.108 54.6855 275.844 54.219 276.587 54.3832C277.329 54.5516 277.797 55.2866 277.629 56.0285C277.463 56.7703 276.728 57.2382 275.986 57.0726Z" fill="#EBD3B4"/>
<path d="M229.288 46.6299C228.547 46.4636 228.081 45.7266 228.245 44.9833C228.411 44.2428 229.148 43.7763 229.89 43.9406C230.632 44.1069 231.099 44.8432 230.932 45.5858C230.768 46.3276 230.03 46.7941 229.288 46.6299Z" fill="#EBD3B4"/>
<path d="M270.874 66.4021C270.275 65.9321 270.172 65.0647 270.644 64.4677C271.114 63.8722 271.979 63.77 272.576 64.24C273.174 64.7113 273.276 65.5774 272.806 66.1744C272.335 66.7699 271.468 66.8741 270.874 66.4021Z" fill="#EBD3B4"/>
<path d="M233.298 36.7732C232.701 36.3032 232.598 35.4378 233.068 34.8388C233.542 34.2433 234.408 34.1411 235.003 34.6111C235.6 35.0824 235.702 35.9464 235.232 36.5455C234.761 37.1424 233.895 37.2452 233.298 36.7732Z" fill="#EBD3B4"/>
<path d="M262.222 72.5999C261.888 71.916 262.171 71.0907 262.855 70.7567C263.536 70.4233 264.361 70.7056 264.697 71.3874C265.029 72.0713 264.748 72.8946 264.064 73.23C263.382 73.564 262.558 73.2831 262.222 72.5999Z" fill="#EBD3B4"/>
<path d="M241.179 29.6257C240.844 28.9432 241.128 28.1185 241.81 27.7825C242.494 27.4491 243.318 27.7314 243.652 28.4153C243.986 29.0971 243.703 29.9225 243.022 30.2579C242.338 30.5919 241.513 30.3076 241.179 29.6257Z" fill="#EBD3B4"/>
<path d="M259.565 51.5394C259.565 55.1997 256.597 58.1657 252.938 58.1657C249.279 58.1657 246.311 55.1997 246.311 51.5394C246.311 47.8804 249.279 44.9123 252.938 44.9123C256.597 44.9123 259.565 47.8804 259.565 51.5394Z" fill="#320506"/>
<path d="M242.126 98.6438C242.126 101.716 239.633 104.209 236.56 104.209C233.485 104.209 230.995 101.716 230.995 98.6438C230.995 95.5715 233.485 93.0788 236.56 93.0788C239.633 93.0788 242.126 95.5715 242.126 98.6438Z" fill="#602A2B"/>
<path d="M257.365 98.6438C257.365 101.716 254.874 104.209 251.8 104.209C248.728 104.209 246.235 101.716 246.235 98.6438C246.235 95.5715 248.728 93.0788 251.8 93.0788C254.874 93.0788 257.365 95.5715 257.365 98.6438Z" fill="#602A2B"/>
<path d="M273.56 98.6438C273.56 101.716 271.07 104.209 267.995 104.209C264.921 104.209 262.429 101.716 262.429 98.6438C262.429 95.5715 264.921 93.0788 267.995 93.0788C271.07 93.0788 273.56 95.5715 273.56 98.6438Z" fill="#602A2B"/>
<path d="M277.064 116.086C277.064 116.941 276.37 117.635 275.515 117.635H229.04C228.187 117.635 227.491 116.941 227.491 116.086C227.491 115.229 228.187 114.537 229.04 114.537H275.515C276.37 114.537 277.064 115.229 277.064 116.086Z" fill="#602A2B"/>
<path d="M277.064 123.658C277.064 124.515 276.37 125.209 275.515 125.209H229.04C228.187 125.209 227.491 124.515 227.491 123.658C227.491 122.803 228.187 122.109 229.04 122.109H275.515C276.37 122.109 277.064 122.803 277.064 123.658Z" fill="#602A2B"/>
<path d="M277.064 131.232C277.064 132.087 276.37 132.781 275.515 132.781H229.04C228.187 132.781 227.491 132.087 227.491 131.232C227.491 130.377 228.187 129.683 229.04 129.683H275.515C276.37 129.683 277.064 130.377 277.064 131.232Z" fill="#602A2B"/>
<path d="M277.064 138.806C277.064 139.661 276.37 140.353 275.515 140.353H229.04C228.187 140.353 227.491 139.661 227.491 138.806C227.491 137.951 228.187 137.256 229.04 137.256H275.515C276.37 137.256 277.064 137.951 277.064 138.806Z" fill="#602A2B"/>
<path d="M277.064 146.379C277.064 147.234 276.37 147.927 275.515 147.927H229.04C228.187 147.927 227.491 147.234 227.491 146.379C227.491 145.523 228.187 144.83 229.04 144.83H275.515C276.37 144.83 277.064 145.523 277.064 146.379Z" fill="#602A2B"/>
<path d="M277.064 153.953C277.064 154.808 276.37 155.502 275.515 155.502H229.04C228.187 155.502 227.491 154.808 227.491 153.953C227.491 153.098 228.187 152.404 229.04 152.404H275.515C276.37 152.404 277.064 153.098 277.064 153.953Z" fill="#602A2B"/>
<path d="M277.064 161.525C277.064 162.382 276.37 163.074 275.515 163.074H229.04C228.187 163.074 227.491 162.382 227.491 161.525C227.491 160.67 228.187 159.975 229.04 159.975H275.515C276.37 159.975 277.064 160.67 277.064 161.525Z" fill="#602A2B"/>
<path d="M277.064 169.099C277.064 169.955 276.37 170.648 275.515 170.648H229.04C228.187 170.648 227.491 169.955 227.491 169.099C227.491 168.244 228.187 167.549 229.04 167.549H275.515C276.37 167.549 277.064 168.244 277.064 169.099Z" fill="#602A2B"/>
<path d="M277.064 176.673C277.064 177.529 276.37 178.222 275.515 178.222H229.04C228.187 178.222 227.491 177.529 227.491 176.673C227.491 175.817 228.187 175.123 229.04 175.123H275.515C276.37 175.123 277.064 175.817 277.064 176.673Z" fill="#602A2B"/>
</svg>
