<svg width="363" height="292" viewBox="0 0 363 292" fill="none" xmlns="http://www.w3.org/2000/svg">
<path d="M41.3768 26.686C41.3768 26.686 42.8305 11.3847 22.4438 7.28679C2.06854 3.14794 0.857121 0 0.857121 0C0.857121 0 -8.35138 47.7698 33.5976 40.2669L41.3768 26.686Z" fill="#F48475"/>
<path d="M321.651 26.686C321.651 26.686 320.197 11.3847 340.567 7.28679C360.948 3.14794 362.141 0 362.141 0C362.141 0 371.356 47.7698 329.42 40.2669L321.651 26.686Z" fill="#F48475"/>
<path d="M41.3768 264.674C41.3768 264.674 42.8305 279.942 22.4438 284.067C2.06854 288.183 0.857121 291.327 0.857121 291.327C0.857121 291.327 -8.35138 243.56 33.5976 251.083L41.3768 264.674Z" fill="#DC6A5F"/>
<path d="M321.651 264.674C321.651 264.674 320.197 279.942 340.567 284.067C360.948 288.183 362.141 291.327 362.141 291.327C362.141 291.327 371.356 243.56 329.42 251.083L321.651 264.674Z" fill="#DC6A5F"/>
<path d="M335.368 249.873C339.434 264.581 327.323 278.773 308.493 280.261C220.099 286.609 142.529 286.609 54.1228 280.261C35.2944 278.773 23.1759 264.581 27.2363 249.873C46.6773 179.605 46.6773 116.86 27.2363 46.5898C23.1759 31.8846 35.2944 17.6945 54.1228 16.1998C142.516 9.85689 220.099 9.85689 308.493 16.1998C327.323 17.6945 339.434 31.8846 335.368 46.5898C315.944 116.86 315.944 179.605 335.368 249.873Z" fill="#F48475"/>
<path d="M335.368 46.5898C339.434 31.8846 327.323 17.6945 308.493 16.1998C299.441 15.5506 290.523 14.9684 281.666 14.4638C289.421 33.9414 293.783 55.0497 293.783 77.0329C293.783 171.142 215.242 249.675 121.117 249.675C89.2616 249.675 59.1689 240.652 33.3126 225.084C31.5617 233.257 29.5371 241.506 27.2363 249.873C23.1759 264.581 35.2944 278.773 54.1228 280.261C142.529 286.609 220.099 286.609 308.493 280.261C327.323 278.773 339.434 264.581 335.368 249.873C315.944 179.605 315.944 116.86 335.368 46.5898Z" fill="#DC6A5F"/>
</svg>
