<svg width="265" height="257" viewBox="0 0 265 257" fill="none" xmlns="http://www.w3.org/2000/svg">
<path d="M113.272 19.193C100.691 12.8013 88.9877 11.5191 88.9491 11.5101C87.4067 11.3141 85.1562 11.1671 83.9327 11.192C81.7789 11.192 81.656 11.2416 78.1813 12.733C33.9864 31.7723 7.52981 69.9054 3.42576 113.062C2.71564 120.692 2.93578 117.708 5.2849 113.698C10.6436 104.228 19.8937 94.7326 34.2576 83.9663C43.801 76.8223 47.765 74.5201 60.6858 68.6722C89.4935 55.6271 105.839 58.6801 113.346 57.2689C114.08 57.1239 114.08 57.1239 114.227 54.995C114.643 48.6067 117.849 42.2197 123.036 37.4484C127.304 33.5845 130.599 32.521 130.5 32.2119C130.421 32.0297 122.739 24.0037 113.272 19.193Z" fill="#8AC9CF"/>
<path d="M131.747 31.6729C132.462 31.4396 144.772 25.1597 160.279 29.154C163.853 30.0622 163.684 29.5053 165.932 30.3762C166.837 30.7192 167.597 30.9628 167.622 30.94C167.727 30.7281 168.891 25.7532 173.812 20.7851C179.932 14.5983 183.159 13.3672 183.159 12.8565C183.159 12.5439 153.58 0.339363 121.127 2.60222C103.124 3.93481 93.0621 7.5689 87.8725 9.13544C87.8345 9.12854 98.6623 9.3404 112.073 16.1849C123.552 22.0342 127.915 28.152 131.747 31.6729Z" fill="#E89451"/>
<path d="M189.717 16.9177C187.127 15.6617 184.774 14.5679 184.506 14.4955C183.942 14.3492 181.349 16.4284 177.091 20.4656C172.172 25.0554 170.628 28.1506 168.355 31.3306C169.176 31.8088 173.871 33.6624 178.803 38.3055C191.307 50.0179 187.244 60.0493 189.277 60.3039C189.618 60.3529 192.653 60.9167 196.006 61.5758C206.675 63.6813 215.118 66.519 224.146 71.0219C231.904 74.9121 235.721 77.5076 245.681 85.7281C251.457 90.4995 252.655 91.6002 255.787 94.9306C256.887 96.128 257.794 97.0348 257.794 96.9851C257.794 96.9105 257.278 95.2715 256.667 93.3386C246.492 61.5613 222.932 33.0193 189.717 16.9177ZM100.572 154.319C100.951 153.311 107.036 136.284 109.43 131.439C112.943 124.476 116.982 117.759 119.537 112.842C127.894 96.8705 136.859 86.648 136.885 86.6093C136.846 86.5741 119.904 80.8856 115.254 64.6357C114.298 61.2949 114.1 58.097 113.908 58.2246C113.835 58.2964 112.685 58.4696 111.339 58.6146C87.4901 61.3391 77.9439 63.2472 55.7184 73.7624C41.251 80.6379 28.1377 90.5547 17.8372 101.022C5.8328 113.189 4.63616 119.989 2.78806 123.609C3.3636 126.109 0.770189 164.052 29.8781 201.473C41.8473 216.793 57.2987 229.4 74.0704 237.786C77.3249 239.401 77.4477 239.451 77.545 238.912C77.7003 238.296 78.534 231.678 79.1854 229.075C79.9756 226.178 80.8368 220.583 82.4393 215.201C83.9878 209.997 92.0766 177.084 100.572 154.319ZM162.897 31.7226C161.841 30.9717 156.585 30.1677 154.993 30.009C132.435 27.7579 114.868 42.3032 116.6 58.7629C118.588 77.6697 140.508 89.6851 160.035 85.9489C173.149 83.5142 184.548 74.2972 186.121 61.4046C187.516 49.6101 179.073 38.0363 165.222 32.8233C164.291 32.4824 163.265 31.9931 162.897 31.7226Z" fill="#FFE266"/>
<path d="M236.872 81.4225C229.163 75.1826 217.419 69.1863 205.401 65.3438C199.839 63.5633 194.162 62.3798 188.982 61.2349C188.542 61.1355 188.299 61.551 188.299 62.4322C188.299 62.7255 188.028 64.0491 187.711 65.321C184.386 78.442 172.429 84.1698 171.927 84.6039L174.056 87.5141C176.462 90.7714 184.838 104.442 186.341 107.09C192.336 117.541 195.858 126.081 200.314 140.934C206.61 162.046 209.624 182.13 207.875 204.238C206.277 224.404 201.148 235.391 201.707 234.974C244.825 209.796 269.952 160.438 260.338 107.85C259.996 105.892 259.531 103.983 259.359 103.591C258.847 102.638 254.563 97.5468 251.895 94.7326C249.694 92.4338 241.472 85.1415 236.872 81.4225Z" fill="#8AC9CF"/>
<path d="M204.145 168.611C201.504 148.335 193.447 122.543 182.009 103.175C180.242 100.206 171.706 85.0939 170.998 85.0939C169.932 85.2989 157.313 92.2151 141.12 87.8812C139.848 87.5403 138.697 87.2698 138.526 87.2698C138.353 87.2698 136.885 89.1055 135.272 91.3566C127.113 102.721 120.998 115.588 118.265 120.551C112.465 130.902 109.211 138.193 104.732 150.991C98.957 167.434 97.4884 171.741 96.9508 173.724C95.2076 179.997 79.6499 233.536 79.6499 239.843C79.6499 240.843 79.7417 240.615 84.569 242.608C96.3387 247.452 109.04 250.659 122.229 252.127C127.905 252.738 143.909 252.738 149.268 252.127C178.382 248.719 197.699 237.26 198.013 236.858C198.543 236.248 201.928 232.082 204.193 218.822C204.211 218.724 206.192 205.992 206.972 197.72C207.253 194.742 205.955 182.501 204.145 168.611Z" fill="#E89451"/>
<path d="M71.3023 23.9175C62.135 28.5019 55.4361 37.2172 57.9937 39.5525C59.6582 41.1197 62.4469 39.8955 68.3935 35.0013C75.1228 29.4963 77.0557 28.3445 83.0755 26.2901C88.3369 24.5041 90.6618 22.9141 90.6618 21.1032C90.6618 16.4547 75.8308 21.6526 71.3023 23.9175Z" fill="#D7F4F3"/>
<path d="M141.673 34.3229C133.793 35.9695 125.483 46.0098 127.326 48.3872C128.503 49.9227 130.203 48.773 134.2 44.1072C135.813 42.2218 143.353 38.6126 144.227 38.4732C147.155 37.9149 151.702 37.7237 153.016 36.6692C155.908 34.3477 146.086 33.4009 141.673 34.3229Z" fill="#FCF8D0"/>
<path d="M260.773 102.144C260.773 102.191 251.937 92.9873 246.42 87.9164C243.053 84.8213 243.624 83.6502 236.491 80.0161C233.594 67.8723 218.754 49.9137 215.471 45.1968C208.499 35.1814 194.629 25.5178 180.257 17.5519C182.638 15.443 184.099 14.3899 184.506 14.4955C184.774 14.5679 187.127 15.6617 189.717 16.9177C222.932 33.0193 247.274 59.9292 257.448 91.7044C258.061 93.6387 260.773 102.07 260.773 102.144Z" fill="#EFBB56"/>
<path d="M201.707 234.974C201.208 235.347 205.229 226.659 207.239 210.49C214.77 202.92 229.267 178.824 233.048 167.572C250.229 116.418 237.598 84.8213 236.872 81.4226C241.472 85.1415 249.694 92.4339 251.895 94.7326C254.565 97.5489 258.847 102.636 259.359 103.591C259.533 103.983 259.996 105.892 260.338 107.85C269.952 160.44 244.825 209.794 201.707 234.974Z" fill="#59A9AD"/>
<path d="M183.159 12.8565C183.159 13.2188 181.538 13.9427 178.411 16.5396C169.478 11.6923 160.46 7.52129 152.879 4.34473C168.707 6.96437 183.159 12.5611 183.159 12.8565Z" fill="#C96539"/>
<path d="M204.193 213.396C202.812 222.756 199.05 235.668 198.013 236.858C197.699 237.26 178.383 248.719 149.268 252.127C143.909 252.738 127.906 252.738 122.229 252.127C117.873 251.641 113.571 250.968 109.339 250.105C138.933 243.752 178.605 236.596 204.193 213.396Z" fill="#C96539"/>
<path d="M201.707 234.974C201.208 235.347 205.229 226.659 207.239 210.49C210.231 186.414 207.186 163.967 200.314 140.934C195.86 126.081 192.336 117.541 186.341 107.09C184.836 104.44 176.462 90.7714 174.056 87.5141L171.927 84.6039C172.429 84.1698 184.386 78.442 187.711 65.321C188.028 64.0491 188.299 62.7255 188.299 62.4322C188.299 61.551 188.542 61.1355 188.982 61.2349C202.001 64.1071 212.179 66.588 225.692 74.0446C229.919 76.3772 233.732 78.8781 236.872 81.4225C241.472 85.1415 249.694 92.4338 251.895 94.7326C254.565 97.5489 258.847 102.636 259.359 103.591C259.533 103.983 259.996 105.892 260.338 107.85C269.952 160.44 244.825 209.794 201.707 234.974ZM149.268 252.127C143.909 252.738 127.905 252.738 122.229 252.127C108.604 250.611 95.9301 247.284 84.5689 242.608C79.741 240.617 79.6499 240.843 79.6499 239.843C79.6499 233.536 95.2076 179.997 96.9508 173.724C97.4884 171.741 98.9556 167.436 104.732 150.991C109.211 138.193 112.464 130.902 118.265 120.551C120.998 115.588 127.113 102.723 135.272 91.3566C136.885 89.1055 138.353 87.2698 138.526 87.2698C138.697 87.2698 139.848 87.5403 141.12 87.8812C157.312 92.2151 169.932 85.2989 170.998 85.0939C171.702 85.0939 180.099 99.9656 182.009 103.175C196.211 127.227 205.161 160.248 205.819 187.516C206.476 214.731 198.961 235.771 198.013 236.858C197.699 237.26 178.382 248.719 149.268 252.127ZM77.5451 238.912C77.4484 239.451 77.3263 239.401 74.0704 237.786C57.2995 229.4 41.8459 216.795 29.8781 201.473C0.768839 164.053 3.36363 126.109 2.78809 123.609C4.63757 119.986 5.83076 113.191 17.8372 101.022C28.0659 90.6285 41.082 80.7159 55.7184 73.7624C77.9433 63.2472 87.4895 61.337 111.339 58.6146C112.684 58.4683 113.836 58.2985 113.908 58.2247C114.098 58.1004 114.327 61.3957 115.254 64.6357C119.904 80.8856 136.846 86.5742 136.885 86.6094C136.859 86.648 127.895 96.8705 119.537 112.842C116.982 117.759 112.943 124.476 109.43 131.439C107.036 136.284 100.952 153.313 100.572 154.319C94.3919 170.879 93.6652 175.326 91.7626 181.603C82.5366 212.571 79.242 228.868 79.1854 229.075C78.534 231.678 77.6996 238.294 77.5451 238.912ZM3.42574 113.062C7.52911 69.9054 33.987 31.7723 78.1813 12.733C81.6567 11.2416 81.7789 11.192 83.9327 11.192C92.3023 11.0174 105.084 15.0331 113.272 19.193C122.739 24.0037 130.421 32.0283 130.5 32.2119C130.598 32.5196 127.303 33.5831 123.036 37.4484C117.848 42.2198 114.642 48.6067 114.227 54.995C114.079 57.1219 114.079 57.1219 113.346 57.2689C105.909 58.6643 89.4859 55.6326 60.6858 68.6722C47.7657 74.5201 43.801 76.8223 34.2576 83.9663C19.893 94.7326 10.6442 104.226 5.28489 113.698C2.93508 117.71 2.71494 120.692 3.42574 113.062ZM121.127 2.60222C125.336 2.311 138.06 2.50561 142.538 2.97005C165.78 5.38127 183.159 12.6232 183.159 12.8565C183.159 13.372 179.935 14.5928 173.812 20.7851C168.909 25.7387 167.719 30.7419 167.622 30.94C167.595 30.9628 166.839 30.7192 165.932 30.3762C163.684 29.5053 163.853 30.0622 160.279 29.154C156.292 28.1257 152.474 27.7331 148.167 27.8801C138.369 28.2355 133.375 31.1415 131.747 31.6729C127.915 28.152 123.553 22.0342 112.073 16.1849C98.6623 9.3404 87.8345 9.12854 87.8725 9.13544C93.0621 7.5689 103.125 3.93481 121.127 2.60222ZM186.121 61.4047C184.55 74.2972 173.149 83.5142 160.035 85.9489C140.51 89.6872 118.588 77.6718 116.6 58.7629C114.868 42.3033 132.435 27.76 154.993 30.009C156.587 30.1678 161.841 30.9738 162.897 31.7226C163.265 31.9931 164.293 32.4824 165.222 32.8233C179.073 38.0363 187.516 49.6101 186.121 61.4047ZM184.506 14.4955C184.774 14.5679 187.127 15.6618 189.717 16.9178C222.932 33.0193 246.492 61.5634 256.667 93.3386C257.278 95.2715 257.794 96.9105 257.794 96.9851C257.794 97.2715 242.498 80.3694 225.104 71.5043C215.426 66.5722 206.698 63.6848 196.006 61.5758C192.653 60.9168 189.618 60.3529 189.277 60.3039C187.244 60.0493 191.305 50.0179 178.803 38.3055C173.871 33.6625 169.176 31.8075 168.355 31.3306C171.66 26.7055 172.143 24.7442 180.257 17.552C182.638 15.443 184.099 14.3899 184.506 14.4955ZM188.47 12.784C181.707 9.48394 186.357 12.8489 179.024 9.7241C162.38 2.58842 141.008 -0.789645 122.718 0.155799C58.0855 3.49453 5.49744 50.7881 0.340975 115.24C-1.81836 143.454 6.24344 174.952 25.5222 201.058C83.0576 279.093 204.241 273.838 250.28 188.454C282.67 128.317 261.405 48.4155 188.47 12.784Z" fill="#331C14"/>
</svg>
