<svg width="177" height="288" viewBox="0 0 177 288" fill="none" xmlns="http://www.w3.org/2000/svg">
<path d="M28.8573 152.478C18.6127 115.558 11.6644 74.9211 1.41985 37.9942C-0.09759 32.5198 -1.30283 25.7748 2.78483 21.9049C4.77421 20.0172 7.56223 19.3492 10.2196 18.7466C37.9256 12.4736 65.6245 6.17144 93.3523 1.52588e-05C92.619 3.10751 93.3523 9.96868 93.5411 11.0795C94.0421 14.0273 94.4196 16.1401 97.1641 17.5632C99.3059 18.6813 101.883 18.6668 104.207 18.0351C106.915 17.3018 109.471 15.8424 111.91 14.4774C111.7 19.8212 111.562 24.359 113.5 28.7153C116.114 34.589 120.884 36.1573 126.642 33.0498C127.31 40.4265 129.691 47.5563 131.317 54.7587C133.212 63.1446 135.209 71.5087 137.249 79.8655C140.582 93.5007 144.081 107.092 147.487 120.706C147.951 122.565 148.481 124.423 148.837 126.304L28.8573 152.478Z" fill="#9E412C"/>
<path d="M176.209 143.308L155.785 177.621L138.07 156.188C138.07 156.188 161.267 139.59 162.429 139.489C163.598 139.387 176.209 143.308 176.209 143.308Z" fill="#E6576E"/>
<path d="M7.54773 211.607L41.9189 218.679L54.0585 192.672L43.2549 169.01L7.54773 211.607Z" fill="#E6576E"/>
<path d="M28.5741 152.5C18.5401 116.705 11.7443 77.3026 1.7103 41.501C0.221897 36.1936 -0.954301 29.6519 3.07528 25.8909C5.03561 24.0613 7.78008 23.4079 10.3939 22.8198C37.6716 16.7064 63.911 11.1884 91.2105 5.16948C90.9564 7.31859 91.3049 13.4101 91.4937 14.492C91.9801 17.3526 93.2797 20.1915 95.9734 21.571C98.0789 22.6528 100.62 22.631 102.907 22.0211C105.579 21.3096 108.091 19.8865 110.494 18.5651C109.18 22.7108 107.859 26.7332 109.761 30.9588C112.324 36.651 119.301 39.577 124.972 36.5566C125.625 43.7082 127.956 50.6202 129.546 57.6048C131.397 65.7366 133.358 73.8466 135.354 81.942C138.614 95.1634 142.041 108.341 145.381 121.541C145.838 123.341 146.354 125.142 146.702 126.964L28.5741 152.5Z" fill="#853725"/>
<path d="M31.0862 157.357C36.7712 187.197 46.4349 246.465 52.1127 276.306C52.8532 280.175 53.8915 284.503 57.2676 286.536C60.317 288.365 64.1869 287.661 67.6574 286.891C101.034 279.515 134.403 272.138 167.78 264.761C173.283 263.542 176.71 258.031 175.36 252.556L147.247 133.194L31.0862 157.357Z" fill="#FF617A"/>
<g opacity="0.3">
<path d="M175.374 252.549L147.262 133.187L129.742 136.831L154.449 241.724C155.8 247.198 152.373 252.716 146.869 253.929C115.199 260.928 83.5361 267.927 51.8658 274.926C51.953 275.391 52.0401 275.848 52.1272 276.298C52.8678 280.168 53.906 284.495 57.2822 286.528C60.3316 288.358 64.2014 287.654 67.6719 286.884C101.048 279.507 134.418 272.131 167.794 264.754C173.298 263.534 176.717 258.024 175.374 252.549Z" fill="#FF617A"/>
</g>
<path d="M58.9811 137.332L43.1677 140.701C40.0167 141.369 36.9164 139.358 36.2412 136.207L32.8723 120.401C32.2044 117.25 34.2155 114.15 37.3666 113.474L53.1799 110.105C56.331 109.438 59.4312 111.449 60.1065 114.6L63.4753 130.413C64.1506 133.557 62.1394 136.657 58.9811 137.332Z" fill="#BA4C33"/>
<path d="M93.2942 130.021L77.4809 133.39C74.3298 134.058 71.2296 132.047 70.5544 128.896L67.1855 113.082C66.5175 109.931 68.5287 106.831 71.6797 106.156L87.4931 102.787C90.6442 102.119 93.7444 104.13 94.4196 107.281L97.7885 123.095C98.4637 126.253 96.4526 129.353 93.2942 130.021Z" fill="#BA4C33"/>
<path d="M128.355 122.419L112.542 125.788C109.391 126.456 106.29 124.445 105.615 121.294L102.246 105.481C101.578 102.329 103.59 99.2293 106.741 98.554L122.561 95.1924C125.712 94.5245 128.813 96.5356 129.488 99.6867L132.857 115.5C133.525 118.644 131.513 121.744 128.355 122.419Z" fill="#BA4C33"/>
<path d="M49.753 101.233L33.9469 104.602C30.7958 105.27 27.6956 103.259 27.0204 100.108L23.6515 84.2944C22.9835 81.1434 24.9947 78.0431 28.1457 77.3679L43.9591 73.999C47.1102 73.3311 50.2104 75.3422 50.8856 78.4933L54.2545 94.3066C54.9152 97.4577 52.904 100.558 49.753 101.233Z" fill="#BA4C33"/>
<path d="M84.0661 93.9218L68.2527 97.2907C65.1017 97.9587 62.0015 95.9475 61.3262 92.7965L57.9573 76.9831C57.2894 73.832 59.3005 70.7318 62.4516 70.0566L78.265 66.6877C81.416 66.0197 84.5163 68.0309 85.1915 71.1819L88.5603 86.9881C89.2283 90.1536 87.2172 93.2539 84.0661 93.9218Z" fill="#BA4C33"/>
<path d="M119.127 86.3201L103.314 89.689C100.163 90.3569 97.0624 88.3458 96.3872 85.1947L93.0183 69.3814C92.3504 66.2303 94.3615 63.1301 97.5126 62.4548L113.326 59.086C116.477 58.418 119.577 60.4292 120.252 63.5802L123.621 79.3936C124.297 82.5446 122.285 85.6449 119.127 86.3201Z" fill="#BA4C33"/>
<path d="M42.3183 64.8145L26.5484 68.3504C23.4047 69.0546 20.2826 67.0798 19.5784 63.936L16.0425 48.1662C15.3382 45.0224 17.3131 41.9004 20.4569 41.1961L36.2267 37.6602C39.3705 36.956 42.4925 38.9308 43.1968 42.0746L46.7326 57.8444C47.4369 60.9882 45.4621 64.1102 42.3183 64.8145Z" fill="#BA4C33"/>
<path d="M76.5515 57.1329L60.7817 60.6688C57.6379 61.373 54.5159 59.3982 53.8116 56.2544L50.2758 40.4846C49.5715 37.3408 51.5464 34.2188 54.6902 33.5145L70.46 29.9786C73.6038 29.2744 76.7258 31.2492 77.43 34.393L80.9659 50.1628C81.6702 53.3066 79.6953 56.4286 76.5515 57.1329Z" fill="#BA4C33"/>
<path d="M88.7201 48.4276C89.4388 51.5713 92.6407 53.5389 95.8716 52.8274L112.077 49.248C115.308 48.5365 117.348 45.4072 116.629 42.2634L115.344 36.6365C112.948 35.4821 110.923 33.4927 109.776 30.9515C108.461 28.0255 108.686 25.2012 109.391 22.3624C108.309 21.9485 107.104 21.8251 105.884 22.0937L89.6712 25.6804C86.4403 26.3919 84.4001 29.5212 85.1189 32.665L88.7201 48.4276Z" fill="#BA4C33"/>
<path d="M7.54773 211.607C26.73 196.193 47.4514 177.178 80.0366 152.035C95.3417 161.365 133.692 181.215 133.692 181.215C133.692 181.215 150.565 163.63 176.216 143.308L151.342 124.706C122.213 130.282 24.9221 152.819 24.9221 152.819C24.9221 152.819 9.66053 207.236 7.54773 211.607Z" fill="#FF6E85"/>
<path d="M107.561 158.518C108.795 157.814 110.247 161.648 110.61 162.338C111.453 163.913 112.593 165.205 114.27 165.902C115.882 166.57 117.581 166.607 119.287 166.795C120.652 166.948 122.801 167.304 122.801 169.017C122.801 171.631 126.845 171.261 126.845 168.661C126.845 166.338 125.219 164.552 123.178 163.623C120.884 162.577 118.321 163.114 116.034 162.236C113.631 161.314 113.369 157.872 111.576 156.173C109.739 154.431 107.43 153.952 105.209 155.208C102.951 156.493 105.303 159.796 107.561 158.518Z" fill="#E6576E"/>
<path d="M156.112 136.897C152.032 135.038 148.844 139.053 148.699 142.821C148.612 145.072 149.149 147.25 148.234 149.407C147.385 151.403 145.809 152.913 143.813 153.727C141.395 154.7 142.796 158.511 145.229 157.531C148.358 156.268 150.921 153.806 152.119 150.619C152.714 149.029 152.91 147.417 152.859 145.726C152.838 144.956 152.329 139.634 154.377 140.571C156.751 141.652 158.486 137.979 156.112 136.897Z" fill="#E6576E"/>
<path d="M30.5708 179.625C30.0117 179.24 30.4692 178.543 30.9556 178.165C31.7688 177.526 33.2209 177.57 34.1938 177.454C36.1541 177.222 38.0491 176.822 39.8352 175.951C43.2912 174.259 46.0284 171.435 47.5604 167.899C48.5986 165.503 44.9321 163.761 43.8938 166.164C42.8991 168.458 41.3381 170.339 39.2181 171.682C36.902 173.141 34.5423 173.177 31.9503 173.649C29.7576 174.049 27.7174 174.985 26.7372 177.113C25.8515 179.044 26.1491 181.483 27.9715 182.74C30.0916 184.213 32.7199 181.12 30.5708 179.625Z" fill="#E6576E"/>
<path d="M52.7008 191.075C52.1635 211.368 56.3601 231.697 64.8549 250.139C66.3941 253.479 71.8032 251.504 70.2494 248.135C61.9361 230.1 57.9138 210.431 58.4366 190.581C58.4801 189.013 56.7449 187.858 55.3218 187.967C53.6229 188.091 52.7443 189.528 52.7008 191.075Z" fill="#FFC7D0"/>
</svg>
