<svg width="270" height="270" viewBox="0 0 270 270" fill="none" xmlns="http://www.w3.org/2000/svg">
<path fill-rule="evenodd" clip-rule="evenodd" d="M270 135C270 209.559 209.56 270 135.002 270C60.4433 270 0 209.559 0 135C0 60.4414 60.4433 0 135.002 0C209.56 0 270 60.4414 270 135Z" fill="#1E76B6"/>
<path fill-rule="evenodd" clip-rule="evenodd" d="M184.117 9.21711C207.779 22.4423 224.158 47.7291 234.297 72.0999C245.613 99.2982 252.601 131.626 243.063 160.416C235.103 184.447 217.715 204.478 195.798 216.976C171.313 230.938 143.442 234.634 115.581 233.836C84.6633 232.952 56.3805 223.978 32.4165 204.01C22.3296 195.602 13.5933 185.805 6.05548 175.093C23.1305 230.075 74.4035 270 135.002 270C209.56 270 270 209.559 270 135C270 77.7701 234.39 28.864 184.117 9.21711Z" fill="#125FAD"/>
<path fill-rule="evenodd" clip-rule="evenodd" d="M56.9456 24.7698C60.8213 25.7455 64.6742 26.8264 68.5807 27.6692C71.8974 28.3851 73.9208 32.5169 78.0212 31.1158C79.0209 30.7754 80.6959 31.5399 80.7501 29.7781C80.8018 28.0508 79.3515 27.8206 77.9338 27.7375C75.8716 27.6193 73.5435 28.6529 73.3927 24.6688C73.2948 22.1585 69.7706 24.6565 67.7423 23.2333C70.9587 20.0864 73.9208 17.3631 78.7507 17.9054C80.6344 18.1178 82.0176 18.5327 83.2284 20.0987C86.3211 24.1031 89.1965 24.3949 93.1467 21.309C94.054 20.6017 95.0076 19.2923 96.0485 20.6663C97.0131 21.9362 95.4754 22.6331 94.7343 23.4444C93.1707 25.1557 91.3344 26.1548 88.9207 25.9111C86.8185 25.6981 85.9924 26.7052 86.2362 28.7944C86.4713 30.8246 87.7382 30.8259 89.3769 30.8751C93.2569 30.9853 96.4019 28.4903 100.193 28.1074C102.132 27.9105 103.034 25.8618 100.898 24.3222C99.9285 23.6223 99.2101 23.1625 99.7648 21.9756C100.253 20.9359 101.245 20.5764 102.326 20.5635C104.815 20.534 107.304 20.5543 109.723 20.5543C110.409 22.1302 109.147 22.5635 108.508 23.1483C107.256 24.2908 106.085 25.2659 107.082 27.2204C107.972 28.9619 109.503 29.4125 111.13 29.1841C113.38 28.8621 112.569 26.8627 112.471 25.6223C112.257 22.915 113.995 21.8778 115.972 21.2603C120.64 19.8008 125.431 18.646 129.99 21.4967C133.273 23.5485 138.755 23.1656 138.557 29.2814C138.505 30.7581 143.339 30.0915 140.85 33.407C139.416 35.3171 137.355 34.4455 135.552 34.7453C135.268 34.7908 134.833 34.8302 134.745 35.01C130.98 42.6198 126.263 35.6212 121.468 36.6191C123.077 33.8724 125.281 33.5603 126.932 32.4473C127.85 31.8299 129.453 31.5713 129.146 30.0964C128.863 28.7661 127.641 27.7923 126.293 27.6802C123.374 27.4365 120.333 27.1964 117.657 28.6147C115.41 29.8065 113.911 32.0108 110.984 32.5372C109.98 32.7188 109.161 36.0263 107.436 37.4132C106.225 38.387 105.115 38.4849 104.777 36.9435C104.095 33.812 102.269 34.909 100.439 35.4292C95.6952 36.7718 91.793 39.7641 87.6274 42.1722C84.7298 43.8442 86.6307 46.3754 87.8656 48.2566C88.7422 49.59 90.3162 50.3576 91.9795 50.5891C95.5068 51.076 98.7466 51.7396 97.6669 56.6187C97.4754 57.4916 97.9143 58.3553 99.0599 58.4605C100.261 58.5695 101.126 57.9927 101.448 56.9271C102.558 53.2379 105.291 51.5962 108.795 50.8396C111.309 50.2961 110.731 48.2616 110.773 46.5897C110.968 38.5212 115.375 36.1051 122.576 40.1014C123.847 40.8075 124.146 41.7641 123.803 43.0248C122.736 46.919 125.043 46.5078 127.423 45.8128C128.394 45.5272 129.281 44.943 130.178 44.4382C132.283 43.2563 133.229 43.9562 132.986 46.2492C132.653 49.3628 133.779 51.4084 136.535 53.1123C139.331 54.8409 139.066 57.6289 136.075 59.1807C133.042 60.7554 133.391 61.7656 136.106 63.166C137.536 63.9023 140.349 64.7265 138.724 66.6976C137.012 68.7733 134.362 66.6157 132.197 66.05C130.517 65.6136 129.765 64.4335 131.054 62.7407C131.755 61.8161 132.749 60.7899 131.449 59.728C130.4 58.8717 129.672 60.0413 128.781 60.4575C126.585 61.4849 124.44 61.9164 122.336 59.8899C120.48 58.0998 118.091 57.8837 116.765 60.3424C115.06 63.5021 119.382 62.5911 119.862 64.0143C110.242 67.7145 103.266 74.9747 95.7063 81.3995C95.3708 81.6845 94.8771 81.9825 94.8044 82.3432C93.4052 89.2297 86.84 91.2064 82.4879 95.2563C80.5611 97.0494 79.9899 98.9768 80.1037 101.501C80.1555 102.632 81.9197 104.797 79.3466 104.959C77.7922 105.056 75.3201 104.078 75.4764 102.078C75.839 97.4274 72.8091 98.1243 70.1726 98.3022C65.5643 98.6112 60.9887 97.6687 56.3355 99.7063C50.8618 102.106 48.5737 106.41 46.5971 111.426C45.3 114.72 46.3773 117.465 48.7701 119.205C51.0182 120.839 54.0327 120.913 56.6538 119.266C58.5147 118.099 60.2839 116.781 62.1417 115.61C63.0288 115.052 63.7915 113.602 65.1267 114.838C66.0937 115.733 65.6444 116.901 65.1697 117.698C62.8268 121.639 63.645 123.736 68.4317 123.859C69.8703 123.895 70.4034 124.826 70.5167 126.186C70.6133 127.351 70.9451 128.495 71.0892 129.658C71.9676 136.735 71.9861 136.581 78.6707 137.753C81.8508 138.314 83.5307 136.716 85.3793 134.693C90.1137 129.51 93.9814 129.417 98.9122 134.398C101.474 136.984 104.749 136.688 107.005 135.205C110.179 133.117 112.095 134.275 113.356 136.65C115.756 141.163 118.538 143.898 124.257 143.305C127.568 142.963 128.093 146.828 129.188 149.267C130.061 151.208 128.322 154.12 130.517 155.405C133.782 157.316 137.353 158.807 141.276 158.941C142.305 158.976 143.338 159.013 144.362 158.942C148.327 158.667 152.039 158.741 153.736 163.402C154.026 164.196 155.202 164.959 156.106 165.189C160.698 166.358 159.984 169.932 157.902 171.734C151.857 176.961 152.355 183.977 151.542 190.692C150.965 195.448 147.695 198.559 142.876 198.567C136.579 198.578 134.871 200.508 136.562 206.58C137.547 210.111 137.046 212.737 134.444 215.303C132.58 217.141 130.613 219.184 129.611 221.53C126.968 227.721 121.702 229.831 115.878 231.186C113.494 231.74 112.208 232.533 114.731 234.315C117.057 235.959 116.102 237.138 114.779 238.52C112.635 240.764 113.546 242.376 116.043 243.016C118.775 243.716 119.441 245.07 118.233 247.417C116.6 250.586 117.974 252.586 120.463 254.5C121.605 255.379 123.574 256.321 122.589 258.313C121.803 259.909 120.202 258.63 118.985 258.808C112.743 259.732 109.571 254.928 106.524 251.206C102.836 246.694 99.1855 241.615 101.013 234.853C101.515 233.001 101.857 230.631 100.154 228.989C96.943 225.884 96.1809 222.158 97.7869 218.227C99.1997 214.77 95.7216 212.852 95.8398 209.857C96.0073 205.605 95.8645 201.34 95.8706 197.081C95.8811 189.6 93.6502 186.13 86.6264 183.807C84.2109 183.009 83.1219 181.996 82.555 179.443C81.743 175.773 78.4909 173.474 76.2077 170.678C71.1384 164.472 71.8667 154.987 78.4878 150.692C82.4208 148.143 79.6728 145.15 79.8938 142.419C80.1167 139.683 77.3976 140.155 75.956 140.216C70.4582 140.449 66.8343 137.575 64.0106 133.427C62.3922 131.051 60.2636 129.966 57.595 129.297C55.238 128.708 52.1317 129.13 51.5802 125.387C51.4238 124.318 49.7131 124.282 48.8747 124.637C44.7928 126.363 41.1325 124.129 37.3578 123.476C34.4541 122.973 31.4845 116.872 32.5027 113.974C33.026 112.491 32.7206 111.565 31.8896 110.391C28.696 105.876 24.9323 101.62 24.6048 95.6705C24.5543 94.7281 24.1394 93.8238 23.0572 93.9168C21.6346 94.0393 21.8519 95.2735 21.7411 96.2806C21.3268 100.077 23.1859 102.982 25.1668 105.97C26.2804 107.65 28.691 110.156 26.3481 111.705C23.7387 113.426 22.2139 110.624 20.7076 108.476C17.9436 104.535 16.9673 100.319 17.4173 95.617C17.6026 93.6945 17.6198 91.7671 15.2258 90.9176C12.1504 89.8256 10.6958 87.8163 11.8414 84.4405C12.2002 83.3817 11.8888 82.6947 10.5683 83.0868C18.1252 63.7133 30.1253 47.4829 45.5733 33.716C49.1739 30.5076 52.8009 27.3023 56.9456 24.7698Z" fill="#8CCB8F"/>
<path fill-rule="evenodd" clip-rule="evenodd" d="M239.547 218.96C236.971 219.332 235.534 218.416 235.924 215.626C236.454 211.828 235.136 208.695 232.53 206.049C229.894 203.371 230.68 200.018 230.677 196.86C230.674 194.436 230.563 192.263 228.447 190.545C225.557 188.202 225.391 184.967 227.391 182.283C231.468 176.808 230.696 172.041 226.885 166.8C223.239 161.782 220.259 156.334 222.637 149.634C223.16 148.162 222.807 146.761 220.691 146.52C217.371 146.146 214.21 145.62 211.325 143.393C209.739 142.17 206.871 142.377 204.952 143.408C199.632 146.265 193.744 144.556 188.267 145.885C187.866 145.984 187.28 145.97 186.977 145.744C181.966 142.043 178.351 136.998 174.56 132.205C172.372 129.439 173.822 125.665 173.672 122.342C173.612 121.052 174.936 120.409 175.407 119.418C176.153 117.848 178.027 116.168 174.684 114.605C172.388 113.529 171.902 110.994 174.646 109.069C177.048 107.386 179.263 105.416 181.758 103.89C185.434 101.64 188.014 99.3283 187.679 94.2289C187.398 90.0054 192.295 88.6104 194.945 88.7779C202.648 89.263 209.374 85.3768 216.834 85.0696C222.178 84.8505 222.507 84.5889 222.934 89.756C223.094 91.6551 223.803 92.6228 225.67 93.135C229.465 94.1796 233.449 94.6511 236.912 96.7878C237.99 97.4496 238.958 97.3677 239.664 95.8121C241.087 92.6764 245.079 91.1743 247.685 93.5228C252.709 98.0535 258.452 97.3332 264.265 97.199C276.147 141.871 268.041 182.485 239.547 218.96Z" fill="#8CCB8F"/>
<path fill-rule="evenodd" clip-rule="evenodd" d="M260.707 85.7252C252.37 85.908 251.88 85.6372 250.188 78.1185C249.709 75.9941 248.849 76.2902 247.476 77.0308C246.499 77.5558 246.16 78.4651 245.65 79.373C244.846 80.8067 245.608 83.8372 243.635 83.5848C241.453 83.306 239.275 80.8806 239.267 78.6005C239.25 74.2305 236.434 72.1455 233.653 69.818C233.094 69.3532 232.557 68.7056 231.908 68.5339C230.209 68.0876 227.886 67.4856 226.944 68.8755C225.862 70.4724 227.021 72.609 228.482 73.887C229.785 75.0283 231.425 75.7971 232.956 76.6559C234.297 77.4106 235.463 78.0298 234.701 80.0157C234.065 81.6925 234.711 83.9394 232.191 84.6301C230.248 85.1626 228.762 84.8314 227.842 82.9059C228.668 81.8877 229.823 82.518 230.726 82.1604C232.387 81.5005 232.779 80.6916 231.203 79.3632C228.012 76.6688 223.63 75.4315 221.475 71.4444C221.364 71.2381 220.661 71.1544 220.345 71.2837C214.442 73.7183 208.459 75.8033 205.729 82.6461C204.058 86.8425 192.618 86.9718 190.81 82.9028C189.589 80.1481 189.13 76.6528 191 74.0002C192.575 71.7645 195.585 71.7484 198.215 71.8402C199.512 71.8839 200.784 72.3807 202.079 72.5776C203.168 72.7432 204.078 72.4878 204.555 71.2898C204.984 70.2138 204.776 69.5311 204.015 68.5745C201.213 65.0559 202.321 62.407 206.796 62.0617C209.104 61.8838 210.89 61.0484 211.802 59.0847C213.96 54.442 217.625 53.4004 222.279 54.064C223.467 54.2327 225.276 54.9055 225.749 53.2983C226.123 52.0166 225.844 50.2831 225.25 49.0415C224.383 47.2323 222.895 48.7676 221.823 49.0797C220.484 49.4687 219.564 49.5851 219.05 48.0837C218.508 46.5047 217.542 45.6441 215.914 44.8359C213.112 43.4391 214.184 40.0559 217.824 38.2941C220.329 37.0789 223.857 37.0241 223.888 32.9816C237.573 45.7795 249.042 60.226 256.936 77.3348C258.22 80.1197 259.453 82.928 260.707 85.7252Z" fill="#8CCB8F"/>
<path fill-rule="evenodd" clip-rule="evenodd" d="M203.405 60.2746C202.21 60.0099 200.245 61.0324 199.632 59.3494C199.088 57.8572 200.138 56.6027 201.46 55.3438C204.353 52.5842 200.768 51.9237 199.426 50.6568C198.489 49.7728 197.019 49.2514 197.63 47.5555C198.056 46.3797 198.948 45.6201 200.197 45.3856C201.75 45.0956 203.037 45.0784 203.493 47.1615C204.286 50.8052 205.684 54.1539 209.191 56.1176C210.6 56.9037 209.908 57.7077 209.229 58.5787C207.725 60.503 205.592 60.1768 203.405 60.2746Z" fill="#8CCB8F"/>
<path fill-rule="evenodd" clip-rule="evenodd" d="M192.314 58.4907C191.934 58.4242 191.453 58.4531 191.09 58.2574C190.148 57.7501 190.094 56.7603 190.419 55.9754C191.45 53.5063 192.759 51.2355 195.859 50.9941C197.096 50.8981 198.242 51.1973 198.734 52.4488C199.332 53.9772 198.349 54.8852 197.208 55.6732C195.669 56.7351 194.368 58.2038 192.314 58.4907Z" fill="#8CCB8F"/>
<path fill-rule="evenodd" clip-rule="evenodd" d="M126.397 67.8512C126.336 69.3089 124.9 69.8278 124.189 70.8362C123.463 71.8666 122.166 72.0132 121.02 71.4382C120.594 71.224 120.07 70.5038 120.14 70.1159C120.406 68.6675 121.752 69.1532 122.648 69.0855C124.022 68.9796 124.493 66.3874 126.397 67.8512Z" fill="#8CCB8F"/>
<path fill-rule="evenodd" clip-rule="evenodd" d="M115.595 72.4354C114.712 72.3 114.314 71.7171 114.574 70.926C114.733 70.4483 115.242 69.7977 115.647 69.7552C116.453 69.6684 116.872 70.3511 116.922 71.1403C116.981 72.0525 116.439 72.4102 115.595 72.4354Z" fill="#8CCB8F"/>
<path fill-rule="evenodd" clip-rule="evenodd" d="M120.463 254.5C117.974 252.586 116.6 250.586 118.233 247.417C119.441 245.07 118.775 243.716 116.043 243.016C113.546 242.376 112.635 240.764 114.779 238.52C116.102 237.138 117.057 235.959 114.731 234.315C114.454 234.12 114.23 233.939 114.043 233.767C109.772 233.606 105.554 233.285 101.391 232.804C101.333 233.515 101.187 234.216 101.013 234.853C99.1855 241.615 102.836 246.694 106.524 251.206C109.571 254.928 112.743 259.732 118.985 258.808C120.202 258.63 121.803 259.909 122.589 258.313C123.574 256.321 121.605 255.379 120.463 254.5Z" fill="#7ABC84"/>
<path fill-rule="evenodd" clip-rule="evenodd" d="M264.265 97.199C258.452 97.3332 252.71 98.0535 247.685 93.5228C245.941 91.9512 243.582 92.1106 241.781 93.3227C248.073 115.24 250.217 138.822 243.063 160.416C239.552 171.012 234.204 180.83 227.446 189.568C227.736 189.906 228.062 190.235 228.447 190.545C230.563 192.263 230.674 194.436 230.677 196.86C230.68 200.018 229.894 203.371 232.53 206.049C235.137 208.695 236.454 211.828 235.925 215.626C235.534 218.416 237.681 219.913 240.256 219.543C268.75 183.068 276.147 141.871 264.265 97.199Z" fill="#7ABC84"/>
<path fill-rule="evenodd" clip-rule="evenodd" d="M256.936 77.3349C249.042 60.226 237.573 45.7796 223.888 32.9816C223.857 37.0241 220.329 37.0789 217.824 38.2941C217.247 38.5729 216.744 38.8961 216.303 39.2396C218.511 42.3317 220.594 45.513 222.553 48.7577C223.498 48.2665 224.566 47.6171 225.25 49.0415C225.844 50.2831 226.123 52.0166 225.749 53.2983C225.684 53.5137 225.593 53.6824 225.486 53.8246C228.323 58.9351 230.866 64.1497 233.124 69.3452C233.301 69.509 233.476 69.6715 233.652 69.818C236.434 72.1455 239.25 74.2305 239.267 78.6005C239.275 80.8806 241.453 83.306 243.635 83.5849C245.608 83.8372 244.846 80.8067 245.65 79.373C246.16 78.4651 246.499 77.5558 247.476 77.0308C248.849 76.2902 249.709 75.9941 250.188 78.1185C251.88 85.6372 252.37 85.9081 260.707 85.7252C259.453 82.928 258.22 80.1197 256.936 77.3349Z" fill="#7ABC84"/>
<path d="M25.6495 69.5865C27.5276 63.9509 30.7656 58.6483 34.2405 53.867C38.3409 48.2283 43.2021 43.0377 48.5115 38.5255C51.0015 36.4122 53.7015 34.4553 56.511 32.7926C57.616 32.1401 58.7296 31.5005 59.869 30.9077C60.9413 30.3482 62.3935 31.4168 61.483 32.5593C61.1008 33.2008 60.4698 33.7776 59.9798 34.3353C58.8785 35.5455 57.7459 36.7323 56.6704 37.9647C54.3398 40.6407 52.0136 43.3166 49.6928 45.9999C45.3247 51.0495 41.1996 56.3097 36.7607 61.2959C34.6209 63.6991 32.4535 66.066 30.1974 68.3603C29.3651 69.2067 28.5101 70.0402 27.6039 70.806C26.7083 71.5625 25.2727 70.7826 25.6495 69.5865Z" fill="#B9DEB8"/>
<path d="M16.729 84.1616C16.4514 84.1616 17.1328 81.0431 17.2326 80.7643C17.7749 79.2548 18.6669 77.8612 19.6893 76.6325C20.428 75.7436 24.5254 71.6746 24.7784 75.1034C24.963 77.6143 23.3564 80.6239 21.8605 82.5119C21.0165 83.5756 20.0027 84.619 18.7795 85.2414C17.9146 85.6797 16.8429 85.1392 16.729 84.1616Z" fill="#B9DEB8"/>
</svg>
